<?xml version="1.0" encoding="UTF-8" standalone="no"?>
<!-- Created with Inkscape (http://www.inkscape.org/) -->

<svg
   width="106.26697mm"
   height="89.031113mm"
   viewBox="0 0 106.26697 89.031113"
   version="1.1"
   id="svg5"
   inkscape:version="1.1.1 (c3084ef, 2021-09-22)"
   xmlns:inkscape="http://www.inkscape.org/namespaces/inkscape"
   xmlns:sodipodi="http://sodipodi.sourceforge.net/DTD/sodipodi-0.dtd"
   xmlns="http://www.w3.org/2000/svg"
   xmlns:svg="http://www.w3.org/2000/svg">
  <sodipodi:namedview
     id="namedview7"
     pagecolor="#ffffff"
     bordercolor="#999999"
     borderopacity="1"
     inkscape:pageshadow="0"
     inkscape:pageopacity="0"
     inkscape:pagecheckerboard="0"
     inkscape:document-units="mm"
     showgrid="false"
     inkscape:zoom="1.4142136"
     inkscape:cx="202.58609"
     inkscape:cy="76.013979"
     inkscape:window-width="1920"
     inkscape:window-height="1027"
     inkscape:window-x="0"
     inkscape:window-y="25"
     inkscape:window-maximized="1"
     inkscape:current-layer="layer1" />
  <defs
     id="defs2" />
  <g
     inkscape:label="Layer 1"
     inkscape:groupmode="layer"
     id="layer1"
     transform="translate(-48.741021,-30.980755)">
    <path
       style="fill:#000000;stroke-width:0.224619"
       d="m 72.072197,119.59178 c 3.14171,0.55197 5.05497,0.55876 7.81305,0.0277 3.228357,-0.62161 5.095417,-1.24752 7.603737,-2.54908 6.85342,-3.55621 11.44014,-9.98604 12.637286,-17.715385 l 0.13031,-0.84136 h 8.78625 8.78624 l -0.15852,0.61699 c -0.31352,1.220345 -0.4048,7.717175 -0.12188,8.675295 0.28412,0.96216 0.80425,2.25419 1.13656,2.82326 2.78152,4.76322 5.13538,6.84359 9.66065,8.53826 1.82012,0.68163 2.06728,0.71663 5.17219,0.72563 3.79185,0.0114 5.62886,-0.38045 8.74029,-1.86448 3.83132,-1.82739 7.55085,-6.45525 8.93323,-11.11478 0.8838,-2.97898 0.41248,-6.917565 -1.2638,-10.560895 -1.44306,-3.13643 -3.83165,-5.836342 -6.7029,-7.576537 -1.19506,-0.724294 -1.79728,-1.370007 -1.52815,-1.638519 0.20191,-0.201448 3.64474,1.909005 5.08221,3.115398 1.15482,0.969176 1.82808,1.791408 2.80687,3.427928 1.84153,3.07899 2.22475,3.48628 3.28025,3.48628 0.71784,0 0.96225,-0.1262 1.41219,-0.72918 1.00669,-1.34909 0.98949,-1.86785 -0.16184,-4.879866 -0.44218,-1.156789 -2.23124,-3.814047 -2.56802,-3.814236 -0.0839,-4.7e-5 -0.75975,-0.56223 -1.50184,-1.249296 -0.7421,-0.687065 -1.9781,-1.699165 -2.74667,-2.249112 -1.37621,-0.98474 -5.00767,-2.559275 -5.90264,-2.559275 -0.37193,0 -0.45823,-0.144834 -0.45823,-0.768773 0,-2.117159 -1.74036,-8.483528 -2.83625,-10.375253 -0.72165,-1.245694 -1.75452,-1.420234 -8.40447,-1.420234 h -5.79202 l -0.13164,-1.065719 c -0.0724,-0.586145 -0.20068,-2.256189 -0.28498,-3.711209 -0.12539,-2.16293 -0.23615,-2.750503 -0.60724,-3.221189 -0.43584,-0.552807 -0.44818,-0.78431 -0.31038,-5.822103 l 0.1435,-5.246407 1.04387,-1.792437 c 0.57413,-0.985839 1.18319,-1.907796 1.35347,-2.048792 0.17028,-0.140993 0.3096,-0.387167 0.3096,-0.547054 0,-0.319801 -2.18116,-2.571058 -2.491,-2.571058 -0.18061,0 -0.87237,0.884306 -2.65525,3.394333 l -0.73767,1.038533 -0.53168,6.004128 c -0.51265,5.789176 -0.55224,6.025536 -1.10584,6.602045 -0.5737,0.597521 -0.57415,0.600675 -0.57415,4.792422 v 4.194507 h -3.55388 -3.55388 l -0.63308,-1.963166 c -3.78852,-11.748104 -7.35214,-23.196131 -7.40454,-23.786696 -0.0358,-0.403439 -0.17944,-0.847648 -0.31925,-0.987136 -0.18901,-0.188576 -0.0553,-0.485496 0.52158,-1.157846 0.64325,-0.749779 0.77466,-1.079378 0.76866,-1.92957 -0.0118,-1.705896 -1.2614,-2.708047 -3.376636,-2.708047 h -1.1138 l -0.002,-1.626623 c -0.0011,-0.894642 -0.06576,-2.156677 -0.14376,-2.804522 l -0.14181,-1.177899 h -2.44233 -2.44233 v 2.669584 2.66958 l -11.0043,0.07885 -11.004287,0.07885 -0.68933,0.65897 c -0.62144,0.594068 -0.68934,0.793559 -0.68934,2.025424 0,0.927391 0.12423,1.544702 0.38662,1.92119 0.49784,0.714321 1.22204,1.323039 1.58535,1.332539 0.30526,0.008 0.26501,0.323287 -0.30687,2.404166 -0.17575,0.639492 -0.37849,1.800564 -0.45049,2.580161 -0.07202,0.779597 -0.22263,1.720824 -0.3347,2.091613 -0.11207,0.370791 -0.29762,1.380419 -0.41234,2.243618 -0.11472,0.8632 -0.61703,3.992561 -1.11625,6.954136 -0.49921,2.961576 -1.04432,6.242667 -1.21134,7.291314 -0.25118,1.576992 -0.37907,1.92053 -0.73975,1.987 -0.64098,0.118129 -4.30511,1.562146 -5.51138,2.172008 -1.20003,0.606706 -3.71694,2.292294 -5.08047,3.402413 -0.51469,0.419039 -0.98389,0.681337 -1.04259,0.582877 -0.05872,-0.09846 -0.23662,-0.764154 -0.39532,-1.47933 -0.1587,-0.715178 -0.39357,-1.365084 -0.52195,-1.444244 -0.26588,-0.163948 -5.759448,5.508569 -5.761048,5.94876 -0.0012,0.316777 0.01306,0.323247 1.836141,0.834608 l 1.275017,0.357635 -1.068105,1.61593 c -2.313126,3.499515 -2.340446,3.56899 -2.4504,6.231552 -0.132125,3.199411 0.01776,3.929616 0.918802,4.476319 0.530772,0.322037 0.93652,0.396945 1.587558,0.293077 l 0.87456,-0.139526 -0.194276,1.210666 c -0.106858,0.66586 -0.183178,2.82606 -0.169598,4.80045 0.02195,3.193015 0.09103,3.812975 0.624973,5.609045 2.745546,9.23536 9.839836,15.4285 19.647436,17.15174 z m 10.364427,-1.20195 c -5.769117,1.67786 -11.609377,1.11583 -17.168387,-1.65217 -7.28348,-3.62666 -12.03037,-10.38024 -12.927371,-18.392265 -0.268951,-2.40229 0.124611,-6.711918 0.811881,-8.890394 0.0926,-0.293526 0.05018,-0.369825 -0.140327,-0.252356 -0.199699,0.123141 -0.229074,0.02521 -0.109329,-0.364536 0.281026,-0.914685 0.579516,-1.279926 0.435506,-0.532911 -0.07136,0.370197 0.2243,-0.111232 0.65702,-1.069844 1.08495,-2.403454 2.63832,-4.68605 4.51476,-6.634204 3.83047,-3.976853 8.19555,-6.248321 14.07635,-7.324937 2.69004,-0.492474 2.92481,-0.501421 5.05974,-0.192812 3.36754,0.486789 5.670027,1.08218 7.908547,2.045047 5.05108,2.172643 9.45414,6.284082 11.7687,10.989223 0.76234,1.549738 0.99812,1.850984 1.44872,1.850984 0.65565,0 0.87135,-0.296485 0.60545,-0.832229 -0.10968,-0.22097 -0.37884,-0.805612 -0.59813,-1.299208 -1.061,-2.388136 -2.48004,-4.569368 -4.27745,-6.57494 -1.80113,-2.009728 -6.51853,-5.652777 -7.31981,-5.652777 -0.12617,0 -0.45405,-0.146852 -0.7286,-0.326337 -0.27456,-0.179487 -1.49034,-0.684294 -2.70174,-1.121795 -3.252107,-1.174519 -8.729067,-1.600914 -11.663207,-0.908015 -0.78301,0.184908 -1.92962,0.45094 -2.54803,0.591187 -1.3401,0.303909 -3.53731,1.359031 -5.39706,2.591713 -0.7421,0.491877 -2.00703,1.237021 -2.81097,1.65587 -3.1047,1.61755 -6.6161,6.304665 -8.01559,10.699419 -0.627383,1.970166 -0.950599,2.647912 -1.471213,3.084975 -0.755017,0.633849 -0.914401,0.663889 -1.603196,0.302168 -0.770075,-0.404405 -0.821365,-0.601693 -0.825065,-3.170775 -0.004,-2.839974 0.095,-3.133367 2.136006,-6.327653 0.802225,-1.255524 1.458591,-2.350701 1.458591,-2.433731 0,-0.08303 0.406107,-0.517013 0.902457,-0.96441 0.49636,-0.447398 0.96433,-1.059163 1.03983,-1.35948 0.18833,-0.748666 -0.55099,-2.355604 -1.04326,-2.267564 -0.36432,0.06516 -2.922924,2.769778 -2.922924,3.089724 0,0.08909 0.405811,0.344557 0.901803,0.567705 0.49599,0.223148 0.870004,0.437448 0.831134,0.476228 -0.06282,0.06268 -2.395039,-0.597318 -2.602815,-0.73657 -0.120883,-0.08102 4.298362,-4.78883 4.495292,-4.78883 0.09153,0 0.30689,0.630977 0.47858,1.402171 0.20047,0.900472 0.43484,1.425741 0.65504,1.468051 0.18858,0.03623 0.83936,-0.378711 1.44618,-0.9221 2.55762,-2.290287 7.68615,-5.025413 10.56475,-5.634339 l 0.69123,-0.146221 1.39479,-8.572694 c 0.76714,-4.714983 1.49536,-9.027029 1.61826,-9.582324 0.1229,-0.555295 0.37099,-1.968775 0.55131,-3.141065 0.34752,-2.25929 0.73463,-3.794988 0.76823,-3.047554 0.01063,0.236532 -0.23026,1.952899 -0.53532,3.814151 -0.30505,1.861254 -1.01248,6.41298 -1.57205,10.11495 -1.22473,8.102368 -1.38668,9.07497 -1.6026,9.624645 -0.14823,0.377379 -0.09273,0.407511 0.48798,0.264924 3.02997,-0.743981 7.22039,-0.904925 9.42545,-0.362007 0.49473,0.121808 1.40548,0.226276 2.0239,0.232176 1.118357,0.01065 1.512387,0.08604 4.002537,0.765825 0.71721,0.195792 1.40107,0.355984 1.51968,0.355984 0.13589,0 0.19419,-5.000421 0.15769,-13.517798 l -0.058,-13.517798 -6.494187,-0.05959 c -4.34494,-0.03986 -6.58962,0.01943 -6.78253,0.179167 -0.20056,0.166081 -0.33269,0.167142 -0.43406,0.0035 -0.08015,-0.129392 -0.32321,-0.235257 -0.54014,-0.235257 -0.69417,0 -1.58723,-1.169163 -1.73946,-2.277239 -0.12602,-0.917352 -0.07157,-1.099855 0.52786,-1.769202 l 0.66839,-0.746338 11.051317,0.05049 11.05133,0.05049 v -2.814424 -2.814426 h 2.02389 2.02388 l 0.002,1.963166 c 0.0014,1.079741 0.06516,2.341776 0.14186,2.804522 0.13889,0.838357 0.14328,0.841357 1.2374,0.841357 1.166686,0 1.727626,0.228248 2.722266,1.107694 0.87906,0.777246 0.80537,1.533933 -0.26785,2.750378 -0.85044,0.963932 -0.87317,1.029742 -0.5622,1.627767 0.17825,0.342771 0.32408,0.823383 0.32408,1.068025 0,0.244642 1.57565,5.407444 3.50144,11.472895 1.92579,6.065451 3.73327,11.785314 4.01661,12.710911 l 0.51518,1.682713 4.07896,0.06115 4.07897,0.06115 v -4.205062 -4.205065 l 0.64305,-0.567685 0.64305,-0.567687 0.51088,-6.057768 0.51089,-6.057769 1.2635,-1.779999 c 0.69492,-0.979 1.33526,-1.886945 1.42296,-2.017656 0.0981,-0.14615 0.50044,0.09454 1.04502,0.625078 l 0.88555,0.862734 -0.64964,0.960379 c -0.3573,0.528208 -0.95405,1.537749 -1.32611,2.243422 l -0.67648,1.283045 v 5.481975 c 0,5.148583 -0.0239,5.469647 -0.39353,5.279251 -1.61529,-0.832091 -3.28678,-0.348494 -3.1615,0.914689 0.0597,0.602428 0.21997,0.761561 1.14819,1.140346 0.92841,0.378864 1.20264,0.403185 1.96768,0.1745 0.87475,-0.261483 1.21973,-0.914685 0.66404,-1.257333 -0.12368,-0.07626 -0.22488,-0.240879 -0.22488,-0.36581 0,-0.124929 0.16743,-0.06011 0.37206,0.144058 0.29424,0.293566 0.41449,1.106379 0.57491,3.886267 0.11157,1.933285 0.24089,3.631756 0.28739,3.77438 0.0603,0.185101 1.87488,0.284499 6.34007,0.347319 6.82786,0.09605 7.1631,0.155032 7.93146,1.395414 1.18658,1.915524 2.83247,7.893424 2.91857,10.600473 0.0115,0.362739 0.20196,0.526781 0.74635,0.642951 1.53903,0.32843 4.45984,1.66636 5.82664,2.669008 4.25709,3.122858 5.89808,5.012059 6.82621,7.858714 0.61291,1.87986 0.61294,1.8803 0.19232,2.73955 -0.33972,0.69399 -0.5592,0.87276 -1.14034,0.92886 -0.6509,0.06284 -0.7929,-0.04433 -1.48644,-1.1218 -0.42173,-0.65521 -1.22597,-1.90433 -1.78721,-2.77582 -1.86617,-2.897837 -5.52637,-5.444898 -9.39554,-6.538174 -1.97372,-0.557704 -2.44506,-0.601644 -6.51282,-0.606444 -4.35606,-0.0052 -4.39822,-5.52e-4 -6.36434,0.701519 -2.69573,0.962597 -3.82082,1.664376 -5.6666,3.534549 -1.96649,1.992474 -2.86011,3.26513 -3.61671,5.15073 -0.32612,0.81278 -0.6577,1.5171 -0.7369,1.5652 -0.0792,0.04808 -0.49722,-0.07954 -0.92901,-0.28361 -1.40219,-0.66269 -1.31798,-2.62925 0.22384,-5.226849 1.06415,-1.792848 4.97641,-5.849054 6.17284,-6.399952 0.37673,-0.173465 1.00184,-0.515372 1.38913,-0.759794 1.15913,-0.731525 5.00546,-2.00472 6.05627,-2.00472 0.53663,0 1.49378,-0.110855 2.127,-0.246345 0.90641,-0.193945 1.79175,-0.166092 4.16233,0.130954 1.65607,0.207513 3.11626,0.312403 3.24488,0.233103 0.3817,-0.235365 0.26722,-1.179962 -0.53686,-4.42956 -0.96351,-3.893978 -1.87613,-5.923523 -3.00462,-6.68188 -0.83404,-0.560481 -0.83908,-0.560931 -6.7385,-0.594271 -3.24712,-0.01835 -5.94883,0.03927 -6.00383,0.128054 -0.055,0.08878 -0.002,1.45929 0.11881,3.045572 0.15674,2.065275 0.14889,2.9273 -0.0276,3.036127 -0.13556,0.08359 -0.94171,0.28286 -1.79145,0.442827 -1.47211,0.27713 -1.6035,0.265456 -2.7857,-0.24748 l -1.24072,-0.538327 -0.0655,-2.804522 -0.0655,-2.804522 h -3.59803 -3.59804 l 0.0896,9.330724 0.0896,9.330725 -3.10478,0.148561 c -1.70762,0.08171 -4.29714,0.148561 -5.75448,0.148561 -1.57223,0 -2.707786,0.0938 -2.792586,0.230675 -0.07859,0.12687 0.02628,0.903685 0.23304,1.726254 0.20677,0.822565 0.44216,2.561335 0.52316,3.863925 l 0.14722,2.36835 9.385116,0.0585 9.38513,0.0585 0.69173,-1.41546 c 2.1846,-4.470204 6.20717,-7.671455 11.22929,-8.936505 2.43758,-0.614018 6.01307,-0.507282 8.4374,0.251873 1.85465,0.580765 4.57947,2.139097 6.17457,3.531246 3.39316,2.961456 5.85638,8.282596 5.85638,12.651231 0,3.29729 -2.11486,7.64122 -5.36662,11.02306 -2.09453,2.17831 -4.75933,3.54651 -8.43859,4.33265 -2.54781,0.54438 -6.42334,0.34095 -8.5144,-0.44693 -4.89162,-1.84308 -7.63138,-4.4239 -10.02293,-9.44145 -0.82743,-1.73597 -1.11179,-5.45966 -0.6329,-8.28768 0.20251,-1.195935 0.36821,-2.319275 0.36821,-2.496325 0,-0.2745 -1.38683,-0.3219 -9.41894,-0.3219 h -9.418946 l -0.15605,1.24615 c -0.3647,2.912225 -1.83126,6.720975 -3.64028,9.454005 -1.24529,1.88137 -4.11938,4.79144 -5.99342,6.06846 -2.74782,1.87244 -4.50301,2.71737 -7.3875,3.55628 z m 57.270146,-11.60187 c 0.57822,-1.04168 0.66932,-1.43727 0.66532,-2.88962 -0.005,-2.00265 -0.51947,-3.31252 -1.80183,-4.591945 -1.31331,-1.3103 -2.58774,-1.79566 -4.71493,-1.79566 -1.35333,0 -2.0547,0.11716 -2.83107,0.47291 -2.07583,0.95117 -3.49215,2.967475 -3.73312,5.314545 -0.29585,2.88141 1.62309,5.65869 4.5401,6.57091 2.99162,0.93555 6.38223,-0.39096 7.87553,-3.08114 z m -7.53947,2.74844 c -2.76842,-0.91033 -4.66997,-3.51478 -4.43709,-6.07723 0.13823,-1.5209 0.59563,-2.5046 1.70857,-3.674445 3.00573,-3.15943 8.18926,-2.25463 10.07036,1.757815 1.27083,2.71071 -0.028,6.08341 -2.90713,7.54885 -0.96238,0.48981 -3.51837,0.74633 -4.43471,0.44501 z m 1.35072,-2.95338 c 2.47517,0.0146 3.9343,-2.35206 2.63555,-4.27485 -0.68935,-1.0206 -1.41156,-1.36302 -2.65757,-1.26004 -1.71376,0.14162 -2.67651,1.18955 -2.67651,2.9133 0,0.73586 0.72024,2.05304 1.31052,2.39668 0.20683,0.12041 0.83143,0.22191 1.38801,0.22491 z m 1.21868,-0.6361 c -0.14179,0.22883 -1.0542,0.33313 -1.77242,0.20253 -0.88302,-0.16056 -1.70459,-1.3694 -1.66689,-2.45254 0.0276,-0.79296 0.0312,-0.78954 0.18865,0.18194 0.22384,1.3809 1.08629,2.10549 2.3834,2.00245 0.5252,-0.0417 0.91546,-0.0122 0.86726,0.0656 z m 1.45175,-2.22936 c 0.0197,0.58036 -0.12355,0.98724 -0.47783,1.35717 -0.2783,0.29057 -0.3605,0.34305 -0.1827,0.11662 0.1778,-0.22644 0.39283,-0.83717 0.47783,-1.35717 l 0.15455,-0.94547 0.0281,0.82885 z m -1.22751,1.06725 c -1.16693,1.11765 -2.86718,0.44444 -2.86718,-1.13525 0,-1.41956 1.82745,-2.14097 2.84692,-1.12384 0.57638,0.57503 0.58662,1.71668 0.0203,2.25909 z m -2.90224,-2.68136 c -0.24605,0.3085 -0.47378,0.60299 -0.50598,0.65439 -0.0322,0.0514 -0.0586,-0.009 -0.0586,-0.1335 0,-0.12484 0.22769,-0.41932 0.50597,-0.65439 l 0.50598,-0.42741 -0.44736,0.56091 z m 2.92103,-0.44873 c 0.17255,0.27856 0.0947,0.27856 -0.33732,0 -0.20269,-0.13072 -0.23042,-0.21892 -0.0695,-0.22092 0.1473,-0.002 0.33041,0.0975 0.40681,0.22092 z m -61.103293,5.70936 c 3.92101,0.94839 8.095237,-0.23182 10.967037,-3.10081 4.28606,-4.281895 4.2968,-11.152565 0.0242,-15.497403 -4.535617,-4.612298 -11.946917,-4.617122 -16.476747,-0.01073 -1.48789,1.513036 -2.3511,3.050549 -2.89149,5.150148 -1.50555,5.84968 2.31837,11.993355 8.37696,13.458785 z m -5.00849,-3.35652 c -2.81634,-2.81151 -3.86816,-6.446685 -2.9182,-10.085475 0.4994,-1.91294 1.382,-3.40728 2.9182,-4.940843 4.3182,-4.310786 11.16513,-4.327815 15.481157,-0.0385 2.84215,2.824564 3.90359,6.468233 2.9492,10.123973 -0.50709,1.942395 -1.38528,3.425105 -2.9492,4.979345 -1.51421,1.50484 -3.432997,2.55404 -5.431147,2.96977 -3.65798,0.76108 -7.39459,-0.35741 -10.05001,-3.00827 z m 10.13213,-2.41466 c 1.79811,-0.9277 2.669887,-2.405675 2.676887,-4.537595 0.0063,-1.93678 -0.618987,-3.18013 -2.087027,-4.15029 -2.04994,-1.354709 -4.61286,-1.093848 -6.3699,0.64834 -2.53754,2.5161 -1.78874,6.602825 1.49253,8.145755 1.06248,0.4996 3.21674,0.44624 4.28751,-0.10621 z m -0.62606,-0.28662 c -3.5605,1.4839 -7.38563,-2.332465 -5.89833,-5.884805 0.19209,-0.45878 0.62217,-1.12081 0.95573,-1.47118 0.67429,-0.70824 1.81482,-1.37327 2.01413,-1.17441 0.07096,0.07082 0.01448,0.12872 -0.12551,0.12872 -0.44889,0 -1.90121,1.42721 -2.21514,2.17682 -0.36355,0.86818 -0.39673,2.70887 -0.0646,3.5859 0.29301,0.77374 1.2393,1.797185 2.05464,2.222165 0.33399,0.17408 1.12327,0.31651 1.75397,0.31651 1.2911,0 2.08223,-0.33884 2.96532,-1.270055 0.79013,-0.83318 1.08247,-1.64841 1.08247,-3.01857 0,-1.21431 -0.39311,-2.17643 -1.31871,-3.2275 l -0.59275,-0.67308 0.75921,0.67308 c 2.564737,2.2738 1.844537,6.27652 -1.3704,7.616405 z m -2.77961,-0.97447 c -3.0872,-1.398925 -2.93273,-5.668345 0.24895,-6.880655 0.94818,-0.36129 1.06292,-0.36129 2.0111,0 3.18168,1.21231 3.33615,5.48173 0.24895,6.880655 -1.14054,0.51683 -1.36846,0.51683 -2.509,0 z m 1.2545,-7.712705 c -0.55658,0 -0.78426,-0.0437 -0.50598,-0.0972 0.27829,-0.0535 0.73367,-0.0535 1.01195,0 0.27829,0.0534 0.0506,0.0972 -0.50597,0.0972 z m 77.193253,2.35848 c 0.068,-0.27895 0.0135,-0.83425 -0.12116,-1.23399 -0.9856,-2.925207 -1.22469,-3.381956 -2.41279,-4.609372 -2.96702,-3.065197 -5.11886,-4.705679 -7.40775,-5.647377 -1.91252,-0.78685 -3.0186,-1.019621 -7.04515,-1.482618 -2.86016,-0.328881 -3.65038,-0.343034 -5.68965,-0.101908 -2.42145,0.286315 -6.03207,1.379285 -7.24018,2.191667 -0.33798,0.227274 -0.88725,0.549889 -1.22059,0.716919 -0.33335,0.167033 -1.59828,1.277633 -2.81097,2.468002 -2.20358,2.163023 -3.42304,3.873329 -4.04803,5.677417 -0.36081,1.04152 -0.25818,2.38204 0.20481,2.67513 0.67904,0.42986 1.04728,0.18064 1.49427,-1.01131 0.24775,-0.66064 0.93469,-1.89744 1.52653,-2.748434 3.82682,-5.502469 9.43506,-7.704999 17.41978,-6.841303 4.59013,0.496511 8.36634,2.280638 11.49999,5.433343 0.95854,0.96437 1.7428,1.848214 1.7428,1.964094 0,0.21048 1.77761,3.03129 2.24452,3.56174 0.56988,0.64742 1.5945,0.09101 1.86357,-1.012 z m -0.74478,0.18903 c -0.12697,0.2367 -0.35378,0.42861 -0.50403,0.42661 -0.15026,-0.0021 -0.82612,-0.93597 -1.50193,-2.07535 -2.73137,-4.604969 -7.81025,-8.113117 -12.8849,-8.900026 -10.06183,-1.560247 -17.53515,1.753884 -21.00457,9.314726 -0.73084,1.59268 -1.07552,1.58272 -0.90907,-0.0263 0.10547,-1.01957 0.35373,-1.57971 1.38642,-3.128195 1.23944,-1.858483 4.28534,-4.923876 5.49244,-5.527575 0.32394,-0.162014 0.86443,-0.479751 1.20109,-0.706085 0.83598,-0.562024 4.24016,-1.663171 6.02178,-1.947857 0.80393,-0.128463 2.17007,-0.233453 3.03584,-0.233314 1.5959,2.58e-4 6.43768,0.504628 7.65542,0.797465 1.53573,0.369311 4.07593,1.526852 5.35982,2.442418 1.76932,1.261735 5.76203,5.154607 5.76203,5.617948 0,0.195378 0.18778,0.729825 0.4173,1.187655 0.56196,1.12096 0.75277,2.23512 0.47236,2.75786 z M 50.088489,89.76354 c 0.571011,0.569702 0.743865,0.563021 1.451096,-0.05609 0.40012,-0.350264 0.849778,-1.320858 1.468744,-3.17031 0.725008,-2.166319 1.206258,-3.136201 2.569768,-5.178953 1.90055,-2.847339 3.66616,-4.59545 5.76377,-5.706655 0.79162,-0.419366 2.15058,-1.218563 3.0199,-1.775994 1.9284,-1.236541 3.99648,-2.194616 5.18808,-2.403463 0.48953,-0.0858 1.64901,-0.357352 2.57663,-0.603457 1.7745,-0.470785 3.90199,-0.46151 8.20803,0.03579 2.021727,0.233487 6.140367,1.741315 8.299237,3.038339 4.47244,2.686988 8.79854,7.577326 10.62348,12.009055 0.71759,1.742633 1.002056,2.006162 2.235556,2.070982 1.06563,0.056 1.10718,0.03529 1.17848,-0.587213 0.12202,-1.065568 -0.98736,-4.174729 -1.93124,-5.412508 -0.47049,-0.616995 -1.610576,-2.220509 -2.533526,-3.563366 -2.69122,-3.915616 -5.67417,-6.290701 -10.85572,-8.643542 -2.62854,-1.193567 -8.112127,-2.271776 -11.513817,-2.263876 -7.31915,0.01698 -14.98432,3.216249 -20.21392,8.436861 -2.02094,2.017456 -5.101216,6.31694 -5.677168,7.924234 -0.15897,0.443639 -0.291765,1.829668 -0.297265,3.101739 -0.0086,2.008372 0.04711,2.356555 0.439885,2.748432 z m 0.224877,-2.920677 c 0,-2.714481 0.05863,-2.872878 2.34567,-6.337558 2.312751,-3.503625 6.714101,-7.411 10.385481,-9.219893 2.63214,-1.296858 7.34068,-2.743006 9.64416,-2.962037 3.12047,-0.296719 8.65684,0.160963 11.328097,0.936472 4.37623,1.270485 9.46589,4.303448 11.72183,6.985105 0.55658,0.661601 1.1185,1.323665 1.24874,1.471255 0.13023,0.14759 0.71401,0.975083 1.2973,1.838876 0.58329,0.863793 1.44924,2.125828 1.924336,2.804523 0.72573,1.036722 2.05107,4.251436 2.05107,4.975027 0,0.116808 -0.36136,0.181048 -0.80302,0.142748 -0.58941,-0.05111 -0.87994,-0.218845 -1.09218,-0.63054 -0.15903,-0.308497 -0.455436,-0.87937 -0.658676,-1.268606 -0.20324,-0.389237 -0.36953,-0.812919 -0.36953,-0.941519 0,-0.27839 -1.45906,-2.798413 -1.86313,-3.217898 -0.15533,-0.16126 -0.65279,-0.798016 -1.10547,-1.415011 -1.38646,-1.88973 -4.77121,-4.936676 -7.15088,-6.437196 -2.63838,-1.663652 -6.6515,-3.04089 -9.782167,-3.357076 -4.2892,-0.433196 -5.37123,-0.37908 -9.08352,0.454303 -2.46145,0.552579 -3.84119,1.145444 -6.515,2.799459 -1.06806,0.660698 -2.67097,1.628941 -3.56204,2.15165 -3.00598,1.763349 -6.30908,6.245853 -7.759237,10.529752 -0.485344,1.43375 -1.043198,2.784045 -1.239675,3.000653 -0.797782,0.879516 -0.962159,0.486154 -0.962159,-2.302489 z m 48.983548,1.776508 c 0.56382,0.01687 0.729436,-0.06319 0.67464,-0.326029 -0.0718,-0.344038 -0.42246,-0.482283 -0.39676,-0.15642 0.0073,0.09255 -0.22038,0.233928 -0.50597,0.314178 -0.43694,0.122781 -0.40078,0.149451 0.22809,0.168271 z m 3.567086,0.09526 3.32834,-0.143418 c 1.83058,-0.07888 3.3738,-0.188751 3.4293,-0.244161 0.0555,-0.05541 0.15726,-2.91726 0.22606,-6.359672 l 0.12509,-6.258932 -2.85385,-2.115195 -2.85385,-2.115196 0.13789,-1.176517 c 0.13448,-1.147433 0.11115,-1.210477 -0.94379,-2.550161 l -1.08167,-1.373642 -1.68909,0.150453 c -0.928986,0.08275 -1.938696,0.211891 -2.243786,0.286981 -0.45124,0.111057 -0.26588,-0.18419 0.99365,-1.582715 1.770886,-1.966312 2.239816,-2.312085 0.705366,-0.520116 -0.564736,0.659521 -0.952066,1.281483 -0.860666,1.382143 0.09136,0.100657 0.02399,0.100747 -0.14973,1.97e-4 -0.21287,-0.123209 -0.26335,-0.09809 -0.15487,0.07703 0.08853,0.142917 0.38245,0.214507 0.65316,0.159097 0.2707,-0.05541 0.972856,-0.162934 1.560356,-0.238934 0.9645,-0.124768 1.07109,-0.196723 1.09879,-0.741424 l 0.0306,-0.603248 0.1033,0.560904 c 0.0568,0.308498 0.44781,0.981747 0.86888,1.496112 0.42108,0.514363 0.76559,1.044418 0.76559,1.177899 0,0.399551 0.63522,0.273989 0.75856,-0.149941 0.0628,-0.215948 0.18052,-0.957657 0.26162,-1.648242 0.21412,-1.824037 0.33772,-1.936058 1.36652,-1.238572 1.0018,0.679182 1.43622,0.742683 1.43622,0.209943 0,-0.207441 -1.4107,-4.725527 -3.13488,-10.040191 -1.72418,-5.314664 -3.3983,-10.49597 -3.72026,-11.514011 l -0.58539,-1.850985 h -6.624096 -6.6241 l 6.9e-4,10.04019 c 3.8e-4,5.522105 0.06637,11.769169 0.14677,13.882366 l 0.14609,3.842175 0.92139,0.485513 c 4.64685,2.448565 5.97611,3.410297 8.18663,5.923086 0.78013,0.886806 1.60955,1.965746 1.84315,2.397642 0.23361,0.431897 0.82914,1.290081 1.3234,1.907075 2.042766,2.55002 3.504476,6.015638 3.235286,7.670659 z m 6.36728,-0.745986 h -2.81096 -2.81097 l 8.9e-4,-0.729167 c 10e-4,-1.209639 -1.12074,-4.266789 -2.04329,-5.566216 -0.47667,-0.6714 -1.37381,-1.962499 -1.993636,-2.869109 -3.12021,-4.563883 -5.16037,-6.382557 -9.98005,-8.896623 l -1.72049,-0.897447 -0.003,-8.525748 c -0.0016,-4.689162 -0.06927,-10.715576 -0.15027,-13.39203 l -0.14729,-4.866284 6.09585,-0.01981 c 5.62514,-0.01828 6.11199,0.011 6.30494,0.379045 0.179196,0.341838 4.163846,12.536622 6.457106,19.761597 0.70018,2.205934 0.71155,2.296948 0.24945,1.997457 -1.45748,-0.944624 -1.49936,-0.960049 -1.70625,-0.628357 -0.10803,0.17321 -0.26095,0.830336 -0.33985,1.460284 -0.21439,1.711956 -0.39697,1.864643 -1.11174,0.929683 -0.60309,-0.788876 -0.60642,-0.812845 -0.36093,-2.601641 0.25958,-1.891554 0.16465,-2.68341 -0.32172,-2.68341 -0.38893,0 -5.526316,5.708101 -5.526316,6.140226 0,0.532743 0.20137,0.554907 2.46067,0.270823 2.364666,-0.297336 2.233126,-0.345793 3.476596,1.280744 0.59925,0.783853 0.62748,0.918609 0.48009,2.291742 -0.14314,1.333629 -0.12029,1.458917 0.26611,1.458917 0.23248,0 1.0248,0.482162 1.7607,1.071473 0.7359,0.589309 1.81867,1.414126 2.40616,1.832928 l 1.06817,0.761455 v 6.019735 z M 101.84393,64.55024 c -0.0735,0.916117 -0.12274,0.982227 -0.73085,0.982227 -0.81802,0 -0.80726,-0.140278 0.0882,-1.150498 l 0.72149,-0.813953 -0.0789,0.982224 z m 0.82563,-2.401454 c 0.0398,0.259715 0.0262,0.647715 -0.0301,0.862225 -0.091,0.347024 -0.10523,0.343852 -0.12843,-0.02878 -0.0194,-0.311699 -0.14768,-0.387079 -0.50158,-0.294739 -0.45936,0.119845 -0.45745,0.104775 0.0562,-0.443424 0.51852,-0.553373 0.53352,-0.555742 0.60392,-0.09528 z m 16.18847,13.640183 c 0.49769,0.408034 0.89378,0.498214 2.21786,0.504814 0.88659,0.0044 1.77204,-0.05322 1.96768,-0.128117 0.4741,-0.181637 0.47573,-1.73094 0.002,-2.203588 -0.19434,-0.193913 -0.24495,-0.352568 -0.11244,-0.352568 0.13921,0 0.24094,-0.473653 0.24094,-1.121809 0,-1.248614 -0.18002,-1.348706 -1.56157,-0.868119 -0.75067,0.261083 -2.31559,-0.02098 -2.592,-0.467184 -0.0686,-0.110667 0.28482,-0.04074 0.78527,0.155391 0.81078,0.317749 1.02544,0.320913 1.97044,0.02904 l 1.06053,-0.327559 0.0692,-1.202673 c 0.0466,-0.810054 -0.0268,-1.26342 -0.22488,-1.388746 -0.24001,-0.151787 -0.23852,-0.186707 0.008,-0.189507 0.23463,-0.0027 0.26666,-0.26674 0.14323,-1.181335 -0.0874,-0.647844 -0.18829,-1.21014 -0.22409,-1.24954 -0.0358,-0.0394 -0.46677,0.04842 -0.95768,0.195166 -0.69027,0.206258 -1.07678,0.206071 -1.70535,-8.98e-4 -0.44702,-0.147192 -0.86148,-0.346307 -0.92108,-0.442477 -0.0596,-0.09617 0.34624,-0.02555 0.90181,0.15693 0.87755,0.288235 1.12009,0.290023 1.84798,0.01362 0.79426,-0.3016 0.83786,-0.370212 0.83786,-1.31846 v -1.000303 l -1.34927,-0.0052 c -0.74209,-0.0029 -1.5703,-0.129055 -1.84045,-0.280452 -0.86822,-0.486583 -0.99642,-0.350094 -0.95322,1.014811 0.0225,0.709544 -0.0343,1.869288 -0.12619,2.57721 l -0.16707,1.28713 1.09371,0.475782 c 0.92078,0.40055 1.23563,0.439138 1.99125,0.244036 1.19188,-0.307746 1.30704,-0.146464 0.14371,0.201281 -0.7696,0.230047 -1.06736,0.214782 -1.88465,-0.09663 -0.53386,-0.203415 -1.04319,-0.369845 -1.13179,-0.369845 -0.27261,0 -0.17805,1.912646 0.10871,2.198746 0.2013,0.201114 0.20314,0.269234 0.007,0.269234 -0.18254,0 -0.26134,0.666379 -0.25734,2.187527 0.005,2.100054 0.0295,2.207391 0.61114,2.684274 z m 2.40416,0.0065 c -1.51704,0.06136 -2.58609,-0.493423 -2.58609,-1.342049 0,-0.416851 0.0406,-0.431277 0.39354,-0.139883 0.9018,0.744522 1.52992,0.915264 2.43984,0.663202 1.19554,-0.331175 1.25604,-0.317815 1.17384,0.259343 -0.0644,0.452118 -0.21271,0.510507 -1.42113,0.559387 z m 1.08329,-1.718715 c -0.38919,0.388296 -1.73183,0.44567 -2.48877,0.10635 -1.05371,-0.472356 -0.90107,-0.637964 0.18749,-0.203411 0.73786,0.294558 1.0761,0.318297 1.7211,0.120794 0.48348,-0.148029 0.71422,-0.15747 0.58018,-0.02373 z m -0.19842,-0.686106 c -0.71196,0.270068 -1.35639,0.254668 -2.23413,-0.05339 -0.96169,-0.337521 -1.23683,-0.606647 -1.23683,-1.20979 v -0.529599 l 0.82462,0.462093 c 0.71477,0.400544 0.95268,0.42992 1.78616,0.22053 1.34072,-0.336814 1.43702,-0.315036 1.43702,0.324891 0,0.401613 -0.16787,0.630134 -0.57684,0.785267 z m 0.30842,-3.539513 c -0.0564,0.562051 -0.21224,0.734064 -0.85598,0.944583 -1.10796,0.362326 -2.69853,-0.190198 -2.69853,-0.937401 0,-0.566041 0.24886,-0.640708 0.86205,-0.258645 0.30916,0.192634 0.68748,0.170819 1.58378,-0.09132 l 1.17759,-0.344409 -0.0689,0.687191 z m -1.08085,-1.742454 c -0.63329,0.211372 -0.95184,0.198592 -1.63036,-0.06541 -0.74001,-0.287923 -0.84329,-0.419693 -0.84329,-1.075889 0,-0.615911 0.0694,-0.723097 0.39354,-0.607811 0.21644,0.07698 0.51871,0.236531 0.67171,0.354554 0.25228,0.194611 0.77905,0.139257 1.93013,-0.202825 0.34531,-0.102729 0.39811,-0.0085 0.33731,0.606526 -0.06,0.606882 -0.20305,0.771909 -0.85904,0.990855 z m -2.47365,-4.055004 c 0,-0.311841 0.0759,-0.53102 0.16866,-0.48707 0.0928,0.04395 0.43173,0.21029 0.75326,0.369643 0.42669,0.211472 0.8005,0.230258 1.38387,0.06955 0.74519,-0.205284 0.80636,-0.183319 0.90366,0.324627 0.0709,0.370233 -0.0255,0.614159 -0.30092,0.761228 -1.07496,0.57398 -2.90853,-0.08037 -2.90853,-1.037978 z m -11.90695,9.105355 c 1.24319,0.988129 2.40693,1.796601 2.58609,1.796601 0.26336,0 0.32576,-0.442782 0.32576,-2.310926 0,-1.27101 -0.0887,-2.406841 -0.19704,-2.52407 -0.10838,-0.117229 -0.41427,-0.876831 -0.67977,-1.688007 -0.41066,-1.254709 -0.63874,-1.589612 -1.52799,-2.243617 -0.5749,-0.422815 -1.17491,-0.866147 -1.33335,-0.985182 -0.15844,-0.11904 -0.35302,-0.15162 -0.43242,-0.07241 -0.17438,0.173983 -0.98454,4.748803 -0.99454,5.615717 -0.006,0.514101 0.36465,0.910741 2.25326,2.41189 z m 2.27868,-2.318759 c 0.11218,0.142836 0.17408,0.968337 0.13748,1.834449 l -0.0665,1.574751 -2.08188,-1.6762 c -1.70206,-1.3704 -2.06287,-1.76647 -1.97777,-2.170992 0.0573,-0.272135 0.21638,-1.252013 0.35361,-2.177506 0.35581,-2.39952 0.29237,-2.331419 1.44729,-1.553766 0.915,0.616116 1.0666,0.848182 1.50081,2.297454 0.26564,0.886662 0.57477,1.728977 0.68695,1.87181 z m 10.5506,-10.898033 c 0.17295,0.109256 0.58084,0.200276 0.90644,0.202076 0.57302,0.0033 0.5963,-0.0487 0.72651,-1.623188 0.074,-0.894643 0.20148,-3.337382 0.28328,-5.42831 0.11862,-3.031471 0.22201,-3.881426 0.51031,-4.195265 0.19886,-0.216469 0.7124,-1.048106 1.1412,-1.848084 0.76637,-1.429752 0.77248,-1.462406 0.35868,-1.918594 -0.23153,-0.25525 -0.53882,-0.464088 -0.68287,-0.464088 -0.14405,0 -0.82524,0.832943 -1.51376,1.850985 l -1.25185,1.850985 -0.39619,5.687421 c -0.33836,4.85796 -0.35028,5.716393 -0.0817,5.886062 z m 0.64753,-0.467575 c -0.35165,0 -0.43055,-0.113596 -0.34965,-0.504814 0.0574,-0.277647 0.16766,-1.81733 0.24496,-3.421517 0.0773,-1.604187 0.2249,-3.828422 0.32799,-4.942746 0.17927,-1.937721 0.23653,-2.097135 1.31343,-3.656806 0.6193,-0.89692 1.19233,-1.523663 1.27343,-1.392764 0.15663,0.252851 -1.09099,2.645333 -1.594,3.056707 -0.21664,0.177172 -0.36146,1.559299 -0.52897,5.048141 -0.12686,2.642293 -0.23123,5.031338 -0.2319,5.308985 -8.8e-4,0.356415 -0.13473,0.504814 -0.45529,0.504814 z M 72.458347,40.988216 c 0.53748,0.233644 3.56182,0.297514 14.423497,0.304414 13.506846,0.0086 13.753466,8.91e-4 14.327566,-0.449664 0.34038,-0.267122 0.64671,-0.791245 0.73411,-1.255901 0.12385,-0.658681 0.0567,-0.890444 -0.38563,-1.331807 l -0.53558,-0.534349 -14.460356,-0.01418 -14.460357,-0.01418 -0.42983,0.514343 c -0.23641,0.282891 -0.43332,0.68628 -0.43732,0.896421 -0.01423,0.726818 0.54654,1.590438 1.2239,1.884889 z M 100.9924,40.514808 c -0.29468,0.293986 -2.110476,0.334956 -13.983886,0.315506 -7.504887,-0.0123 -13.896707,-0.09222 -14.204057,-0.177591 -0.30735,-0.08537 -0.7115,-0.426642 -0.89813,-0.758372 -0.30596,-0.543925 -0.30217,-0.664176 0.0387,-1.224672 0.2079,-0.341838 0.48556,-0.611427 0.61704,-0.599087 0.13147,0.01234 6.59722,0.03758 14.368317,0.05609 l 14.129276,0.03365 0.28654,0.53417 c 0.31303,0.583558 0.17525,1.292494 -0.35377,1.820301 z m -5.993016,-3.615526 c 0.08816,0.08799 0.61943,0.13003 1.18061,0.09349 l 1.02032,-0.06643 0.13225,-1.907075 c 0.07272,-1.048891 0.0533,-2.12542 -0.0432,-2.392285 -0.15373,-0.425173 -0.2953,-0.469593 -1.1442,-0.359003 -0.53282,0.06942 -1.04308,0.237278 -1.13398,0.373028 -0.21277,0.317885 -0.22311,4.047456 -0.0118,4.258284 z m 1.88856,-0.926474 c -0.02227,0.550824 -0.10936,0.616994 -0.81202,0.616994 h -0.78707 v -1.87903 -1.87903 l 0.69773,-0.139225 c 0.38375,-0.07658 0.78383,-0.08614 0.88906,-0.02125 0.10528,0.06489 0.15668,0.695454 0.11428,1.40126 -0.04238,0.705805 -0.08828,1.56093 -0.10198,1.900278 z m 21.530306,61.194687 h -9.05786 -9.05786 l -0.15395,-2.18753 c -0.0847,-1.20314 -0.303976,-2.83338 -0.487366,-3.622764 -0.18342,-0.789381 -0.29132,-1.477263 -0.23982,-1.528633 0.05148,-0.05137 2.688406,-0.153368 5.859826,-0.226668 l 5.76621,-0.133273 -0.15678,-9.387912 -0.15679,-9.387915 h 3.29649 3.29648 v 2.68717 c 0,3.020852 -0.0559,2.916425 1.99579,3.726436 0.87572,0.345726 1.14758,0.356203 2.47365,0.09534 0.8194,-0.161188 1.72183,-0.397304 2.00541,-0.524697 0.56025,-0.251682 0.55409,-0.02746 0.13241,-4.820287 l -0.1246,-1.416194 5.80999,0.07002 c 6.60504,0.07961 6.60462,0.0795 7.58656,1.977099 1.1017,2.129036 2.77879,8.699009 2.27026,8.893701 -0.14816,0.05673 -1.11666,-0.0029 -2.15221,-0.132407 -5.34483,-0.66865 -10.3293,0.246037 -14.2928,2.622836 -3.43981,2.062754 -7.23884,6.542572 -7.85038,9.257158 -0.39366,1.74749 -0.0813,2.85485 0.92354,3.27372 1.35439,0.56461 1.54859,0.45738 2.33022,-1.2867 1.44312,-3.220075 3.59457,-5.77152 6.08824,-7.220155 1.36952,-0.795591 3.34767,-1.617186 4.38511,-1.821288 0.37104,-0.073 0.92762,-0.184451 1.23682,-0.247671 0.30921,-0.06322 1.42463,-0.145254 2.47871,-0.182314 3.92225,-0.137877 8.16644,0.604884 8.44412,1.477779 0.0755,0.237268 0.1023,0.466303 0.0595,0.508963 -0.0428,0.04266 -0.93745,-0.181872 -1.98821,-0.498963 -2.66447,-0.804068 -6.69459,-0.846907 -9.3187,-0.09906 -4.77769,1.3616 -8.93933,4.767352 -10.81183,8.848049 z M 98.886514,87.744289 c -0.24718,0 -0.39893,-0.240828 -1.16274,-1.845325 -2.54844,-5.353389 -8.0465,-9.987097 -14.30583,-12.056808 -1.71541,-0.567218 -6.199947,-1.354469 -7.715677,-1.354469 -2.92939,0 -7.76391,1.307717 -11.22902,3.037403 -3.4534,1.723837 -7.15073,5.12778 -9.22837,8.496092 -0.60973,0.9885 -1.10859,1.732345 -1.10859,1.652985 0,-0.922151 3.43231,-6.05443 5.01287,-7.49566 0.66339,-0.604909 1.85607,-1.442638 2.65041,-1.861618 0.79434,-0.418977 2.00082,-1.135243 2.68108,-1.591701 2.77914,-1.864828 5.49797,-2.822884 9.44485,-3.328169 2.3338,-0.298776 6.91189,0.170098 9.107537,0.932764 5.06789,1.760343 8.80399,4.37812 12.23323,8.571471 1.43279,1.752046 2.72112,3.76565 2.72112,4.253004 0,0.17596 0.09172,0.376484 0.20383,0.445614 0.1121,0.06913 0.35895,0.579899 0.54854,1.135051 0.18956,0.55515 0.25564,1.009366 0.14676,1.009366 z M 53.911407,86.62248 c -0.11989,0.1851 -0.21799,0.235579 -0.21799,0.11218 0,-0.123399 0.09809,-0.375806 0.21799,-0.560904 0.11989,-0.185101 0.21799,-0.23558 0.21799,-0.112181 0,0.123399 -0.0981,0.375806 -0.21799,0.560905 z m -1.533925,-9.625862 -0.746883,-0.386306 1.048819,-1.163865 c 0.576849,-0.640127 1.128379,-1.163866 1.225579,-1.163866 0.09721,0 0.30052,0.298116 0.45179,0.662482 0.23928,0.57635 0.21496,0.746672 -0.18709,1.310008 -0.77968,1.092442 -0.9653,1.169246 -1.792215,0.741547 z M 86.293734,55.320516 c 0,7.220761 -0.0253,13.122824 -0.0562,13.115724 -0.03092,-0.0071 -0.76458,-0.205648 -1.63036,-0.441187 -2.57004,-0.699195 -5.805477,-1.007169 -10.084687,-0.959939 -3.30429,0.03647 -4.11339,0.109919 -4.58145,0.415906 -0.31266,0.204388 -0.50662,0.271841 -0.43112,0.149898 0.07554,-0.121942 0.60255,-3.237022 1.17113,-6.922398 0.56858,-3.685376 1.17727,-7.609347 1.35265,-8.719938 0.17538,-1.11059 0.47696,-3.028884 0.67019,-4.262874 0.19322,-1.23399 0.47124,-2.950357 0.61781,-3.81415 l 0.26649,-1.570533 6.35278,-0.05958 6.352787,-0.05959 v 13.128661 z m 33.225656,7.003711 c -1.28875,-0.508085 -0.48451,-1.421637 1.09201,-1.24042 0.62672,0.07204 1.32305,0.948416 1.07356,1.351163 -0.15433,0.249138 -1.41644,0.184596 -2.16557,-0.110743 z M 72.956617,42.707928 c 0.0573,0.218297 0.0536,0.521186 -0.008,0.673085 -0.06157,0.1519 -0.10867,-0.0267 -0.10367,-0.396902 0.0046,-0.370193 0.055,-0.49448 0.112,-0.276183 z"
       id="path117"
       sodipodi:nodetypes="cssscccsssscssssssssssssssssscscsscssssscscscccscsscsccscccccccssssscssssssscsscscsssscssscccsssssssssssssssssssssssssscssscsssssssssscssssssssssssccsssssscccccccccssssssccccccccccssscsscssssssssssssssssssssscsssssssssssssssscssscccccccssssccccsssssssssssscsssccsssssssssssscscsssscsssscsscssscccsssssssssccssccsssssssssssssssssscssssscscscsssssscsssssssssscsssssssssssssssssssscsscssssssssssssssssssssssssssssscscssssssscssssssssssssssssssscssscscscccsscsssscssssccsssscsssscccsccsssssccccsssscsscssssssssssssssssccccsscccscssssscsccsscssscccssscssssscsscscssssscscccsssscsssssssssscssssssssssccsssssscssssssssssssssssscsssccsssssssccsssssssccccssssssssssscscscccscssssscssscsssssccsscsssscccscssscccscsscccccssssscsssssssssssscsssscssssssssssssssscssssssscssssscsssscsssscccccssssccccc" />
    <path
       style="fill:#2b0000;stroke-width:1.32529"
       d="m 272.65508,449.2133 c 10.68633,1.91432 28.53769,0.54698 39.879,-3.05456 43.99878,-13.97222 71.45042,-58.67811 61.90168,-100.80896 -1.16707,-5.14937 -1.11785,-6.7419 0.23492,-7.60012 0.94125,-0.59715 10.35887,-1.10401 20.92805,-1.12631 10.56918,-0.0223 19.84862,-0.47874 20.62097,-1.01426 0.94937,-0.65826 1.12994,-7.62809 0.5574,-21.51565 l -0.84687,-20.54198 -0.22608,20.06886 c -0.19083,16.93988 -0.55293,20.19429 -2.32241,20.8733 -3.11492,1.19531 -25.99663,0.97508 -25.24384,-0.24297 0.35604,-0.57607 -1.69611,-1.14085 -4.56029,-1.25507 -2.8642,-0.11421 -5.20763,0.35712 -5.20763,1.04741 0,0.69029 -1.22796,1.25507 -2.7288,1.25507 -1.50084,0 -2.36021,-0.59638 -1.90971,-1.32529 0.45049,-0.72891 -0.10065,-1.32529 -1.22476,-1.32529 -1.12409,0 -3.48376,-2.84159 -5.24369,-6.31464 -7.91643,-15.62231 -21.45519,-29.33405 -37.92873,-38.41331 -8.91718,-4.91464 -17.06928,-7.53598 -31.85192,-10.24213 -10.30348,-1.88615 -12.30841,-1.88145 -22.52991,0.0529 -22.87707,4.32932 -38.63342,12.71011 -53.47567,28.44368 -7.93148,8.40778 -19.57146,26.73996 -20.1334,31.70875 -0.12776,1.12963 -0.89837,5.93034 -1.71248,10.66825 -3.94629,22.96643 1.17759,44.95995 14.93471,64.10513 6.95009,9.67213 12.03735,14.61606 22.51263,21.87834 8.75427,6.06913 25.05184,12.79346 35.57683,14.67888 z M 256.3479,392.52512 c -18.46539,-20.9778 -11.51983,-53.95075 14.01103,-66.51511 5.63001,-2.77066 8.51968,-3.26103 19.21669,-3.26103 10.69701,0 13.58669,0.49037 19.21669,3.26103 25.26376,12.43292 32.40928,45.08467 14.45631,66.05867 -5.18812,6.06115 -13.86679,11.69809 -20.68979,13.43835 -18.20427,4.64316 -34.80073,-0.0192 -46.21093,-12.98191 z"
       id="path309"
       transform="scale(0.26458333)"
       sodipodi:nodetypes="ssssssscssssssssssssssssssssssssss" />
    <path
       style="fill:#808080;stroke-width:0.00826823"
       d="m 87.2327,107.48634 0.257247,-1.13627 1.04264,-0.44433 h 0.43461 v 0 c 0,0 0.236878,0.17809 0.417559,0.51974 0.125166,0.23668 0.235527,0.56402 0.171328,0.91486 l -0.561266,0.37418 -0.809006,0.44434 z"
       id="path4304-4-9-4"
       sodipodi:nodetypes="cccccscccc"
       inkscape:transform-center-x="0.13229167"
       inkscape:transform-center-y="-0.16536459" />
    <path
       style="fill:#808080;stroke-width:0.00826823"
       d="m 71.143075,112.72482 0.257247,-1.13627 1.04264,-0.44433 h 0.43461 v 0 c 0,0 0.236878,0.17809 0.417559,0.51974 0.125166,0.23668 0.235527,0.56402 0.171328,0.91487 l -0.561266,0.37418 -0.809006,0.44433 z"
       id="path4304-4-9-2"
       sodipodi:nodetypes="cccccscccc"
       inkscape:transform-center-x="0.13229167"
       inkscape:transform-center-y="-0.16536459" />
    <path
       style="fill:#808080;stroke-width:0.00826823"
       d="m 58.233956,102.80913 0.257247,-1.13628 1.04264,-0.44433 h 0.43461 v 0 c 0,0 0.236878,0.17809 0.417559,0.51975 0.125166,0.23668 0.235527,0.56401 0.171328,0.91486 l -0.561266,0.37418 -0.809006,0.44433 z"
       id="path4304-4-9-9"
       sodipodi:nodetypes="cccccscccc"
       inkscape:transform-center-x="0.13229167"
       inkscape:transform-center-y="-0.16536459" />
    <path
       style="fill:#808080;stroke-width:0.00826823"
       d="m 60.198387,87.748488 0.257248,-1.136273 1.04264,-0.444331 h 0.43461 v 0 c 0,0 0.236878,0.178089 0.417559,0.519743 0.125166,0.23668 0.235527,0.564018 0.171328,0.914864 l -0.561266,0.374178 -0.809006,0.444336 z"
       id="path4304-4-9-24"
       sodipodi:nodetypes="cccccscccc"
       inkscape:transform-center-x="0.13229167"
       inkscape:transform-center-y="-0.16536459" />
    <path
       style="fill:#808080;stroke-width:0.00826823"
       d="m 92.284094,94.764313 0.257247,-1.136273 1.04264,-0.444331 h 0.43461 v 0 c 0,0 0.236878,0.178089 0.417559,0.519743 0.125166,0.23668 0.235527,0.564018 0.171328,0.914864 l -0.561266,0.374178 -0.809006,0.444336 z"
       id="path4304-4-9-55"
       sodipodi:nodetypes="cccccscccc"
       inkscape:transform-center-x="0.13229167"
       inkscape:transform-center-y="-0.16536459" />
    <path
       style="fill:#d40000;stroke-width:1.32529"
       d="m 564.24612,412.4577 c 5.14735,-10.38779 5.58548,-12.09073 5.49578,-21.36237 -0.11711,-12.10901 -3.4939,-21.89746 -12.02223,-34.84941 -13.34347,-20.26469 -39.90131,-31.28506 -62.19065,-25.80646 -5.0314,1.23669 -12.42228,3.87947 -16.42418,5.87283 -9.42252,4.69342 -22.3197,17.63067 -26.41391,26.49597 -2.29201,4.96297 -3.99545,6.99125 -5.9638,7.10107 -2.23734,0.12484 -2.31931,0.26769 -0.43598,0.75985 1.95412,0.51065 2.16282,1.47781 1.32529,6.14138 -0.54675,3.04441 -0.9878,10.92739 -0.9808,17.51774 0.012,10.85596 0.42318,12.81506 4.37323,20.83876 2.39797,4.87096 7.29736,12.0703 10.88754,15.99853 7.15808,7.83208 21.41246,16.18423 30.77083,18.02972 29.94901,5.90602 57.43964,-8.20345 71.57888,-36.73761 z M 482.4663,402.16684 c -5.15201,-10.85705 0.32405,-26.07564 11.46932,-31.87452 4.912,-2.55571 18.78754,-2.37847 24.45817,0.31243 7.82788,3.71457 11.57718,10.05306 12.17186,20.57752 0.45799,8.10515 0.1271,9.71635 -2.95051,14.36692 -1.90649,2.8809 -5.7161,6.38574 -8.4658,7.78854 -14.38858,7.3405 -30.1809,2.53135 -36.68304,-11.17089 z"
       id="path348"
       transform="scale(0.26458333)"
       sodipodi:nodetypes="ssssssssscsssssssssss" />
    <path
       style="fill:#d40000;stroke-width:1.32529"
       d="m 380.12016,367.10472 33.25109,-0.003 33.2511,-0.003 3.79532,-7.26358 c 8.51232,-16.29115 27.91067,-29.85879 46.89109,-32.79669 9.02686,-1.39723 22.57191,-0.36889 32.02006,2.43095 2.13785,0.63353 2.89846,0.47472 2.30734,-0.48173 -1.45638,-2.35647 -13.46369,-4.29189 -26.62673,-4.29189 -26.50781,0 -43.72427,10.15256 -55.35208,32.64119 -4.68577,9.06245 -7.10894,10.28164 -12.67978,6.37968 -7.23061,-5.06452 -1.3539,-20.58048 13.49088,-35.61922 16.3705,-16.58439 32.74543,-22.52377 59.97832,-21.75486 19.055,0.53801 17.99795,1.78737 13.02035,-15.3893 -4.32245,-14.91592 -7.82886,-21.71606 -11.5904,-22.47784 -1.63118,-0.33034 -11.9863,-0.9467 -23.01138,-1.36968 l -20.04559,-0.76906 0.67506,11.83949 0.67506,11.83949 -5.14732,1.4292 c -6.97746,1.93735 -11.65204,1.80727 -17.11747,-0.47633 l -4.59595,-1.92031 v -10.66994 -10.66994 h -12.11974 -12.11974 l 0.68514,35.7828 0.68514,35.7828 -20.04101,0.0203 c -11.02256,0.0112 -20.80347,0.50414 -21.73537,1.09551 -1.36321,0.86507 -1.38644,3.58088 -0.11888,13.89524 z"
       id="path424"
       transform="scale(0.26458333)"
       sodipodi:nodetypes="cccsssssssssssscccsscccccccsssc" />
    <path
       style="fill:#d40000;stroke-width:1.32529"
       d=""
       id="path463"
       transform="scale(0.26458333)" />
    <path
       style="fill:#d40000;stroke-width:1.32529"
       d="m 191.66867,338.61131 2.46569,-5.30116 c 1.35613,-2.91563 4.57864,-9.94163 7.16112,-15.61333 7.23942,-15.89938 15.17061,-25.22639 29.20227,-34.34163 6.61656,-4.29826 15.6084,-9.53232 19.98185,-11.63127 22.29755,-10.70123 53.91525,-10.18632 78.54933,1.2792 19.63979,9.14102 39.22402,29.12144 48.39437,49.3734 2.56307,5.66034 4.14627,7.62041 6.15517,7.62041 h 2.70457 l -2.6074,-6.615 c -5.54049,-14.05633 -21.35194,-35.26127 -32.41058,-43.46623 -9.76471,-7.24494 -26.46937,-15.41054 -37.0856,-18.12824 -11.56711,-2.96112 -34.2596,-4.0293 -43.82053,-2.06272 -12.41869,2.5544 -29.24091,8.76582 -37.76666,13.94494 -11.49317,6.98173 -26.5058,21.66749 -34.14451,33.40107 -6.86039,10.53804 -7.76359,13.98979 -7.03928,26.90205 z"
       id="path502"
       transform="scale(0.26458333)"
       sodipodi:nodetypes="cssssssscsssssssc" />
    <path
       style="fill:#d40000;stroke-width:1.32529"
       d=""
       id="path541"
       transform="scale(0.26458333)" />
    <path
       style="fill:#d40000;stroke-width:1.32529"
       d=""
       id="path580"
       transform="scale(0.26458333)" />
    <path
       style="fill:#d40000;stroke-width:1.32529"
       d=""
       id="path619"
       transform="scale(0.26458333)" />
    <path
       style="fill:#d40000;stroke-width:1.32529"
       d=""
       id="path658"
       transform="scale(0.26458333)" />
    <path
       style="fill:#d40000;stroke-width:1.32529"
       d=""
       id="path697"
       transform="scale(0.26458333)" />
    <path
       style="fill:#d40000;stroke-width:1.32529"
       d="m 578.28354,357.73248 c 0.99815,-6.70837 -2.73521,-13.07019 -14.03789,-23.92121 -17.06916,-16.38707 -30.47774,-21.25419 -58.64794,-21.28819 -13.74039,-0.0166 -26.49349,3.12453 -36.55602,9.00386 -7.15082,4.17808 -21.95852,19.62543 -25.53679,26.63992 -4.5218,8.86406 -3.26757,11.13146 1.47664,2.66949 9.15996,-16.33807 25.60193,-28.12472 44.05006,-31.5779 11.52511,-2.1573 35.25487,-0.76018 44.86248,2.64135 15.25755,5.40186 27.81272,15.26176 37.46628,29.42323 5.4767,8.03415 6.53558,9.01445 6.92318,6.40945 z"
       id="path736"
       transform="scale(0.26458333)"
       sodipodi:nodetypes="ssssssssss" />
    <path
       style="fill:#d40000;stroke-width:1.32529"
       d="m 327.93098,153.71322 c 28.1059,-0.0112 51.89929,-0.52589 52.8742,-1.14385 0.97491,-0.61795 1.57129,-2.54705 1.32529,-4.28689 l -0.44727,-3.16335 h -54.3187 c -52.64617,0 -54.33389,0.0789 -54.81227,2.56298 -0.27148,1.40964 0.57982,3.34788 1.89176,4.30719 1.87571,1.37156 13.30327,1.73992 53.48699,1.72392 z"
       id="path775"
       transform="scale(0.26458333)"
       sodipodi:nodetypes="ssscssss" />
    <path
       style="fill:#d40000;stroke-width:1.32529"
       d="m 330.12089,197.12321 c 0.91329,-0.91329 0.75216,-36.99154 -0.16932,-37.91303 -0.33951,-0.3395 -0.61728,8.22903 -0.61728,19.04117 0,10.81215 0.35397,19.30449 0.7866,18.87186 z"
       id="path814"
       transform="scale(0.26458333)"
       sodipodi:nodetypes="ssss" />
    <path
       style="fill:#d40000;stroke-width:1.32529"
       d="m 327.48441,162.6516 c 0.44038,-0.44038 0.48746,-1.58344 0.10462,-2.54014 -0.42306,-1.05722 -0.73709,-0.74319 -0.80069,0.8007 -0.0575,1.39707 0.25568,2.17982 0.69607,1.73944 z"
       id="path853"
       transform="scale(0.26458333)"
       sodipodi:nodetypes="ssss" />
    <path
       style="fill:#d40000;stroke-width:0.23428"
       d="m 575.84524,364.21938 c 0.83256,0.3747 2.93616,0.22376 3.91166,-0.2807 0.88056,-0.45537 1.71273,-1.5227 2.59741,-3.33144 1.18579,-2.42437 1.09355,-3.79602 -0.59614,-8.86503 -2.73476,-8.20409 -5.75493,-12.99243 -12.03053,-19.07394 -3.35381,-3.25006 -6.27688,-5.71239 -11.08637,-9.33893 -4.64154,-3.49989 -6.68877,-4.76471 -11.59687,-7.16474 -4.79283,-2.34367 -8.54284,-3.83528 -12.32346,-4.90178 -1.54869,-0.43688 -3.01826,-0.97754 -3.26568,-1.20147 -0.49897,-0.45156 -0.54962,-0.70087 -0.92548,-4.55575 -0.95434,-9.78795 -5.60002,-26.58202 -9.64349,-34.86107 -2.34212,-4.79551 -3.89978,-5.9446 -8.95606,-6.60689 -2.54093,-0.33282 -11.35383,-0.65455 -22.51876,-0.8221 -13.83028,-0.20754 -22.99057,-0.65748 -23.4867,-1.15361 -0.16957,-0.16957 -0.53885,-4.51004 -0.98829,-11.61628 -0.96376,-15.23775 -1.22561,-16.80661 -3.00218,-17.9862 -0.81455,-0.54083 -0.61899,0.0372 0.41781,1.23517 1.03932,1.20084 1.14188,1.7699 0.50668,2.81147 -0.96781,1.58699 -5.07491,2.95538 -7.39789,2.46481 -2.8838,-0.60901 -6.28625,-2.28409 -7.09958,-3.49525 -0.76191,-1.1344 -0.7629,-3.5988 -0.002,-4.72788 1.193,-1.77029 3.00085,-2.43565 6.14428,-2.26132 1.91308,0.1061 3.21456,0.44523 5.54794,1.44568 0.91388,0.39183 0.9699,-0.71916 1.0675,-21.18835 l 0.0933,-19.5624 1.54836,-2.9285 c 2.31117,-4.37122 3.86501,-7.02504 6.21606,-10.61638 l 2.11881,-3.23654 -1.73616,-1.75809 c -2.01017,-2.03559 -4.30558,-3.83957 -4.86356,-3.82227 -0.23468,0.007 -2.37914,2.84002 -5.45367,7.20412 l -5.06692,7.19214 -1.9058,22.60803 c -1.04817,12.43443 -1.90491,22.72691 -1.90291,22.8722 0.002,0.14529 -1.10412,1.23882 -2.45709,2.43007 l -2.45994,2.1659 v 15.93035 15.93035 l -7.67268,-0.14339 c -4.21997,-0.0789 -11.21122,-0.20863 -15.53608,-0.28843 l -7.86341,-0.14504 -1.2276,-4.01517 c -1.14819,-3.75542 -4.25864,-13.62274 -15.2606,-48.41127 -9.35616,-29.58445 -13.59367,-43.56226 -13.92077,-45.91892 -0.0805,-0.57984 -0.51267,-1.89658 -0.96042,-2.92609 -1.27945,-2.94185 -1.2179,-3.16886 1.83094,-6.75234 4.32135,-5.07915 4.39852,-7.52642 0.34408,-10.91186 -3.20248,-2.67404 -5.57287,-3.5285 -9.80685,-3.5365 -2.8096,-0.005 -3.62179,-0.26339 -3.93905,-1.25278 -0.58648,-1.82893 -0.77421,-4.31634 -0.89154,-11.81241 l -0.12559,-8.02409 h -7.58415 -7.58415 v 10.57148 10.57148 l -41.76045,-0.17046 -41.76044,-0.17047 -1.87424,2.15614 c -1.03083,1.18588 -2.05432,2.48835 -2.27441,2.89438 -0.47026,0.86755 -0.54296,3.0488 -0.16282,4.88519 0.79364,3.83383 4.10844,7.91849 6.42606,7.91849 0.70644,0 1.41736,0.32999 2.15231,0.99905 0.49454,0.45017 0.54646,0.45353 1.12723,0.073 1.18266,-0.77516 5.57683,-0.89478 28.52549,-0.77816 12.08423,0.0614 22.01051,0.15222 22.05841,0.20172 0.0479,0.0495 0.14637,17.6435 0.21877,39.09771 0.12254,36.30042 -0.0621,61.85194 -0.45433,62.8656 -0.21232,0.54871 -0.21896,0.54748 -8.06645,-1.49568 -7.1592,-1.86395 -9.61964,-2.33131 -12.27327,-2.33131 -2.03605,0 -7.14942,-0.55258 -8.69481,-0.93961 -7.13073,-1.78582 -22.08354,-1.40083 -32.56494,0.83845 -1.54625,0.33035 -3.31214,0.65982 -3.9242,0.73212 -1.27756,0.15096 -1.32964,0.0425 -0.7577,-1.57859 0.79936,-2.26563 1.29069,-5.21642 5.96673,-35.83436 1.66286,-10.88817 3.92072,-25.48969 5.01745,-32.44781 2.90922,-18.45732 3.31813,-21.51944 2.73746,-20.49952 -0.431,0.75705 -1.27581,4.86421 -2.47878,12.05093 -0.69153,4.13131 -1.62754,9.46185 -2.08003,11.84565 -1.01532,5.34893 -4.59158,26.74822 -8.33959,49.90168 -1.55396,9.59964 -2.87233,17.66648 -2.92973,17.92632 -0.0855,0.38688 -0.47728,0.54903 -2.16357,0.89536 -4.63284,0.9515 -10.95334,3.36758 -17.87494,6.83291 -9.15304,4.58251 -16.42036,9.28735 -22.95765,14.86272 -1.22411,1.04399 -2.8873,2.22784 -3.69597,2.63077 l -1.47031,0.73261 -0.57725,-0.54229 c -0.71697,-0.67356 -1.3066,-2.22769 -2.22431,-5.86274 -0.39203,-1.55284 -0.88343,-3.24984 -1.092,-3.7711 l -0.37921,-0.94775 -2.91132,2.89114 c -3.30902,3.2861 -9.72554,10.12784 -12.24944,13.0612 -2.02261,2.35074 -2.23192,2.08054 2.69462,3.4785 5.64649,1.60227 5.67233,1.59367 1.56894,-0.52179 -2.02158,-1.0422 -2.75858,-1.54035 -2.80988,-1.89922 -0.0937,-0.65581 1.43949,-2.68638 4.40895,-5.8391 3.73365,-3.96407 6.00905,-5.97414 6.76273,-5.97414 1.76902,0 4.24012,5.00849 3.95176,8.00953 -0.14999,1.56096 -1.22084,3.07787 -4.32855,6.13162 -2.03153,1.99626 -2.81413,2.95972 -3.70537,4.56171 -0.62143,1.11701 -2.39338,4.03403 -3.93765,6.48226 -6.31822,10.01665 -7.77112,12.81339 -8.48744,16.33774 -0.46974,2.31105 -0.69464,11.44255 -0.37264,15.12786 0.33535,3.83808 0.69682,4.51768 3.04514,5.72519 0.94098,0.48385 2.00176,0.87974 2.35729,0.87974 0.78592,0 2.48817,-1.09559 3.90748,-2.5149 1.43197,-1.43197 2.76698,-4.28824 4.78551,-10.23861 2.52152,-7.43315 4.55846,-11.88621 8.15919,-17.83722 5.35588,-8.85179 12.73195,-17.15166 19.06408,-21.45173 0.80878,-0.54923 3.12676,-1.91958 5.15107,-3.04522 2.0243,-1.12565 6.03158,-3.51278 8.90505,-5.30474 10.60396,-6.61285 14.86584,-8.47722 24.55262,-10.7406 8.85371,-2.06873 10.04033,-2.23389 17.02696,-2.36995 16.04717,-0.31249 29.69622,2.41885 41.93644,8.39199 1.82703,0.89157 3.53145,1.62105 3.7876,1.62105 2.29369,0 16.07709,10.22413 23.99772,17.80083 6.64749,6.35884 12.97155,14.94401 17.43356,23.66676 2.14999,4.20299 4.99228,10.64864 4.99228,11.32131 0,0.77814 -0.83933,1.5641 -1.67031,1.5641 -0.69802,0 -1.07213,0.33871 -0.65732,0.59507 0.1443,0.0892 0.1934,0.41275 0.1118,0.73772 -0.12997,0.51786 -0.0888,0.5614 0.39101,0.41333 1.00709,-0.31082 1.82482,-0.82067 1.82482,-1.13775 0,-0.1742 0.15371,-0.44428 0.34157,-0.60019 0.27639,-0.22938 0.4552,-0.16983 0.93712,0.31208 0.32756,0.32756 0.60783,0.83756 0.62273,1.13334 0.0172,0.34135 0.064,0.39995 0.12803,0.16043 0.16486,-0.61681 1.23892,-0.95819 3.47614,-1.10487 l 2.10852,-0.13823 -1.54608,-0.16269 c -3.4087,-0.35869 -4.54428,-1.55065 -7.00596,-7.35379 -4.53742,-10.69646 -11.75296,-21.02572 -21.43911,-30.6907 -8.32367,-8.30548 -16.81222,-14.45863 -25.37128,-18.39105 -8.30898,-3.81751 -18.17792,-7.11364 -23.82427,-7.95706 -6.18112,-0.92331 -18.46943,-1.77082 -22.65037,-1.56216 -4.12507,0.20587 -6.00041,0.49812 -10.80751,1.68425 -2.29506,0.56629 -5.45785,1.29625 -7.0284,1.62211 -1.57056,0.32587 -3.96253,0.97977 -5.3155,1.4531 -3.5505,1.24215 -10.57457,4.87208 -16.51675,8.53561 -2.83479,1.74773 -7.0307,4.22246 -9.32424,5.49938 -5.38366,2.99736 -8.43598,5.27138 -12.36048,9.20875 -3.78383,3.79623 -6.30146,6.91578 -10.04055,12.44106 -5.14192,7.59823 -6.93604,11.13759 -9.87716,19.48519 -3.42585,9.72336 -4.32742,11.49548 -6.78962,13.34554 -1.79013,1.34508 -2.62965,1.27843 -4.28777,-0.34042 -0.79636,-0.77749 -1.38331,-1.59239 -1.56092,-2.16709 -0.67977,-2.19955 -0.49943,-14.58748 0.27403,-18.82394 0.75968,-4.16102 8.19868,-15.66793 16.72558,-25.87173 13.63464,-16.31603 34.51091,-28.91188 57.13341,-34.47186 6.85977,-1.68595 12.18058,-2.48195 19.70107,-2.94733 9.46879,-0.58595 21.90635,0.85354 34.72772,4.01928 8.43811,2.08346 14.7629,4.55904 23.02234,9.01112 11.01265,5.93615 19.09384,12.33547 26.01979,20.60452 2.39608,2.86074 3.27197,4.03918 7.7489,10.42547 2.12274,3.02807 4.96284,7.03687 6.31135,8.90843 2.71617,3.76973 3.91322,5.91692 5.5005,9.86643 1.82748,4.54718 2.70845,7.91307 2.85268,10.89906 0.12447,2.57713 0.11759,2.62324 -0.48052,3.22135 -0.38332,0.38332 -0.89114,0.6186 -1.37886,0.6387 -0.62579,0.0259 -0.6611,0.0505 -0.18636,0.1302 1.26741,0.2127 2.1242,0.60083 2.37955,1.07795 l 0.26742,0.49969 0.2086,-0.5639 c 0.11473,-0.31014 0.26794,-1.51863 0.34054,-2.68554 0.24861,-3.99752 -1.18803,-9.03553 -4.47983,-15.70989 -2.20338,-4.46753 -4.42786,-7.98517 -8.24922,-13.04476 -1.42866,-1.8916 -3.34115,-4.63268 -4.24997,-6.09129 -3.85807,-6.19202 -11.72213,-14.98059 -17.25452,-19.28299 -4.65106,-3.61702 -11.58084,-7.74874 -22.75326,-13.56612 l -1.66336,-0.8661 -0.27561,-8.7164 c -0.15159,-4.79402 -0.32504,-9.24353 -0.38544,-9.8878 -0.21495,-2.29289 -0.61888,-72.51736 -0.45716,-79.48061 l 0.16461,-7.08803 25.0801,0.0596 25.0801,0.0596 0.64879,1.99138 c 0.35684,1.09526 1.98415,6.15571 3.61626,11.24545 1.6321,5.08974 5.42495,16.84657 8.42856,26.12631 12.20182,37.69783 15.19592,47.35734 15.21242,49.07763 l 0.0123,1.28854 -0.86055,0.0716 c -0.98807,0.0822 -2.28034,-0.50931 -5.02116,-2.29853 -0.98588,-0.64359 -2.02622,-1.17017 -2.31185,-1.17017 -1.16705,0 -1.49472,0.93178 -2.22446,6.32556 -0.62074,4.58813 -0.91184,6.11277 -1.25641,6.58029 -0.67491,0.91573 -2.41494,1.25016 -2.6363,0.50669 -0.30894,-1.03762 -1.17729,-2.46775 -2.80944,-4.62704 -2.18818,-2.89489 -3.03562,-4.35617 -3.47584,-5.99352 l -0.34123,-1.26916 -0.0154,1.21081 c -0.008,0.66594 -0.0809,1.38147 -0.16095,1.59006 -0.24088,0.62773 -1.33493,1.03906 -3.76063,1.41389 -1.26624,0.19567 -3.37923,0.52578 -4.69553,0.73358 -2.49626,0.39409 -3.29939,0.3367 -3.91591,-0.27982 -0.54687,-0.54687 -0.44717,-0.87269 0.22755,-0.74371 0.50325,0.0962 0.64802,-0.0122 0.93574,-0.70082 0.39516,-0.94576 1.57818,-2.60731 3.35075,-4.70613 0.68847,-0.81518 1.20382,-1.53007 1.14512,-1.58877 -0.11733,-0.11734 -6.51784,6.96115 -7.64912,8.45935 -0.7686,1.01789 -0.93329,1.65456 -0.37233,1.43929 0.61499,-0.23599 5.48817,-0.84036 10.42399,-1.29279 3.92112,-0.35941 4.84182,-0.38417 5.03702,-0.13547 7.04298,8.97346 7.38692,9.49047 7.56814,11.37646 0.0985,1.02539 -0.24986,5.43332 -0.55467,7.01785 -0.10697,0.55612 0.6724,1.18204 10.64773,8.55123 l 10.76315,7.95118 0.11293,3.86562 c 0.0621,2.1261 0.3442,8.34624 0.62685,13.82254 0.53298,10.32605 0.77296,28.5889 0.40406,30.74866 -0.11388,0.66673 -0.3523,1.1991 -0.59525,1.32912 -0.86938,0.46528 -6.28596,0.74714 -18.42575,0.95881 -12.50704,0.21808 -19.96822,0.54113 -21.78806,0.94337 -0.74969,0.1657 -0.60912,0.1844 0.70284,0.0935 0.90198,-0.0625 6.68733,-0.212 12.85633,-0.33223 9.76532,-0.19033 28.23817,-0.88226 28.45127,-1.06569 0.0829,-0.0713 -0.33185,-45.0804 -0.55743,-60.49633 l -0.14485,-9.89833 h 13.70294 13.70292 l 0.13974,2.86993 c 0.0768,1.57846 0.21922,6.32921 0.31642,10.55722 l 0.17672,7.68729 3.49342,1.52034 c 1.9214,0.83619 4.15264,1.67323 4.95831,1.86008 1.65549,0.38393 3.04126,0.25527 7.94788,-0.73792 3.92246,-0.79398 5.21984,-1.20068 5.49997,-1.72412 0.33805,-0.63158 0.29795,-5.44186 -0.0952,-11.42609 -0.51797,-7.88369 -0.61705,-10.69499 -0.38951,-11.05111 0.31651,-0.49534 12.66392,-0.7673 27.43259,-0.60422 12.75993,0.1409 16.84386,0.34426 18.47571,0.92002 1.54873,0.54642 3.67806,2.13627 4.92476,3.67706 3.58617,4.43207 7.17516,14.62885 10.44648,29.67975 1.47355,6.77956 1.59357,9.28514 0.47976,10.01495 -0.67084,0.43954 -3.80825,0.23573 -13.47577,-0.87541 -7.76529,-0.89251 -11.65451,-0.95095 -15.45807,-0.23227 -1.47941,0.27953 -3.74607,0.56805 -5.03702,0.64125 -3.98527,0.22584 -7.13592,0.9073 -13.10969,2.83554 -5.14409,1.66044 -9.805,3.61519 -12.37189,5.18869 -0.86932,0.53289 -2.45071,1.40311 -3.5142,1.93382 -1.06349,0.53072 -2.67162,1.51908 -3.5736,2.19636 -5.73124,4.30349 -16.0566,15.27401 -20.24787,21.51304 -1.62497,2.41888 -3.82994,7.04366 -4.60267,9.65376 -0.85852,2.89988 -0.90364,6.00768 -0.11318,7.79865 0.88677,2.00921 3.18483,3.64777 5.86883,4.18458 0.73337,0.14668 1.06003,-0.38685 2.81861,-4.6034 3.49693,-8.3847 6.32432,-12.54772 13.58206,-19.99811 7.10256,-7.29108 11.09767,-9.91261 20.49952,-13.45148 4.96688,-1.86954 6.59731,-2.35531 9.2495,-2.75578 4.88767,-0.73803 28.64448,-0.6388 33.97519,0.1419 2.21494,0.32439 7.13475,1.59725 10.19119,2.63668 9.96527,3.38899 18.85981,8.83536 25.89429,15.85578 3.90215,3.89435 4.70898,4.96046 10.19484,13.47111 4.97257,7.71433 5.53534,8.48375 6.53424,8.93334 z m 1.45247,-0.38225 c -0.86927,0 -1.22929,-0.14049 -1.92468,-0.75105 -1.23827,-1.0872 -6.69596,-9.43411 -8.48193,-12.97204 -0.85486,-1.69348 -3.52278,-4.72894 -7.80912,-8.88494 -7.23731,-7.01723 -13.99334,-11.44451 -22.81463,-14.95065 -7.93158,-3.15251 -15.95005,-4.73703 -26.98542,-5.33255 -16.08741,-0.86815 -30.26361,2.41481 -41.2969,9.56362 -9.90637,6.41867 -18.59364,16.91203 -23.21494,28.04136 -0.42463,1.02261 -1.1353,2.26137 -1.57926,2.7528 -0.69335,0.76745 -0.94719,0.89349 -1.79957,0.89349 -1.27135,0 -2.43328,-0.75906 -3.05303,-1.99447 -0.40042,-0.79817 -0.46772,-1.39404 -0.46272,-4.09681 0.005,-2.87738 0.0662,-3.33191 0.67526,-5.03703 1.58505,-4.4377 4.57456,-9.38117 8.51229,-14.07598 2.61206,-3.11428 10.97746,-11.42689 14.28622,-14.19607 1.18185,-0.98912 2.65526,-2.08599 3.27428,-2.43749 0.61899,-0.35151 2.13551,-1.25388 3.37003,-2.00527 1.23449,-0.75139 3.13384,-1.7829 4.22076,-2.29225 2.6942,-1.26255 8.71818,-3.28127 13.2296,-4.43343 11.35073,-2.89884 19.02209,-3.37058 31.49529,-1.93677 14.4802,1.66453 19.41473,2.60445 25.51107,4.85935 6.69067,2.47472 12.69621,6.16316 19.6008,12.0383 3.67082,3.12351 12.9724,12.49368 14.15535,14.2597 1.40825,2.10241 2.77188,5.11957 4.43281,9.80793 1.95139,5.50828 2.17979,7.48996 1.1431,9.91736 -0.48627,1.13865 -1.65781,2.42886 -2.62,2.88545 -0.43747,0.20759 -1.27657,0.37744 -1.86466,0.37744 z m -112.19577,-75.8653 c -0.63162,0.34846 -11.01384,0.5149 -12.47298,0.19995 -2.20402,-0.47572 -4.1496,-1.77041 -5.06746,-3.37215 -0.53855,-0.93988 -0.55765,-1.15215 -0.63335,-7.0603 -0.0952,-7.42917 0.0268,-8.88605 0.80468,-9.60698 0.49651,-0.46016 0.52209,-0.55992 0.20987,-0.81902 -0.81675,-0.67785 -1.51245,-5.34193 -1.11818,-7.49643 0.14685,-0.80236 0.30686,-1.07077 0.66974,-1.12327 0.26223,-0.0379 1.84109,0.42481 3.50858,1.02835 3.77491,1.36633 5.25903,1.44618 8.3031,0.44676 1.09526,-0.3596 1.8485,-0.70375 1.67386,-0.76485 -0.17463,-0.0611 -1.4102,0.13149 -2.74574,0.42793 -3.06759,0.68089 -3.99447,0.53548 -8.3999,-1.31784 -3.67602,-1.54644 -3.39615,-1.02134 -2.80961,-5.27182 0.20336,-1.47363 0.44053,-5.43058 0.52713,-8.79323 0.11977,-4.6527 0.23424,-6.20648 0.47892,-6.50128 0.46383,-0.55877 1.50799,-0.47729 2.89582,0.22598 1.75797,0.89083 4.19877,1.24372 8.67237,1.25272 l 3.9242,0.008 -10e-4,2.98708 c -0.002,4.73422 -0.18848,5.04173 -3.78847,6.24939 -2.34449,0.78649 -3.04817,0.76325 -6.5129,-0.21509 -1.59406,-0.45011 -2.94318,-0.77349 -2.99808,-0.71859 -0.21149,0.21149 2.41845,1.35496 4.12774,1.79469 1.98498,0.51066 2.41064,0.48228 5.93555,-0.39564 2.70397,-0.67346 3.16579,-0.69493 3.33238,-0.15492 0.16524,0.53555 0.76771,4.47268 0.9591,6.26753 0.18096,1.6972 -0.12785,2.69369 -0.83474,2.69369 -0.48393,0 -0.48191,0.0157 0.0894,0.69471 0.80738,0.95944 0.94272,2.091 0.74778,6.25016 l -0.16838,3.59277 -2.25968,0.69622 c -5.44929,1.67897 -6.00654,1.70661 -9.40473,0.46642 -2.16091,-0.78863 -3.12966,-0.84525 -2.0385,-0.11913 1.09076,0.72585 3.64048,1.31704 5.78649,1.34174 1.54681,0.0178 2.42557,-0.1146 3.93628,-0.59299 1.0697,-0.33874 2.46416,-0.61589 3.09883,-0.61589 1.58738,0 1.92756,0.54512 2.05927,3.3 0.13153,2.75098 -0.11236,4.58615 -0.68569,5.15947 -0.45104,0.45104 -0.44883,0.46381 0.22798,1.32785 0.9731,1.24227 1.30611,2.45917 1.29711,4.73805 -0.009,2.17479 -0.39391,3.27534 -1.32642,3.78979 z m -50.77921,-4.5515 c -1.17491,0.21563 -13.52502,-9.13172 -16.943,-12.82355 -1.48269,-1.60145 -1.69731,-2.27048 -1.49489,-4.65932 0.31289,-3.69258 2.78289,-17.61844 3.42302,-19.29899 0.46677,-1.22544 1.24719,-0.91496 5.32683,2.11922 2.04362,1.51992 4.11786,3.23309 4.60941,3.80705 1.11144,1.29777 1.90253,2.96902 3.32188,7.01771 0.60982,1.73953 1.41689,3.78742 1.79347,4.55086 0.59087,1.19787 0.71921,1.82388 0.93657,4.56846 0.34613,4.37064 0.17078,13.02291 -0.28281,13.95441 -0.18746,0.38499 -0.49818,0.72885 -0.69048,0.76415 z m 42.06152,-55.95419 c -0.99051,-0.0209 -3.10829,-0.47281 -3.57891,-0.76367 -0.84505,-0.52228 -0.94166,-3.40524 -0.40554,-12.10182 0.51912,-8.42024 1.96088,-29.44345 2.11492,-30.83847 0.11761,-1.06516 0.49454,-1.73207 3.31031,-5.85701 3.63047,-5.31845 6.40859,-8.88558 7.08812,-9.10125 0.59212,-0.18794 1.30096,0.17647 2.43656,1.25263 1.21894,1.1551 1.63057,1.99487 1.43033,2.9179 -0.32148,1.482 -3.70027,7.71456 -6.07552,11.20702 -1.7683,2.60005 -1.92988,3.78037 -2.5768,18.82231 -0.61447,14.28792 -1.07295,21.08047 -1.54522,22.89232 -0.1247,0.47848 -0.45804,1.03197 -0.74072,1.22997 -0.28268,0.19799 -0.93857,0.35107 -1.45753,0.34007 z M 277.62703,155.58928 c -2.44084,-0.20786 -3.28305,-0.37754 -4.26957,-0.86021 -2.25408,-1.10281 -4.09727,-3.94167 -4.14397,-6.38243 -0.0305,-1.59643 0.57431,-2.93294 2.13443,-4.7164 l 1.03913,-1.18788 h 54.75112 54.75111 l 1.54879,1.58139 c 1.909,1.94918 2.06998,2.25896 2.06998,3.98341 0,2.98856 -1.51386,5.77326 -3.75378,6.90494 -1.08282,0.54708 -1.75893,0.68603 -4.32888,0.88961 -7.24465,0.57388 -92.70075,0.39198 -99.79836,-0.21243 z m 89.71709,-15.98991 c -0.23598,0.23623 -7.92474,0.30751 -8.26607,0.0766 -0.41089,-0.27796 -0.73426,-3.76316 -0.73226,-7.89336 0.002,-3.31585 0.2988,-7.63907 0.57465,-8.35792 0.21485,-0.55989 1.68823,-1.08492 4.26743,-1.52067 4.13788,-0.69909 4.76213,-0.13373 4.92231,4.45795 0.0992,2.84523 -0.48592,12.9569 -0.76606,13.23737 z"
       id="path1114"
       transform="scale(0.26458333)"
       sodipodi:nodetypes="ssssssssssssssssssscsssscsscssscscscccsscsssssscsscccccccssssscssssssssssssssssssssscssscsssssssssssssssssssssssssssssssssssssscsssssssssssssssssssssssssssssssscssssssscssscccsssscsssssssscsssssssssssssssscsssssssssscccsscsssssssssssssssssssssssssssssssssssssssssssssssssssssssssssssssssssssssssssscccsssssssssscssssssssscsssssssssssssssssssssssssssssscccsssssssssssss" />
    <path
       style="fill:#2b0000;stroke-width:0.46856"
       d="m 517.87738,449.13969 c 16.78271,-3.31563 31.02816,-13.15466 41.32753,-28.54403 3.57125,-5.33618 8.79287,-16.30982 9.62098,-20.21921 1.2739,-6.01401 0.80885,-15.11363 -1.16493,-22.79412 -2.45997,-9.57233 -10.09608,-22.67707 -17.56744,-30.14844 -11.40906,-11.40906 -27.24599,-18.06411 -42.87691,-18.01781 -6.40235,0.0189 -10.54153,0.79178 -18.52052,3.45797 -10.47111,3.49894 -15.2212,6.42773 -23.58286,14.54062 -5.81958,5.64644 -9.57342,10.50382 -12.50698,16.18372 -2.1279,4.12002 -4.24571,6.56431 -5.68751,6.56431 -0.51751,0 -0.41694,0.24442 0.3591,0.87283 l 1.0779,0.87283 -0.66581,6.03843 c -0.3662,3.32115 -0.66822,10.57176 -0.67222,16.11249 -0.007,11.31262 0.1974,12.4314 3.57244,19.53526 2.60412,5.48121 8.71537,14.48019 12.31327,18.13162 8.47452,8.60061 22.2291,16.1079 32.21341,17.58217 1.88728,0.27868 3.95854,0.59779 4.60281,0.70915 2.48436,0.42939 14.47529,-0.15027 18.15774,-0.87779 z m -24.86255,-35.26337 c -3.85241,-2.05342 -8.30118,-6.78949 -10.42301,-11.09611 -1.66044,-3.37016 -1.83699,-4.09565 -2.00309,-8.23107 -0.28814,-7.17373 1.24412,-12.22088 5.36016,-17.65605 4.4633,-5.89373 8.79259,-8.07491 16.82248,-8.47551 10.32941,-0.51533 17.39448,1.53814 21.9133,6.36913 4.297,4.59385 5.9795,9.96357 6.1146,19.51484 0.0775,5.47754 0.0383,5.71472 -1.43988,8.71916 -1.72553,3.50717 -5.43178,7.60403 -8.82773,9.75809 -1.26713,0.80375 -3.9907,1.9979 -6.05236,2.65367 -7.39468,2.35208 -15.19294,1.78671 -21.46447,-1.55615 z"
       id="path1227"
       transform="scale(0.26458333)"
       sodipodi:nodetypes="ssssssssssscscssssssssssssssss" />
    <path
       style="fill:#808080;stroke-width:0.00826823"
       d="m 124.83752,94.857857 0.25725,-1.136273 1.04264,-0.444331 h 0.43461 v 0 c 0,0 0.23688,0.178089 0.41756,0.519743 0.12516,0.23668 0.23553,0.564018 0.17133,0.914864 l -0.56127,0.374178 -0.80901,0.444336 z"
       id="path4304-4-9-6"
       sodipodi:nodetypes="cccccscccc"
       inkscape:transform-center-x="0.13229167"
       inkscape:transform-center-y="-0.16536459" />
    <path
       style="fill:#808080;stroke-width:0.00826823"
       d="m 135.40803,93.641781 0.25725,-1.136273 1.04264,-0.444331 h 0.43461 v 0 c 0,0 0.23688,0.178089 0.41756,0.519743 0.12516,0.23668 0.23552,0.564018 0.17133,0.914864 l -0.56127,0.374178 -0.80901,0.444336 z"
       id="path4304-4-9-25"
       sodipodi:nodetypes="cccccscccc"
       inkscape:transform-center-x="0.13229167"
       inkscape:transform-center-y="-0.16536459" />
    <path
       style="fill:#808080;stroke-width:0.00826823"
       d="m 142.98512,103.08976 0.25725,-1.13627 1.04264,-0.44434 h 0.43461 v 0 c 0,0 0.23688,0.17809 0.41756,0.51975 0.12516,0.23668 0.23553,0.56402 0.17133,0.91486 l -0.56127,0.37418 -0.809,0.44434 z"
       id="path4304-4-9-1"
       sodipodi:nodetypes="cccccscccc"
       inkscape:transform-center-x="0.13229167"
       inkscape:transform-center-y="-0.16536459" />
    <path
       style="fill:#808080;stroke-width:0.00826823"
       d="m 136.62411,115.25052 0.25725,-1.13627 1.04264,-0.44433 h 0.43461 v 0 c 0,0 0.23687,0.17809 0.41756,0.51974 0.12516,0.23668 0.23552,0.56402 0.17132,0.91486 l -0.56126,0.37418 -0.80901,0.44434 z"
       id="path4304-4-9-3"
       sodipodi:nodetypes="cccccscccc"
       inkscape:transform-center-x="0.13229167"
       inkscape:transform-center-y="-0.16536459" />
    <path
       style="fill:#808080;stroke-width:0.00826823"
       d="m 122.87309,108.70242 0.25725,-1.13627 1.04264,-0.44434 h 0.43461 v 0 c 0,0 0.23688,0.17809 0.41756,0.51975 0.12516,0.23668 0.23552,0.56402 0.17133,0.91486 l -0.56127,0.37418 -0.80901,0.44434 z"
       id="path4304-4-9-97"
       sodipodi:nodetypes="cccccscccc"
       inkscape:transform-center-x="0.13229167"
       inkscape:transform-center-y="-0.16536459" />
    <path
       style="fill:#808080;stroke-width:0.175325"
       d="m 126.32071,44.015517 -2.88601,-2.568354 c 5.29916,0.433446 1.2456,-1.639172 6.51688,-0.829557 l 1.66162,0.775825 c -1.08169,2.083471 2.64674,2.185521 -1.36203,2.064564 l -3.30568,1.625692"
       id="path3290"
       sodipodi:nodetypes="cccccc" />
    <path
       style="fill:#808080;stroke-width:0.175325"
       d="m 133.3441,36.843502 0.60804,-1.29169 1.18638,0.514494 0.90575,-0.514494 0.79513,1.338462 -0.60804,1.104603 -0.95252,-0.561266 -1.09284,0.280633 z"
       id="path3329"
       sodipodi:nodetypes="ccccccccc" />
    <path
       style="fill:#808080;stroke-width:0.0154966"
       d="m 126.62846,37.983173 0.31771,-1.244487 1.61755,-0.137255 c 1.73313,1.025107 2.13548,1.233705 2.26266,2.738135 -1.77734,-0.535916 -1.21607,-0.263733 -1.77734,-0.535916 l -1.35451,0.752277 -1.29993,-0.0039 c 0.43654,-0.320264 -2.54252,-1.415697 0.23386,-1.56883 z"
       id="path3407"
       sodipodi:nodetypes="cccccccc" />
    <path
       style="fill:#808080;stroke-width:0.0146425"
       d="m 297.85749,37.030913 c 0,-0.43891 0.002,-0.618464 0.004,-0.399009 0.002,0.219455 0.002,0.578562 0,0.798017 -0.002,0.219455 -0.004,0.0399 -0.004,-0.399008 z"
       id="path3602"
       transform="matrix(0.26458333,0,0,0.26458333,48.741021,30.980755)" />
    <path
       style="fill:#808080;stroke-width:0.0146425"
       d="m 297.85558,37.323763 c 0,-0.0604 0.003,-0.08511 0.006,-0.05491 0.003,0.0302 0.003,0.07962 0,0.109819 -0.003,0.0302 -0.006,0.0055 -0.006,-0.05491 z"
       id="path3641"
       transform="matrix(0.26458333,0,0,0.26458333,48.741021,30.980755)" />
    <path
       style="fill:#808080;stroke-width:0.00390625"
       d=""
       id="path3797"
       transform="matrix(0.26458333,0,0,0.26458333,48.741021,30.980755)" />
    <path
       style="fill:#808080;stroke-width:0.00390625"
       d=""
       id="path3836"
       transform="matrix(0.26458333,0,0,0.26458333,48.741021,30.980755)" />
    <path
       style="fill:#808080;stroke-width:0.00390625"
       d=""
       id="path4031"
       transform="matrix(0.26458333,0,0,0.26458333,48.741021,30.980755)" />
    <path
       style="fill:#808080;stroke-width:0.00826823"
       d="m 127.513,34.324117 0.23386,-1.767697 1.46359,-0.09354 h 0.43461 l -0.004,0.146761 c -0.002,0.08072 -0.009,0.169086 -0.0148,0.196371 -0.0158,0.07025 1.15329,0.666501 1.16912,0.738953 0.006,0.02728 1.1544,-0.362789 0,0 l -0.39773,1.100876 v 0 l -1.3235,0.467722 z"
       id="path4304"
       sodipodi:nodetypes="ccccccsccccc" />
    <path
       style="fill:#808080;stroke-width:0.00826823"
       d="m 132.26997,40.57863 0.23386,-1.767697 1.46359,-0.09354 h 0.43461 l -0.004,0.146761 c -0.002,0.08072 -0.009,0.169086 -0.0148,0.196371 -0.0158,0.07025 1.15329,0.666501 1.16912,0.738953 0.006,0.02728 1.1544,-0.362789 0,0 l -0.39773,1.100876 v 0 l -1.3235,0.467722 z"
       id="path4304-4"
       sodipodi:nodetypes="ccccccsccccc"
       inkscape:transform-center-x="0.13229167"
       inkscape:transform-center-y="-0.16536459" />
    <path
       style="fill:#808080;stroke-width:0.00826823"
       d="m 71.468173,79.598439 0.257247,-1.136273 1.04264,-0.444331 h 0.43461 v 0 c 0,0 0.236878,0.178089 0.417559,0.519743 0.125166,0.23668 0.235527,0.564018 0.171328,0.914864 l -0.561266,0.374178 -0.809006,0.444336 z"
       id="path4304-4-9"
       sodipodi:nodetypes="cccccscccc"
       inkscape:transform-center-x="0.13229167"
       inkscape:transform-center-y="-0.16536459" />
    <path
       style="fill:#808080;stroke-width:0.00826823"
       d="m 83.935262,82.159213 0.257247,-1.136273 1.04264,-0.444331 h 0.43461 v 0 c 0,0 0.236878,0.178089 0.417559,0.519743 0.125166,0.23668 0.235527,0.564018 0.171328,0.914864 l -0.561266,0.374178 -0.809006,0.444336 z"
       id="path4304-4-9-5"
       sodipodi:nodetypes="cccccscccc"
       inkscape:transform-center-x="0.13229167"
       inkscape:transform-center-y="-0.16536459" />
    <path
       style="fill:#808080;stroke-width:0.0165365"
       d="m 133.26147,33.528037 -0.16537,-1.124478 1.39733,-0.132292 v 0 l 0.86817,0.959114 -0.19844,0.661459 -0.66973,0.297656 -0.5705,-0.595312 z"
       id="path4343"
       sodipodi:nodetypes="ccccccccc" />
  </g>
</svg>
