<?xml version="1.0" encoding="UTF-8" standalone="no"?>
<!-- Created with Inkscape (http://www.inkscape.org/) -->

<svg
   width="173.99504mm"
   height="106.36271mm"
   viewBox="0 0 173.99504 106.36271"
   version="1.1"
   id="svg5"
   inkscape:version="1.1.1 (c3084ef, 2021-09-22)"
   xmlns:inkscape="http://www.inkscape.org/namespaces/inkscape"
   xmlns:sodipodi="http://sodipodi.sourceforge.net/DTD/sodipodi-0.dtd"
   xmlns:xlink="http://www.w3.org/1999/xlink"
   xmlns="http://www.w3.org/2000/svg"
   xmlns:svg="http://www.w3.org/2000/svg">
  <sodipodi:namedview
     id="namedview7"
     pagecolor="#ffffff"
     bordercolor="#999999"
     borderopacity="1"
     inkscape:pageshadow="0"
     inkscape:pageopacity="0"
     inkscape:pagecheckerboard="0"
     inkscape:document-units="mm"
     showgrid="false"
     inkscape:zoom="1.0670983"
     inkscape:cx="500.89104"
     inkscape:cy="274.10782"
     inkscape:window-width="1312"
     inkscape:window-height="1027"
     inkscape:window-x="0"
     inkscape:window-y="25"
     inkscape:window-maximized="0"
     inkscape:current-layer="layer1" />
  <defs
     id="defs2">
    <filter
       inkscape:collect="always"
       style="color-interpolation-filters:sRGB"
       id="filter9930"
       x="-0.038147395"
       y="-0.59005233"
       width="1.0762948"
       height="2.1801047">
      <feGaussianBlur
         inkscape:collect="always"
         stdDeviation="9.7117345"
         id="feGaussianBlur9932" />
    </filter>
  </defs>
  <g
     inkscape:label="Layer 1"
     inkscape:groupmode="layer"
     id="layer1"
     transform="translate(-16.024258,-74.104465)">
    <g
       id="g41"
       transform="translate(-0.3506494,12.272727)">
      <path
         style="fill:#d0d0d0;fill-opacity:1;stroke-width:0.264583"
         d="m 22.479057,144.24945 v -23.9448 h 7.386285 c 4.062456,0 7.425972,0.103 7.474479,0.22888 0.08438,0.21896 3.114971,-0.0442 4.293894,-0.37289 0.434683,-0.12119 0.470882,-0.0962 0.165052,0.11386 -0.277895,0.19089 0.02969,0.22924 1.058333,0.13194 0.797545,-0.0754 3.236019,-0.23737 5.418832,-0.35986 2.182813,-0.12249 4.504531,-0.35337 5.159375,-0.51307 9.248756,-2.25553 26.268098,-2.75388 45.905208,-1.34416 13.586785,0.97537 21.723325,1.66594 24.870835,2.11084 2.40158,0.33947 4.32538,0.32716 3.83646,-0.0246 -0.34278,-0.24658 -0.33799,-0.26681 0.0351,-0.14846 0.23759,0.0754 10.3579,0.16199 22.48959,0.19248 23.04554,0.0579 22.55575,0.0755 29.99511,-1.0736 0.87312,-0.13486 2.09351,-0.3195 2.71198,-0.41031 l 1.12448,-0.16511 v 24.76179 24.7618 h -80.9625 -80.962503 v -23.94479 z m 6.278342,-23.04632 c -0.08792,-0.0879 -0.316122,-0.0973 -0.507118,-0.0209 -0.211067,0.0845 -0.148372,0.14716 0.159852,0.15985 0.278915,0.0115 0.435185,-0.0511 0.347266,-0.13896 z m 103.589891,-0.0154 c -0.1819,-0.0734 -0.47956,-0.0734 -0.66146,0 -0.1819,0.0734 -0.0331,0.13345 0.33073,0.13345 0.3638,0 0.51263,-0.06 0.33073,-0.13345 z m -89.558377,-1.33482 c 0.329118,-0.0633 0.805368,-0.0609 1.058333,0.005 0.252965,0.0662 -0.01631,0.118 -0.598397,0.11506 -0.582084,-0.003 -0.789055,-0.0571 -0.459936,-0.1204 z m -3.040758,-0.26081 c 0.257431,-0.0671 0.614618,-0.0627 0.79375,0.01 0.179131,0.0725 -0.03149,0.12736 -0.468056,0.12197 -0.436563,-0.005 -0.583125,-0.0647 -0.325694,-0.13177 z m 10.71059,-0.003 c 0.327421,-0.0631 0.863203,-0.0631 1.190625,0 0.327421,0.0631 0.05953,0.11467 -0.595313,0.11467 -0.654844,0 -0.922734,-0.0516 -0.595312,-0.11467 z M 33.326974,108.25761 c 0,-0.0774 0.172518,-0.55368 0.383374,-1.05833 0.413699,-0.99012 0.285324,-1.19878 -0.279645,-0.45452 -0.214656,0.28277 -0.354759,0.33427 -0.359898,0.13229 -0.005,-0.19755 -0.354682,-0.32592 -0.868311,-0.3188 l -0.859895,0.0119 0.79375,0.36345 0.79375,0.36345 -0.992188,0.0215 c -0.545703,0.0118 -0.992187,-0.0976 -0.992187,-0.24308 0,-0.14552 -0.47625,-0.26459 -1.058334,-0.26459 -0.668117,0 -1.059827,-0.12194 -1.062385,-0.33072 -0.0027,-0.22231 -0.06778,-0.23767 -0.198437,-0.0469 -0.106912,0.15613 -0.432511,0.38292 -0.723553,0.50397 -0.504748,0.20992 -0.506211,0.2255 -0.0317,0.33746 0.273604,0.0646 0.599203,-0.0432 0.723553,-0.23939 0.174178,-0.27484 0.22702,-0.24854 0.230141,0.11457 0.0056,0.65553 -0.656651,0.84249 -1.325319,0.37414 l -0.560164,-0.39235 0.614038,-0.45274 0.614039,-0.45274 -0.79375,0.1613 c -1.77733,0.36117 -3.71126,0.47082 -3.307292,0.18752 0.294307,-0.2064 0.140456,-0.23714 -0.595313,-0.11892 l -0.992187,0.15941 V 84.223648 61.831738 h 80.962499 80.9625 v 21.960417 c 0,12.078229 -0.0645,21.960415 -0.14336,21.960415 -0.0788,0 -0.40626,-0.25117 -0.7276,-0.55815 -1.60437,-1.53271 -4.91657,-2.0223 -7.11075,-1.05107 -1.22567,0.54252 -2.86621,1.85094 -2.86621,2.28595 0,0.45494 -0.8533,1.50534 -1.02606,1.26306 -0.34151,-0.47891 -1.69107,-0.88146 -2.95514,-0.88146 -0.72076,0 -1.31047,-0.1 -1.31047,-0.22211 0,-0.71445 -3.80315,-1.20072 -4.03157,-0.51547 -0.0721,0.21626 -0.70416,0.30593 -1.94027,0.27524 -1.42198,-0.0353 -1.69116,0.0127 -1.19964,0.2141 0.34855,0.14279 0.58042,0.31292 0.51527,0.37807 -0.17765,0.17765 -2.07504,-0.17083 -2.07504,-0.38111 0,-0.10013 -1.58909,-0.20804 -3.53131,-0.2398 -2.90366,-0.0475 -3.59132,0.0145 -3.86886,0.34896 -0.23331,0.28112 -0.24583,0.41692 -0.0406,0.43978 0.69291,0.0772 0.79269,0.11068 1.00254,0.33672 0.12861,0.13854 -0.0551,0.16761 -0.44097,0.0698 -0.36381,-0.0923 -0.95211,-0.16937 -1.30734,-0.17136 -0.62781,-0.004 -0.63151,-0.0151 -0.1323,-0.41254 0.47752,-0.38021 0.42997,-0.3977 -0.67703,-0.24896 -0.86721,0.11652 -1.08282,0.085 -0.79375,-0.11618 0.31712,-0.22067 0.24753,-0.27697 -0.34634,-0.28021 -0.50074,-0.003 -0.6808,0.0969 -0.55191,0.30549 0.13533,0.21897 0.0431,0.24726 -0.31512,0.0967 -2.10695,-0.88574 -2.54056,-0.95221 -4.14816,-0.63593 -0.88184,0.17349 -1.79757,0.50451 -2.03496,0.7356 -0.23739,0.2311 -0.66459,0.59876 -0.94933,0.81704 -0.49179,0.377 -0.49784,0.37037 -0.12085,-0.13229 0.21828,-0.29104 0.51249,-0.61199 0.6538,-0.71322 0.47619,-0.34112 -0.14361,-0.59284 -0.66224,-0.26895 -0.28245,0.17639 -0.92847,0.32071 -1.43561,0.32071 -0.80838,0 -0.95543,0.10603 -1.19268,0.8599 -0.25955,0.82476 -0.26514,0.81395 -0.13673,-0.26458 0.0798,-0.67023 0.0257,-1.12448 -0.13383,-1.12448 -0.14724,0 -0.27577,0.14883 -0.28561,0.33073 -0.01,0.1819 -0.13807,0.0831 -0.28493,-0.21955 -0.43872,-0.90415 -1.7166,-1.48275 -3.35811,-1.52049 -1.27551,-0.0293 -1.65753,0.0799 -2.48386,0.71018 -0.91963,0.70144 -1.01145,0.72038 -1.57578,0.32511 -0.32958,-0.23085 -1.02333,-0.41973 -1.54166,-0.41973 -0.77576,0 -1.02915,-0.14683 -1.43288,-0.8303 -0.75704,-1.28156 -1.27615,-1.69089 -2.62236,-2.06781 -2.30148,-0.64437 -5.04302,0.26458 -5.74854,1.90592 -0.36401,0.84685 -0.37004,0.84797 -1.81206,0.3392 -1.84018,-0.64925 -4.09506,0.1954 -4.89612,1.83404 -0.33383,0.68289 -0.53091,0.78669 -1.52593,0.80367 -0.62841,0.0107 -1.26164,0.0746 -1.40716,0.14187 -0.14552,0.0673 -0.31169,0.003 -0.36926,-0.14222 -0.0985,-0.24898 1.40132,-0.67575 2.41978,-0.68853 0.25466,-0.003 0.46302,-0.12525 0.46302,-0.27123 0,-0.39701 -2.91973,-0.11473 -3.18069,0.30751 -0.16045,0.25962 -0.31185,0.27712 -0.56945,0.0658 -0.77066,-0.63219 -2.47473,-0.87389 -4.07897,-0.57855 -0.85998,0.15832 -1.71242,0.41049 -1.89432,0.56039 -0.22704,0.18708 -0.33073,0.18682 -0.33073,-8e-4 0,-0.15035 -0.52148,-0.52582 -1.15883,-0.83435 -0.882903,-0.42741 -1.418399,-0.51948 -2.248957,-0.38667 -0.59957,0.0959 -1.090129,0.24953 -1.090129,0.34145 0,0.33112 -1.086879,0.83716 -1.392451,0.64831 -0.171927,-0.10626 -0.732629,-0.16323 -1.246008,-0.1266 -0.821632,0.0586 -0.991849,-0.0423 -1.421339,-0.84298 -0.268359,-0.50027 -0.779976,-1.04264 -1.136931,-1.20528 -0.852881,-0.3886 -3.080318,-0.37949 -3.474016,0.0142 -0.285834,0.28583 -0.826169,-0.17277 -1.661681,-1.41035 -0.08028,-0.11892 -0.730679,-0.39218 -1.445321,-0.60726 -1.826958,-0.54983 -3.766322,-10e-4 -4.666041,1.32007 -0.342011,0.50225 -0.80043,0.92071 -1.018712,0.92992 -0.218281,0.009 -0.813593,0.16149 -1.322916,0.3384 -0.821756,0.28544 -1.045224,0.25432 -1.984375,-0.27633 -1.238663,-0.69989 -2.092746,-0.75318 -3.389178,-0.2115 -1.085855,0.4537 -1.262803,0.67726 -1.678075,2.12014 -0.185578,0.64479 -0.314912,0.83714 -0.330729,0.49186 -0.04362,-0.95216 -1.492819,-1.21287 -2.404202,-0.43252 -0.631855,0.54096 -0.682758,0.86718 -0.135316,0.86718 0.218281,0 0.396875,-0.17859 0.396875,-0.39687 0,-0.50094 0.539723,-0.50939 1.206201,-0.0189 0.478636,0.35225 0.482076,0.39019 0.05057,0.55747 -0.254661,0.0987 -0.641614,0.11097 -0.859895,0.0272 -0.218282,-0.0838 -0.396875,-0.0328 -0.396875,0.1133 0,0.30514 -0.813068,-0.079 -1.620547,-0.76573 -0.507092,-0.43124 -0.498131,-0.44653 0.351661,-0.6 0.479604,-0.0866 -0.718656,-0.12612 -2.662804,-0.0878 -3.394686,0.0669 -3.56308,0.0968 -4.247811,0.7528 -0.392147,0.3757 -0.818534,0.68309 -0.947526,0.68309 -0.12899,0 -0.02286,-0.15478 0.235855,-0.34395 0.438425,-0.32058 0.424098,-0.36504 -0.210879,-0.65436 -0.725283,-0.33046 -1.481283,-0.18808 -1.481283,0.27899 0,0.15531 -0.288843,0.011 -0.641871,-0.32061 -0.353031,-0.33166 -0.752343,-0.53474 -0.887362,-0.45129 -0.135017,0.0834 -0.781688,-0.36205 -1.437042,-0.98999 -1.504299,-1.44137 -2.936925,-1.79246 -4.988547,-1.22253 -1.00765,0.27992 -2.628511,1.56177 -2.628511,2.07873 0,0.17661 -0.258527,0.26929 -0.595313,0.21342 -0.327421,-0.0543 -0.446484,-0.0479 -0.264583,0.0144 0.181901,0.0622 0.330729,0.23018 0.330729,0.37326 0,0.14308 -0.357187,0.0491 -0.79375,-0.20874 -0.436562,-0.25788 -0.79375,-0.55613 -0.79375,-0.66278 0,-0.10665 -0.279337,-0.49532 -0.62075,-0.86371 -2.216741,-2.3919 -7.212368,-2.30905 -9.699781,0.16088 -0.706307,0.70133 -1.585719,2.27454 -1.585719,2.83674 0,0.15991 -0.119062,0.29074 -0.264583,0.29074 -0.145521,0 -0.264583,-0.0633 -0.264583,-0.14079 z m 139.699816,-1.52847 c -1e-4,-0.17331 -0.29776,-0.33228 -0.66146,-0.35327 -0.76435,-0.0441 -0.86781,0.29316 -0.2039,0.6647 0.51338,0.2873 0.86564,0.16053 0.86536,-0.31143 z M 25.455619,106.37109 c -0.181901,-0.0734 -0.479557,-0.0734 -0.661458,0 -0.181901,0.0734 -0.03307,0.13346 0.330729,0.13346 0.363802,0 0.512631,-0.0601 0.330729,-0.13346 z m 145.123961,-0.0143 c -0.40018,-0.0606 -1.05503,-0.0606 -1.45521,0 -0.40018,0.0606 -0.0728,0.11022 0.7276,0.11022 0.80037,0 1.12779,-0.0496 0.72761,-0.11022 z m -139.633856,1.51243 c 0,-0.14552 0.119062,-0.26459 0.264583,-0.26459 0.145521,0 0.264583,0.11907 0.264583,0.26459 0,0.14552 -0.119062,0.26458 -0.264583,0.26458 -0.145521,0 -0.264583,-0.11906 -0.264583,-0.26458 z m 125.482526,-0.14475 c -0.17977,-0.19458 -0.53597,-0.47081 -0.79155,-0.61384 -0.25558,-0.14303 -0.39252,-0.33224 -0.3043,-0.42045 0.18217,-0.18217 1.81534,0.68476 1.8179,0.96498 0.003,0.37274 -0.40546,0.41199 -0.72205,0.0693 z m -123.944636,-0.036 c 0.190996,-0.0764 0.4192,-0.067 0.507118,0.0209 0.08792,0.0879 -0.06835,0.15046 -0.347265,0.13897 -0.308225,-0.0127 -0.37092,-0.0754 -0.159853,-0.15985 z m 121.228776,-0.48072 c 0,-0.3638 0.11906,-0.66146 0.26458,-0.66146 0.14552,0 0.26459,0.29766 0.26459,0.66146 0,0.3638 -0.11907,0.66146 -0.26459,0.66146 -0.14552,0 -0.26458,-0.29766 -0.26458,-0.66146 z m 8.38923,-0.12932 c 0.0757,-0.2894 0.24312,-0.46097 0.3721,-0.38126 0.3738,0.23102 0.27123,0.90745 -0.1376,0.90745 -0.24114,0 -0.32368,-0.18519 -0.2345,-0.52619 z m -105.094438,-0.003 c 0.08994,-0.14552 0.216027,-0.26459 0.280199,-0.26459 0.06417,0 0.116676,0.11907 0.116676,0.26459 0,0.14552 -0.12609,0.26458 -0.280199,0.26458 -0.154109,0 -0.206613,-0.11906 -0.116676,-0.26458 z m 1.984375,0 c 0,-0.14552 0.119062,-0.26459 0.264583,-0.26459 0.145521,0 0.264584,0.11907 0.264584,0.26459 0,0.14552 -0.119063,0.26458 -0.264584,0.26458 -0.145521,0 -0.264583,-0.11906 -0.264583,-0.26458 z m 6.735995,-0.0176 c -0.09592,-0.1552 -0.110868,-0.34571 -0.03322,-0.42337 0.189526,-0.18952 0.705556,0.14442 0.705556,0.45659 0,0.33813 -0.456779,0.31556 -0.672338,-0.0332 z"
         id="path55" />
      <path
         style="fill:#b9b9b9;fill-opacity:1;stroke-width:0.264583"
         d="m 22.543709,145.79566 0.06764,-22.39858 2.248958,-0.47848 c 2.083742,-0.44333 7.535221,-1.32262 10.31875,-1.66435 2.489742,-0.30566 8.021874,-0.69034 13.7412,-0.95552 3.344592,-0.15507 6.082788,-0.39705 6.272254,-0.55429 0.203165,-0.16861 2.618615,-0.32386 6.102548,-0.39221 3.60299,-0.0707 5.567765,-0.0223 5.237123,0.12892 -0.704863,0.32243 -2.134288,0.28707 22.886458,0.56618 11.85995,0.13231 22.87323,0.29311 24.47396,0.35735 2.0519,0.0823 2.5592,0.0507 1.71979,-0.10721 -0.65484,-0.12321 -1.68244,-0.1606 -2.28355,-0.0831 -1.2583,0.16222 -4.06645,-0.34883 -4.06645,-0.74005 0,-0.14501 0.20903,-0.19731 0.46451,-0.11623 0.25549,0.0811 1.77353,0.21263 3.37344,0.29232 1.59991,0.0797 3.6233,0.25575 4.49643,0.39125 0.87312,0.13549 3.01625,0.37762 4.7625,0.53807 1.74625,0.16045 3.88937,0.40083 4.7625,0.53418 1.45846,0.22274 5.09993,0.60807 12.31531,1.30318 3.54299,0.34133 13.54001,0.34675 18.81833,0.0102 5.90124,-0.37625 10.27365,-0.84609 10.27365,-1.10396 0,-0.12372 0.44648,-0.22591 0.99218,-0.22708 1.05144,-0.002 6.58927,-0.69217 7.60765,-0.94777 0.33157,-0.0832 0.6824,-0.0226 0.77963,0.13472 0.22245,0.35993 1.20387,0.37741 1.20387,0.0214 0,-0.14552 -0.25797,-0.26458 -0.57326,-0.26458 -1.04758,0 -0.3747,-0.18893 1.23472,-0.34669 1.00839,-0.0988 1.39446,-0.0708 1.05833,0.0769 -0.29104,0.12791 -0.39395,0.24093 -0.22868,0.25115 0.16527,0.0102 0.64152,-0.15951 1.05833,-0.3772 0.67273,-0.35134 0.79085,-0.35134 1.0516,0 0.16157,0.21769 0.60805,0.3958 0.99219,0.3958 h 0.69844 v 24.07708 24.07709 h -80.964 -80.963991 z M 83.39937,121.70543 c -0.327422,-0.0631 -0.863204,-0.0631 -1.190625,0 -0.327422,0.0631 -0.05953,0.11466 0.595312,0.11466 0.654844,0 0.922734,-0.0516 0.595313,-0.11466 z m 38.1,-0.52917 c -0.32742,-0.0631 -0.8632,-0.0631 -1.19063,0 -0.32742,0.0631 -0.0595,0.11467 0.59532,0.11467 0.65484,0 0.92273,-0.0516 0.59531,-0.11467 z m -3.84197,-0.23771 c -0.0879,-0.0879 -0.31612,-0.0973 -0.50712,-0.0209 -0.21107,0.0845 -0.14837,0.14715 0.15985,0.15985 0.27892,0.0115 0.43519,-0.051 0.34727,-0.13897 z m 61.64792,0 c -0.0879,-0.0879 -0.31613,-0.0973 -0.50712,-0.0209 -0.21107,0.0845 -0.14838,0.14715 0.15985,0.15985 0.27891,0.0115 0.43518,-0.051 0.34727,-0.13897 z m 2.05603,-0.36931 c 0.0922,-0.14919 -0.12233,-0.26459 -0.49191,-0.26459 -0.36049,0 -0.87353,-0.0755 -1.1401,-0.16788 -0.42592,-0.14754 -0.42053,-0.11649 0.0445,0.25617 0.60342,0.48356 1.34659,0.56609 1.5875,0.1763 z M 66.664474,120.29725 c -0.654844,-0.11071 -1.63711,-0.28898 -2.182813,-0.39615 -0.643882,-0.12645 -0.992187,-0.0966 -0.992187,0.085 0,0.39325 0.6614,0.52252 2.645833,0.51715 1.659038,-0.005 1.677731,-0.0118 0.529167,-0.20595 z m -6.085417,-0.24197 c 0,-0.13715 0.506016,-0.29494 1.124479,-0.35064 0.638913,-0.0575 0.267597,-0.11124 -0.859896,-0.12433 -1.091406,-0.0127 -2.579687,0.0796 -3.307291,0.20513 -1.313096,0.22648 -1.310733,0.22733 0.318415,0.11446 0.918043,-0.0636 1.711939,5.2e-4 1.801553,0.14552 0.204785,0.33134 0.92274,0.33902 0.92274,0.01 z m 1.923264,0.0758 c -0.179131,-0.0725 -0.536318,-0.0769 -0.79375,-0.01 -0.257431,0.0671 -0.110868,0.12638 0.325694,0.13177 0.436563,0.005 0.647187,-0.0495 0.468056,-0.12197 z m 5.157425,-1.07191 c 0.329118,-0.0633 0.805368,-0.0609 1.058334,0.005 0.252965,0.0662 -0.01632,0.118 -0.598398,0.11506 -0.582083,-0.003 -0.789054,-0.0571 -0.459936,-0.1204 z m -5.360897,-0.33946 c -0.329306,-0.13991 0.02045,-0.16885 0.926041,-0.0766 0.800365,0.0815 1.504818,0.19105 1.565453,0.24342 0.227766,0.19673 -1.984434,0.0486 -2.491494,-0.16679 z m 11.443229,0.0753 c 0.327422,-0.0631 0.863203,-0.0631 1.190625,0 0.327422,0.0631 0.05953,0.11467 -0.595313,0.11467 -0.654843,0 -0.922734,-0.0516 -0.595312,-0.11467 z m 13.163021,-0.09 c -0.727604,-0.11333 -2.692136,-0.2385 -4.365625,-0.27817 -1.834211,-0.0435 -2.464732,-0.11406 -1.5875,-0.17771 2.184249,-0.15849 8.700547,0.23256 8.069791,0.48427 -0.291041,0.11615 -0.588698,0.20363 -0.661458,0.19442 -0.07276,-0.009 -0.727604,-0.10948 -1.455208,-0.22281 z m 13.443531,-0.0163 c 0.36283,-0.097 1.59412,-0.0866 2.73621,0.0232 l 2.07651,0.19966 -2.73621,-0.0232 c -1.50491,-0.0128 -2.43934,-0.10263 -2.07651,-0.19967 z m -30.839885,-0.15823 c 0.327421,-0.0631 0.863203,-0.0631 1.190625,0 0.327421,0.0631 0.05953,0.11466 -0.595313,0.11466 -0.654844,0 -0.922734,-0.0516 -0.595312,-0.11466 z m 22.73931,0.0175 c -0.265957,-0.26596 0.06697,-0.62644 0.559639,-0.60596 0.369093,0.0153 0.354785,0.0621 -0.08176,0.26732 -0.362648,0.17046 0.09528,0.21229 1.455208,0.13291 1.555819,-0.0908 1.755812,-0.0661 0.926042,0.1143 -1.282115,0.27879 -2.628709,0.32184 -2.859127,0.0914 z m -25.897774,-0.27613 c 0.190995,-0.0764 0.419198,-0.067 0.507119,0.0209 0.08792,0.0879 -0.06835,0.15046 -0.347266,0.13897 -0.308226,-0.0127 -0.370919,-0.0754 -0.159853,-0.15985 z m 9.508463,-0.006 c 0.327422,-0.0631 0.863204,-0.0631 1.190625,0 0.327422,0.0631 0.05953,0.11466 -0.595312,0.11466 -0.654844,0 -0.922734,-0.0516 -0.595313,-0.11466 z m 20.91862,0.006 c 0.190995,-0.0764 0.419201,-0.067 0.507119,0.0209 0.08792,0.0879 -0.06835,0.15046 -0.347265,0.13897 -0.308227,-0.0127 -0.37092,-0.0754 -0.159854,-0.15985 z m -20.389453,-0.54606 c 1.78263,-0.0458 4.699662,-0.0458 6.482292,0 1.78263,0.0458 0.324114,0.0832 -3.241146,0.0832 -3.56526,0 -5.023776,-0.0374 -3.241146,-0.0832 z M 22.479057,79.294238 v -17.4625 h 80.962503 80.9625 v 17.4625 17.4625 h -80.9625 -80.962503 z"
         id="path53" />
      <path
         style="fill:#a3a3a3;fill-opacity:1;stroke-width:0.264583"
         d="m 22.479057,145.85571 v -22.33854 l 1.389063,-0.27248 c 10.74139,-2.10705 17.087454,-2.71225 28.905729,-2.75663 9.155573,-0.0344 15.237759,0.34652 24.844457,1.55594 5.054192,0.63628 5.648227,0.65601 14.816666,0.49196 14.357248,-0.25689 35.898588,0.57237 51.752418,1.99226 1.67349,0.14988 5.48349,0.45211 8.46667,0.67162 2.98317,0.21951 6.51392,0.5314 7.84611,0.69308 1.93768,0.23518 3.4724,0.20822 7.67292,-0.13478 4.67813,-0.38201 14.0555,-0.95501 15.63565,-0.95542 l 0.59532,-1.5e-4 v 21.69583 21.69584 h -80.9625 -80.962503 z m 0,-73.043764 V 61.831738 h 80.962503 80.9625 v 10.980208 10.980209 h -80.9625 -80.962503 z"
         id="path51" />
      <path
         style="fill:#8c8c8c;fill-opacity:1;stroke-width:0.264583"
         d="m 22.479057,146.6307 c 0,-17.07229 0.06888,-21.56439 0.330729,-21.5676 0.228486,-0.003 0.240858,-0.0641 0.04002,-0.19843 -0.606263,-0.40539 -0.278466,-1.06603 0.665536,-1.34134 1.95474,-0.57006 10.184912,-1.82605 16.02934,-2.4462 5.604371,-0.59468 28.186708,-0.36474 29.948082,0.30493 0.355158,0.13503 1.273442,0.24551 2.040633,0.24551 0.767191,0 2.575142,0.17869 4.017671,0.3971 1.44253,0.2184 3.629933,0.476 4.860896,0.57245 1.230964,0.0964 2.038951,0.24517 1.795526,0.33051 -0.243422,0.0853 0.535364,0.15515 1.730635,0.15515 1.195273,0 3.89963,0.26825 6.009682,0.59611 6.406584,0.99544 7.429159,1.14456 10.451043,1.52403 1.60073,0.20101 4.10104,0.54486 5.55625,0.76413 2.9319,0.44177 6.00882,0.78237 10.98021,1.21546 1.81901,0.15847 4.40166,0.40219 5.73923,0.54159 5.69901,0.59398 26.32484,0.0558 35.40348,-0.92367 0.43656,-0.0471 2.46062,-0.21812 4.49791,-0.38003 2.03729,-0.16192 5.19245,-0.41494 7.01146,-0.56227 5.64178,-0.45697 10.89625,-0.77625 12.89844,-0.78377 l 1.91823,-0.007 v 21.56355 21.56354 h -80.9625 -80.962503 z m 12.628342,-23.84007 c -0.08792,-0.0879 -0.316122,-0.0973 -0.507118,-0.0209 -0.211067,0.0845 -0.148372,0.14716 0.159852,0.15985 0.278915,0.0115 0.435185,-0.0511 0.347266,-0.13896 z m 38.100001,0 c -0.08792,-0.0879 -0.316124,-0.0973 -0.507119,-0.0209 -0.211066,0.0845 -0.148373,0.14716 0.159853,0.15985 0.278913,0.0115 0.435184,-0.0511 0.347266,-0.13896 z"
         id="path49" />
      <path
         style="fill:#767676;fill-opacity:1;stroke-width:0.264583"
         d="m 22.479057,153.53881 v -14.65543 l 0.859896,-0.12928 c 0.472943,-0.0711 2.764896,-0.45121 5.093229,-0.84468 2.328333,-0.39347 5.00724,-0.80847 5.953125,-0.92222 0.945885,-0.11376 3.743854,-0.45721 6.217708,-0.76322 7.669894,-0.94875 15.46565,-1.73455 22.754167,-2.29358 18.065025,-1.38559 48.603058,-2.06917 66.013538,-1.47771 9.58998,0.3258 24.58511,1.1531 29.10417,1.60573 7.52384,0.75358 10.53151,1.07163 11.24479,1.18909 0.43656,0.0719 2.69875,0.37181 5.02709,0.66648 2.32833,0.29466 5.45372,0.73259 6.94531,0.97316 l 2.71198,0.43739 v 15.43485 15.43485 h -80.9625 -80.962503 z"
         id="path47" />
      <path
         style="fill:#606060;fill-opacity:1;stroke-width:0.264583"
         d="m 22.479057,158.00778 v -10.18646 h 80.962503 80.9625 v 10.18646 10.18646 h -80.9625 -80.962503 z"
         id="path45" />
      <path
         style="fill:#494949;fill-opacity:1;stroke-width:0.264583"
         d="m 22.479057,165.41611 v -2.51354 h 80.962503 80.9625 v 2.51354 2.51354 h -80.9625 -80.962503 z"
         id="path43" />
    </g>
    <path
       style="fill:#008000;stroke-width:0.937121"
       d="m 84.340868,671.44702 v -8.90264 H 389.84224 695.3436 v 8.90264 8.90265 H 389.84224 84.340868 Z"
       id="path283"
       transform="scale(0.26458333)" />
    <path
       style="fill:#008000;stroke-width:0.937121"
       d="M 84.340868,633.49363 V 605.38001 H 389.84224 695.3436 v 28.11362 28.11362 H 389.84224 84.340868 Z"
       id="path359"
       transform="scale(0.26458333)" />
    <path
       style="fill:#999999;fill-opacity:1;stroke-width:0.937121"
       d="m 84.355218,546.10712 c 0.0079,-13.52968 0.405474,-25.21783 0.883515,-25.97367 0.550992,-0.87118 0.503734,-1.81457 -0.129095,-2.57708 -0.710647,-0.85628 -0.684803,-1.58053 0.0897,-2.51375 1.553196,-1.87148 19.963562,-5.1949 53.494532,-9.65677 18.44585,-2.45453 103.45627,-2.43223 123.69994,0.0324 7.47354,0.90991 18.85956,2.27351 25.30226,3.03023 6.44271,0.75672 14.87679,1.78755 18.74242,2.29073 3.86562,0.50317 11.878,1.35874 17.80529,1.90125 5.92729,0.54252 15.83734,1.78807 22.02234,2.7679 22.20415,3.5176 66.98737,9.40003 90.90071,11.94014 22.65205,2.40613 27.0995,2.58468 63.25565,2.53951 40.12467,-0.0501 64.19203,-1.05649 99.80337,-4.17324 23.48077,-2.05507 66.61061,-5.20379 83.63802,-6.10605 l 11.47973,-0.6083 V 542.06 565.11952 l -2.10852,-0.4379 c -9.50688,-1.97444 -53.22541,-7.66351 -79.42098,-10.33502 -90.27752,-9.2068 -222.43158,-10.83355 -342.9862,-4.222 -52.79094,2.8952 -126.48154,10.66094 -168.77063,17.78555 -9.129074,1.53802 -16.849888,2.79639 -17.157361,2.79639 -0.307474,0 -0.552585,-11.06974 -0.544693,-24.59942 z m 47.310252,-35.37631 c 0.31854,-0.51541 -0.0783,-0.93712 -0.88182,-0.93712 -0.80354,0 -1.46099,0.42171 -1.46099,0.93712 0,0.51542 0.39682,0.93712 0.88182,0.93712 0.485,0 1.14244,-0.4217 1.46099,-0.93712 z m 143.84803,0 c 0,-0.51541 -0.63255,-0.93712 -1.40568,-0.93712 -0.77312,0 -1.40568,0.42171 -1.40568,0.93712 0,0.51542 0.63256,0.93712 1.40568,0.93712 0.77313,0 1.40568,-0.4217 1.40568,-0.93712 z"
       id="path472"
       transform="scale(0.26458333)" />
    <path
       style="fill:#006a00;fill-opacity:1;stroke-width:0.937121"
       d="m 84.809429,633.49363 v -28.11362 h 305.032811 305.0328 v 28.11362 28.11362 H 389.84224 84.809429 Z"
       id="path2066"
       transform="scale(0.26458333)" />
    <path
       style="fill:#2f4f00;fill-opacity:1;stroke-width:0.937121"
       d="m 83.872308,588.04328 c 0,-9.01979 0.246158,-16.39962 0.547017,-16.39962 0.30086,0 9.262077,-1.46359 19.913815,-3.25242 33.4851,-5.62341 98.00123,-12.8436 142.12962,-15.90613 57.2542,-3.97348 122.45489,-5.88001 190.23551,-5.56267 30.40957,0.14237 58.24206,0.47102 61.84997,0.73033 3.60792,0.2593 12.46371,0.72583 19.67954,1.03673 25.4248,1.09544 74.19625,4.20232 88.08935,5.61154 7.73125,0.78421 16.04593,1.61709 18.47709,1.85086 5.16776,0.49691 13.13342,1.40508 17.1335,1.95339 28.06948,3.84764 38.75747,5.34474 44.9818,6.30073 l 7.49696,1.15145 0.2533,19.44271 0.25329,19.44271 H 389.39269 83.872308 Z"
       id="path3030"
       transform="scale(0.26458333)" />
    <path
       style="fill:#2f3400;fill-opacity:1;stroke-width:0.937121"
       d="m 448.88084,527.59985 c -33.71439,-3.40353 -45.09741,-4.79304 -84.34087,-10.29539 -21.64748,-3.0352 -43.15441,-5.90523 -47.79315,-6.37783 -6.23909,-0.63565 3.51644,-0.89101 37.48483,-0.98118 74.90586,-0.19886 120.27085,1.79565 211.32073,9.29087 19.32811,1.59109 39.14822,3.17476 44.04467,3.51926 l 8.90265,0.62636 -20.61666,1.70394 c -36.08448,2.98232 -46.87673,3.45092 -89.49503,3.88586 -36.38551,0.37133 -43.97178,0.19644 -59.50717,-1.37189 z"
       id="path3846"
       transform="scale(0.26458333)" />
    <path
       style="fill:#4d3400;fill-opacity:1;stroke-width:0.937121"
       d="m 601.16297,521.41841 c -0.77313,-0.18724 -20.17153,-1.81768 -43.10756,-3.6232 -22.93603,-1.80552 -44.2321,-3.50587 -47.3246,-3.77856 -31.41939,-2.77045 -115.08269,-5.33148 -164.93325,-5.04879 -37.63038,0.2134 -40.244,0.11407 -59.50717,-2.26147 -11.08145,-1.36656 -24.36514,-2.79764 -29.5193,-3.18017 -6.85014,-0.50839 -8.48883,-0.84908 -6.09129,-1.26639 3.09651,-0.53897 3.14891,-0.60705 0.93712,-1.2174 -5.97226,-1.64804 -11.76284,-2.31268 -12.64329,-1.45118 -0.61151,0.59834 -0.45127,1.21149 0.46856,1.79303 1.58593,1.00266 -8.16953,1.31776 -10.7027,0.34569 -1.92854,-0.74005 -0.96716,-2.24461 1.43427,-2.24461 1.03083,0 1.61361,0.42171 1.29507,0.93712 -0.33453,0.54128 0.53276,0.92832 2.05321,0.91629 l 2.63239,-0.0208 -2.3428,-1.83257 -2.3428,-1.83256 8.59027,-0.0208 c 4.74192,-0.0115 8.73021,0.38717 8.90265,0.88992 0.19548,0.56994 29.94456,1.26109 79.49908,1.84697 43.55268,0.51491 85.86232,1.17371 94.02141,1.464 10.10487,0.35952 14.64375,0.21882 14.23579,-0.44128 -0.32941,-0.533 -4.26396,-1.01898 -8.74343,-1.07996 -4.47948,-0.061 -9.40961,-0.46539 -10.95586,-0.89869 -5.12812,-1.43701 17.14931,0.12494 42.17043,2.95674 68.26512,7.72598 68.21805,7.72238 101.20904,7.74881 29.1005,0.0233 48.53834,-0.92541 67.00414,-3.27037 4.38104,-0.55635 8.38723,-1.33 8.90264,-1.71924 0.51542,-0.38923 4.73896,-0.98252 9.38563,-1.31843 4.64669,-0.3359 12.02652,-1.19175 16.39962,-1.90188 4.70274,-0.76366 8.31481,-0.94811 8.84137,-0.45148 0.48964,0.46181 1.90529,0.83966 3.1459,0.83966 1.62,0 2.10363,-0.39612 1.71623,-1.40569 -0.29668,-0.77312 -0.13094,-1.40568 0.36829,-1.40568 0.49925,0 0.90772,0.43075 0.90772,0.95722 0,1.41599 4.32279,3.13101 6.13706,2.43481 1.15937,-0.44489 1.30892,-0.91861 0.57079,-1.80801 -0.76015,-0.91593 -0.34429,-1.45275 1.73277,-2.23675 2.1559,-0.81376 2.96265,-0.75482 3.82076,0.27914 0.59829,0.72089 2.09042,1.31071 3.31585,1.31071 2.18013,0 2.22806,0.18056 2.22806,8.39163 v 8.39162 l -3.04564,0.4639 c -1.6751,0.25515 -9.16036,0.71883 -16.63389,1.0304 -7.47354,0.31157 -21.60064,1.17317 -31.39355,1.91467 -16.1718,1.22448 -39.11588,1.65696 -42.63899,0.80371 z M 313.23261,506.33635 c -0.90198,-0.23571 -2.37794,-0.23571 -3.27992,0 -0.90198,0.23571 -0.164,0.42856 1.63996,0.42856 1.80396,0 2.54194,-0.19285 1.63996,-0.42856 z m 144.3166,-1.87424 c -0.90198,-0.23571 -2.37794,-0.23571 -3.27992,0 -0.90198,0.23571 -0.164,0.42856 1.63996,0.42856 1.80396,0 2.54194,-0.19285 1.63996,-0.42856 z m -14.07633,-0.85732 c -0.31141,-0.3114 -1.11967,-0.34469 -1.79615,-0.074 -0.74757,0.29915 -0.52552,0.52121 0.56618,0.56617 0.98787,0.0407 1.54136,-0.18079 1.22997,-0.49219 z m 232.89403,-0.0545 c -0.64427,-0.25997 -1.69853,-0.25997 -2.34281,0 -0.64427,0.25997 -0.11714,0.47267 1.17141,0.47267 1.28854,0 1.81567,-0.2127 1.1714,-0.47267 z"
       id="path4403"
       transform="scale(0.26458333)" />
    <path
       style="fill:#00588e;fill-opacity:1;stroke-width:0.937121"
       d="m 305.99329,499.41042 c -51.18881,-0.67841 -55.48571,-0.93401 -62.34189,-3.7085 -2.92682,-1.18439 -9.83977,-1.75556 -9.83977,-0.81299 0,0.46637 0.91369,0.84795 2.03043,0.84795 1.11673,0 1.82182,0.20861 1.56685,0.46358 -0.25497,0.25497 -6.12369,0.70561 -13.0416,1.00143 -6.91791,0.29582 -14.60187,0.93062 -17.07547,1.41067 -2.4736,0.48004 -5.63638,0.82441 -7.0284,0.76527 -4.68469,-0.19904 18.88992,-4.4712 33.54819,-6.07955 11.00036,-1.20699 24.75928,-1.65578 56.6958,-1.8493 42.59089,-0.25807 57.05288,0.14063 56.18252,1.54891 -1.62838,2.63477 8.35837,3.08198 13.45653,0.60258 1.60585,-0.78097 2.6052,-0.7795 3.8625,0.006 1.09841,0.68597 2.01722,0.7382 2.6072,0.14821 0.54582,-0.54581 3.49358,-0.64646 7.35299,-0.25105 4.2094,0.43127 5.80278,0.88677 4.59766,1.31434 -1.04534,0.37088 2.01234,0.84825 7.05836,1.10196 4.89646,0.24619 9.02654,0.14498 9.17796,-0.22492 0.27387,-0.66905 10.8954,-0.24893 14.99123,0.59296 1.18076,0.2427 1.89165,0.85419 1.57975,1.35885 -0.3119,0.50467 0.40884,1.30898 1.60164,1.78737 2.5354,1.01685 -29.00834,1.00993 -106.98248,-0.0235 z M 258.64533,496.674 c 0.33881,-0.54821 -0.63345,-0.93712 -2.3428,-0.93712 -1.70935,0 -2.68162,0.38891 -2.3428,0.93712 0.31854,0.51542 1.3728,0.93712 2.3428,0.93712 0.96999,0 2.02425,-0.4217 2.3428,-0.93712 z m 76.37534,-1.83699 c 0,-0.96661 -12.50797,-1.93343 -23.33513,-1.80372 -7.32501,0.0877 -8.29941,0.25175 -5.24705,0.88311 2.06166,0.42644 6.91126,0.83091 10.77689,0.89882 3.86562,0.0679 8.92607,0.43224 11.24545,0.80962 4.33692,0.70567 6.55984,0.4387 6.55984,-0.78783 z m -53.65016,0.25389 c -0.90198,-0.23571 -2.37795,-0.23571 -3.27993,0 -0.90197,0.23571 -0.16399,0.42857 1.63997,0.42857 1.80395,0 2.54194,-0.19286 1.63996,-0.42857 z m -30.22215,-1.22826 c 0.31855,-0.51542 -0.10316,-0.93712 -0.93712,-0.93712 -0.83396,0 -1.25566,0.4217 -0.93712,0.93712 0.31855,0.51542 0.74025,0.93712 0.93712,0.93712 0.19687,0 0.61858,-0.4217 0.93712,-0.93712 z m 14.29109,0.29114 c -0.90197,-0.23571 -2.37794,-0.23571 -3.27992,0 -0.90198,0.23571 -0.16399,0.42857 1.63996,0.42857 1.80396,0 2.54194,-0.19286 1.63996,-0.42857 z m 23.42802,-0.93712 c -0.90198,-0.23571 -2.37794,-0.23571 -3.27992,0 -0.90198,0.23571 -0.164,0.42856 1.63996,0.42856 1.80396,0 2.54194,-0.19285 1.63996,-0.42856 z"
       id="path5626"
       transform="scale(0.26458333)" />
    <path
       style="fill:#00589c;fill-opacity:0.396761;stroke-width:0.937121"
       d="M 83.872308,387.49943 V 363.60285 H 389.37367 694.87504 v 23.89658 23.89658 H 389.37367 83.872308 Z"
       id="path6553"
       transform="scale(0.26458333)" />
    <path
       style="fill:#0058c4;fill-opacity:0.396761;stroke-width:0.937121"
       d="M 83.872308,321.43242 V 280.19911 H 389.37367 694.87504 v 41.23331 41.23331 L 392.88325,384.56104 83.872308,362.66573 Z"
       id="path7665"
       transform="scale(0.26458333)"
       sodipodi:nodetypes="ccccccccc" />
    <path
       style="fill:#008000;fill-opacity:0.234818;stroke-width:0.937121;filter:url(#filter9930)"
       d="m 254.35692,451.13766 c -0.78842,-0.95 -0.80058,-1.3197 -0.0434,-1.3197 0.57853,0 1.05187,-0.48305 1.05187,-1.07346 0,-1.62335 -22.85644,-0.47178 -25.50209,1.28486 -1.76274,1.17042 -2.384,1.1652 -4.80053,-0.0403 -2.22395,-1.10946 -3.13842,-1.15823 -4.60018,-0.24534 -1.48217,0.92562 -2.12912,0.86366 -3.44843,-0.3303 -0.89319,-0.80833 -2.12387,-1.46969 -2.73484,-1.46969 -0.61096,0 -3.40549,-1.86901 -6.21006,-4.15337 -8.51748,-6.93758 -18.38373,-6.75693 -25.98693,0.47582 -5.5143,5.24563 -7.4732,5.39213 -11.08715,0.82915 -4.03219,-5.09106 -9.32834,-7.63888 -17.02783,-8.19158 -10.4195,-0.74795 -18.80335,2.83465 -24.25948,10.36661 -1.922,2.65325 -2.72803,3.2537 -2.72803,2.03223 0,-1.23076 -0.29071,-1.44299 -1.0021,-0.7316 -0.55294,0.55293 -2.9682,0.82477 -5.38845,0.60646 -4.26429,-0.38464 -4.32115,-0.35608 -2.04353,1.02635 2.27175,1.37888 2.28053,1.42301 0.28958,1.45521 -1.12927,0.0183 -2.31384,-0.3885 -2.63239,-0.90392 -0.31854,-0.51541 -2.00536,-0.93712 -3.74848,-0.93712 -1.74312,0 -3.39974,-0.37284 -3.68138,-0.82854 -0.28163,-0.4557 -5.99953,-0.75218 -12.706434,-0.65884 L 83.872288,448.5003 V 430.41671 412.33313 H 389.37367 694.87504 v 16.36791 16.36791 l -4.19757,-2.83291 c -4.92899,-3.32654 -13.27213,-5.14484 -19.39423,-4.22678 -5.38377,0.80735 -13.67453,5.72555 -16.34093,9.69369 -1.58861,2.36416 -2.16702,2.71379 -2.6043,1.57423 -0.64041,-1.66888 -4.90849,-1.4481 -4.58383,0.23712 0.31224,1.62074 -11.08209,0.38174 -13.15798,-1.43078 -2.11115,-1.8433 -14.3242,-2.7555 -15.89267,-1.18704 -0.57598,0.57598 -3.45798,1.04724 -6.40445,1.04724 -3.36322,0 -5.49812,0.42276 -5.73581,1.13581 -0.29655,0.88966 -1.20016,0.88966 -4.16957,0 -3.87493,-1.16096 -25.18412,-1.5946 -27.86203,-0.56699 -0.81528,0.31286 -1.48233,1.15626 -1.48233,1.87425 0,0.71798 -0.61932,1.30542 -1.37627,1.30542 -0.77731,0 -1.16281,-0.55626 -0.8858,-1.27815 0.35788,-0.93263 -0.79834,-1.44911 -4.27713,-1.91059 -2.62218,-0.34784 -5.15823,-0.39102 -5.63566,-0.096 -0.47745,0.29508 -3.04433,-0.17532 -5.70421,-1.04532 -4.2081,-1.3764 -5.58217,-1.42817 -10.58098,-0.39868 -3.15967,0.65072 -7.22082,1.31299 -9.02478,1.4717 -6.63846,0.58406 -11.73206,1.69071 -12.4025,2.69461 -0.39215,0.5872 -0.69467,0.0898 -0.70284,-1.15568 -0.008,-1.31902 -0.47535,-2.03295 -1.17623,-1.79932 -0.63904,0.21301 -1.87549,-0.51992 -2.74769,-1.62874 -3.64206,-4.63012 -15.14734,-5.62612 -20.77965,-1.79886 -3.01069,2.04581 -3.96313,2.27218 -6.07454,1.44375 -1.37721,-0.54037 -4.09923,-1.25999 -6.04893,-1.59917 -2.78538,-0.48455 -4.13071,-1.46814 -6.27913,-4.59074 -3.43692,-4.99539 -7.16926,-6.58272 -15.47823,-6.58272 -7.59862,0 -11.97418,1.99959 -14.99393,6.8521 -1.51707,2.43783 -2.32069,2.91456 -4.21704,2.50166 -10.21833,-2.22486 -15.14304,-1.25768 -19.6327,3.85576 -1.57201,1.79042 -2.8582,2.81893 -2.8582,2.28558 0,-1.44255 -8.51204,-1.16195 -11.46385,0.37792 -1.40867,0.73485 -2.7864,0.97174 -3.06163,0.52642 -0.27523,-0.44533 -2.76174,-1.31575 -5.52559,-1.93427 -4.11882,-0.92175 -6.14676,-0.87299 -11.24353,0.27035 -6.08934,1.366 -6.31041,1.34766 -10.65562,-0.88394 -5.09288,-2.61558 -12.0872,-2.58703 -14.73439,0.0602 -1.56683,1.56683 -8.16961,2.13712 -11.21466,0.96863 -0.83434,-0.32017 -2.16195,-1.82936 -2.95024,-3.35375 -2.32686,-4.49963 -11.09305,-6.86871 -16.77128,-4.53247 -1.48479,0.6109 -2.55813,0.0391 -5.16549,-2.75176 -6.87232,-7.356 -20.58882,-6.64264 -25.82114,1.34289 -1.04125,1.58916 -3.00312,2.61712 -6.47964,3.39513 -4.53713,1.01536 -5.45575,0.92124 -10.19986,-1.04508 -4.57371,-1.8957 -5.66235,-2.02652 -8.86902,-1.06578 -5.06041,1.51614 -8.33277,4.32973 -9.10036,7.82453 -0.53722,2.44597 -0.80073,2.68701 -1.5242,1.39426 -1.36029,-2.43072 -6.96008,-2.02947 -9.6834,0.69385 -1.89948,1.89948 -2.43024,2.04786 -3.35208,0.93712 z m 388.27364,-2.91817 c -1.15969,-0.22337 -3.05736,-0.22337 -4.21704,0 -1.15969,0.22336 -0.21086,0.40611 2.10852,0.40611 2.31937,0 3.26821,-0.18275 2.10852,-0.40611 z"
       id="path8296"
       transform="scale(0.26458333)" />
    <path
       style="fill:#008000;fill-opacity:0.234818;stroke-width:0.937121"
       d="m 284.96184,498.59135 c -18.97586,-0.38491 -25.32162,-0.80187 -25.61463,-1.68307 -0.48328,-1.4534 -5.57109,-1.55772 -6.04898,-0.12403 -0.24068,0.72203 -2.48454,0.44307 -7.22362,-0.89805 -3.78098,-1.06999 -7.10293,-2.17386 -7.38213,-2.45306 -0.27919,-0.27919 1.88204,-0.50762 4.80273,-0.50762 2.92069,0 5.31035,0.4217 5.31035,0.93712 0,1.35347 2.58259,1.15482 3.04577,-0.23428 0.30546,-0.91608 10.49894,-1.1714 46.76699,-1.1714 43.95337,0 46.4674,0.091 48.11819,1.74199 1.46334,1.46352 2.57618,1.63931 6.96127,1.09968 8.54402,-1.05145 22.69345,-0.86921 27.71037,0.35688 2.94865,0.72063 7.52277,0.93218 12.33916,0.57067 9.42264,-0.70725 17.18014,0.1842 17.18014,1.97423 0,1.07496 -8.23188,1.25371 -50.37024,1.09378 -27.70363,-0.10514 -61.72155,-0.42142 -75.59537,-0.70284 z m 49.78759,-3.42896 c 0.19111,-0.58308 -1.22344,-1.30174 -3.20765,-1.62965 -5.03128,-0.83147 -27.90146,-0.75065 -27.05775,0.0956 0.70729,0.70944 23.44583,2.93034 27.65301,2.7009 1.2488,-0.0681 2.42437,-0.59319 2.61239,-1.16687 z m -53.82965,-0.0402 c -0.63446,-0.2567 -1.89957,-0.27233 -2.81136,-0.0347 -0.91179,0.23761 -0.39268,0.44763 1.15357,0.46673 1.54624,0.0191 2.29225,-0.1753 1.65779,-0.432 z m -15.93105,-0.93712 c -0.63446,-0.2567 -1.89958,-0.27233 -2.81136,-0.0347 -0.91179,0.2376 -0.39269,0.44763 1.15356,0.46673 1.54625,0.0191 2.29226,-0.1753 1.6578,-0.432 z m 23.42802,-0.93712 c -0.63446,-0.2567 -1.89958,-0.27233 -2.81136,-0.0347 -0.91179,0.2376 -0.39269,0.44763 1.15356,0.46673 1.54625,0.0191 2.29226,-0.1753 1.6578,-0.432 z"
       id="path11858"
       transform="scale(0.26458333)" />
    <path
       style="fill:#008000;fill-opacity:0.234818;stroke-width:0.937121"
       d="m 321.90098,498.63634 c -36.45072,-0.35827 -60.05181,-0.94251 -60.91285,-1.50789 -0.77312,-0.50766 -4.35761,-0.96215 -7.96553,-1.00998 -4.01021,-0.0532 -7.83465,-0.69271 -9.83976,-1.64545 l -3.27993,-1.55848 4.21705,0.57885 c 2.31937,0.31836 5.48215,0.46241 7.0284,0.32009 7.92986,-0.72986 54.15438,-0.0675 59.27721,0.84939 8.52091,1.52508 23.84163,1.80852 24.31673,0.44987 0.21015,-0.60098 -0.37923,-1.29005 -1.30973,-1.53125 -0.9305,-0.24121 0.70553,-0.48748 3.63562,-0.54726 2.93009,-0.0598 6.51458,0.41636 7.96552,1.05811 1.70513,0.75417 7.775,1.19462 17.16346,1.24543 20.06616,0.10859 46.0993,1.3909 47.79316,2.35413 0.83872,0.47694 -2.98272,0.81084 -9.47469,0.82785 -5.9842,0.0157 -12.73147,0.17991 -14.99393,0.36499 -2.26246,0.18507 -30.89179,0.0733 -63.62073,-0.2484 z m -40.99903,-3.5201 c -0.64427,-0.25997 -1.69853,-0.25997 -2.3428,0 -0.64428,0.25997 -0.11714,0.47267 1.1714,0.47267 1.28854,0 1.81567,-0.2127 1.1714,-0.47267 z m -15.93106,-0.93712 c -0.64427,-0.25997 -1.69853,-0.25997 -2.3428,0 -0.64427,0.25997 -0.11714,0.47267 1.1714,0.47267 1.28854,0 1.81567,-0.2127 1.1714,-0.47267 z"
       id="path11897"
       transform="scale(0.26458333)" />
    <path
       style="fill:#008000;fill-opacity:0.234818;stroke-width:0.937121"
       d="m 282.07335,497.50792 c -20.83005,-0.6921 -36.55408,-1.9336 -37.58828,-2.9678 -1.07328,-1.07327 62.01295,-0.0601 75.30859,1.20946 13.31746,1.27166 13.36056,1.26947 15.26472,-0.7744 2.26438,-2.43054 1.40041,-2.36327 9.1485,-0.71235 4.04098,0.86102 15.29321,1.53655 31.594,1.89676 13.92474,0.3077 26.57587,0.93478 28.11362,1.39351 3.35096,0.99962 -91.45358,0.96447 -121.84115,-0.0452 z m -1.1714,-2.39168 c -0.64427,-0.25997 -1.69853,-0.25997 -2.3428,0 -0.64428,0.25997 -0.11714,0.47267 1.1714,0.47267 1.28854,0 1.81567,-0.2127 1.1714,-0.47267 z"
       id="path11936"
       transform="scale(0.26458333)" />
    <path
       style="fill:#004300;fill-opacity:0.234818;stroke-width:0.937121"
       d="m 267.07942,496.56902 c -7.73125,-0.42028 -14.90022,-0.93186 -15.93106,-1.13684 -4.37552,-0.87006 46.5512,-0.50527 63.50562,0.45489 16.77491,0.94999 18.68413,0.90394 20.22188,-0.4877 1.97141,-1.7841 4.43891,-1.90744 11.46825,-0.57326 2.7919,0.5299 14.98623,1.30857 27.09851,1.73036 18.11968,0.63099 11.89205,0.76776 -35.14203,0.7718 -31.4404,0.003 -63.48993,-0.33896 -71.22117,-0.75925 z"
       id="path11975"
       transform="scale(0.26458333)" />
    <path
       style="fill:#004300;fill-opacity:0.234818;stroke-width:0.165661"
       d="m 301.66888,499.28922 c -45.35951,-0.65956 -51.0123,-0.99387 -57.23591,-3.38491 -0.86558,-0.33254 -2.20744,-0.74269 -2.9819,-0.91144 -3.09185,-0.67368 -6.90733,-0.85186 -7.51112,-0.35075 -0.64073,0.53176 0.44561,1.16535 2.0443,1.1923 0.41001,0.007 0.89457,0.0708 1.0768,0.14208 l 0.33132,0.1295 -0.33132,0.0985 c -0.73467,0.21849 -6.62213,0.63934 -13.25289,0.94734 -7.23079,0.33587 -13.51551,0.88135 -17.14592,1.48817 -2.45321,0.41005 -5.3676,0.7066 -6.2123,0.63213 l -0.66264,-0.0584 1.15963,-0.37731 c 4.29569,-1.39772 25.85839,-4.83265 36.64648,-5.83777 2.04796,-0.1908 3.04454,-0.1431 1.73701,0.0831 -0.41812,0.0724 -0.68654,0.2013 -0.64961,0.31207 0.0806,0.24182 2.91587,1.2386 6.44221,2.26486 3.4187,0.99494 5.7173,1.50013 6.88929,1.51413 0.7551,0.009 0.97126,-0.0595 1.35872,-0.43072 0.448,-0.42921 0.46325,-0.43191 0.55074,-0.0974 0.0548,0.20942 0.39645,0.47965 0.87305,0.69048 0.99102,0.43837 2.60094,0.38489 3.3039,-0.10975 0.25405,-0.17876 0.56765,-0.39958 0.69688,-0.49069 0.1703,-0.12008 0.29667,-0.0826 0.45926,0.1361 0.12336,0.16597 0.58069,0.40902 1.01629,0.54011 2.31378,0.69635 14.80698,1.13938 42.18462,1.49594 7.17105,0.0934 8.73863,0.15395 8.73863,0.33754 0,0.14013 -0.17021,0.21368 -0.45557,0.19684 -0.25056,-0.0148 -4.33204,-0.0833 -9.06995,-0.15215 z"
       id="path12606"
       transform="scale(0.26458333)" />
    <path
       style="fill:#004300;fill-opacity:0.234818;stroke-width:0.165661"
       d="m 200.6098,499.12754 c -0.26417,-0.42744 10.82609,-2.5392 21.62458,-4.11767 9.28489,-1.35721 17.64038,-2.30946 16.60753,-1.89269 -0.1139,0.046 -0.20708,0.14494 -0.20708,0.21995 0,0.23942 2.35686,1.12829 5.4906,2.07073 5.69151,1.71166 8.31304,2.11382 9.20509,1.41213 l 0.41826,-0.32901 0.31946,0.40613 c 0.67548,0.85873 2.83796,1.02 4.10754,0.30633 l 0.78725,-0.44253 0.56246,0.34606 c 0.30935,0.19034 1.00974,0.42444 1.55642,0.52022 3.15203,0.55228 13.96338,0.91048 40.39814,1.33849 5.18073,0.0839 9.46721,0.20403 9.52551,0.26701 0.2673,0.28873 -41.5459,-0.48347 -50.25497,-0.9281 -8.55174,-0.4366 -11.68045,-0.89476 -15.93429,-2.33335 -3.24925,-1.09886 -5.09345,-1.4635 -8.00374,-1.5825 -2.24207,-0.0917 -2.42932,-0.076 -2.81087,0.23523 -0.34511,0.28152 -0.3753,0.37379 -0.19382,0.59246 0.27922,0.33644 1.01315,0.55754 2.31079,0.69615 0.57505,0.0614 1.01394,0.14329 0.97531,0.18192 -0.20874,0.20874 -4.92579,0.56028 -14.19695,1.05805 -8.32081,0.44674 -10.33504,0.62576 -16.73177,1.48708 -3.99347,0.53773 -5.44583,0.66528 -5.55545,0.48791 z"
       id="path12645"
       transform="scale(0.26458333)" />
    <path
       style="fill:#004300;fill-opacity:0.234818;stroke-width:0.165661"
       d="m 200.69844,499.06781 c 0,-0.12503 4.16489,-1.06137 7.37192,-1.65734 7.22041,-1.34178 15.68161,-2.62736 23.93803,-3.63709 6.13411,-0.75018 6.79472,-0.79983 6.68048,-0.50213 -0.11396,0.29698 0.69068,0.64065 4.0377,1.72456 5.89583,1.9093 9.28148,2.5278 10.47073,1.91281 0.5252,-0.27159 0.56037,-0.26961 0.90233,0.0507 0.85597,0.80172 2.82322,0.94081 4.07163,0.28786 l 0.7339,-0.38384 0.83989,0.37765 c 1.86073,0.83668 8.16402,1.15131 32.81247,1.63784 5.83127,0.1151 9.03682,0.21964 7.12343,0.23232 -5.43849,0.036 -29.34254,-0.48248 -37.35658,-0.8103 -9.35847,-0.38281 -12.92551,-0.88156 -17.8914,-2.50158 -3.0495,-0.99483 -4.69888,-1.30037 -7.62041,-1.41164 -2.48576,-0.0947 -2.578,-0.0863 -2.88862,0.26085 -0.31739,0.35474 -0.31739,0.36211 0,0.6789 0.20691,0.20653 0.79155,0.40072 1.64616,0.54678 l 1.32529,0.22651 -0.91114,0.10841 c -1.7616,0.2096 -5.12296,0.44149 -12.42458,0.85712 -8.47744,0.48257 -10.93317,0.69561 -17.2176,1.49365 -4.29789,0.54578 -5.64363,0.66691 -5.64363,0.50798 z"
       id="path12684"
       transform="scale(0.26458333)" />
    <path
       style="fill:#004300;fill-opacity:0.234818;stroke-width:0.165661"
       d="m 201.52674,498.87301 c 3.01299,-0.97976 17.60576,-3.40853 29.65334,-4.9354 6.49628,-0.82332 7.25365,-0.87628 7.5104,-0.52515 0.11395,0.15584 1.09853,0.61689 2.18795,1.02454 1.99081,0.74495 1.96607,0.7896 -0.17284,0.31183 -1.25511,-0.28035 -5.73286,-0.53074 -6.41766,-0.35887 -0.2314,0.0581 -0.46913,0.23172 -0.52828,0.38588 -0.1811,0.47194 0.42368,0.87631 1.65387,1.10581 l 1.15055,0.21465 -1.0768,0.11004 c -1.69447,0.17316 -5.16822,0.40976 -12.59025,0.85752 -8.32069,0.50198 -9.5274,0.60479 -15.65497,1.33383 -2.6423,0.31438 -5.17691,0.60447 -5.63248,0.64466 l -0.8283,0.0731 z"
       id="path12723"
       transform="scale(0.26458333)" />
    <path
       style="fill:#004300;fill-opacity:0.234818;stroke-width:0.165661"
       d="m 201.94089,498.78958 c 0.94892,-0.29252 6.97965,-1.46289 10.93364,-2.12186 7.38956,-1.23153 16.9309,-2.57972 22.94145,-3.24161 2.19953,-0.24221 2.24402,-0.24057 2.89907,0.107 0.36589,0.19414 1.18709,0.56706 1.82488,0.82871 0.90779,0.37243 1.02546,0.45541 0.54183,0.38214 -2.82099,-0.42742 -6.51259,-0.55213 -7.09633,-0.23972 -0.74958,0.40116 -0.15295,1.04892 1.26255,1.37076 l 0.98476,0.2239 -1.15962,0.1109 c -0.6378,0.061 -5.25786,0.37233 -10.2668,0.69184 -10.49846,0.66969 -11.24284,0.73226 -17.83138,1.49885 -5.08067,0.59114 -5.8932,0.65395 -5.03405,0.38909 z"
       id="path12762"
       transform="scale(0.26458333)" />
    <path
       style="fill:#004300;fill-opacity:0.234818;stroke-width:0.165661"
       d="m 248.69064,493.59339 c -0.57461,-0.42448 -2.48527,-0.66121 -5.36732,-0.665 -1.567,-0.002 -2.79704,-0.0517 -2.73341,-0.11023 0.15621,-0.14378 9.28668,-0.60374 16.01915,-0.80699 8.80114,-0.2657 27.82068,-0.49034 41.70519,-0.49258 l 12.88015,-0.002 v 0.38697 0.38698 l -22.33405,0.11438 c -28.65626,0.14675 -35.62563,0.34529 -36.81656,1.04879 -0.41014,0.24227 -0.45594,0.23286 -0.86683,-0.17802 -0.68794,-0.68795 -1.97584,-0.53148 -2.13292,0.25913 -0.0474,0.23856 -0.0984,0.24702 -0.3534,0.0586 z"
       id="path12801"
       transform="scale(0.26458333)" />
    <path
       style="fill:#004300;fill-opacity:0.234818;stroke-width:0.165661"
       d="m 248.32263,493.37749 c -0.35064,-0.18392 -1.40527,-0.31225 -3.64117,-0.44305 l -3.14756,-0.18414 3.89304,-0.20438 c 10.50163,-0.55133 23.00127,-0.80061 48.49729,-0.96719 l 17.27017,-0.11284 v 0.33751 c 0,0.33056 -0.10989,0.33951 -5.34257,0.43546 -2.93842,0.0539 -13.28188,0.1387 -22.98548,0.18849 -22.56158,0.11578 -29.01402,0.31344 -30.75232,0.94202 -0.45204,0.16346 -0.58054,0.14111 -0.97561,-0.16966 -0.62234,-0.48953 -1.47981,-0.47224 -1.95398,0.0394 -0.35138,0.37915 -0.39075,0.38547 -0.86181,0.13839 z"
       id="path12840"
       transform="scale(0.26458333)" />
    <path
       style="fill:#004300;fill-opacity:0.234818;stroke-width:0.165661"
       d="m 306.0589,494.98347 c -7.65316,-0.31705 -14.28966,-0.47531 -37.43941,-0.89284 -2.41451,-0.0435 -7.22282,-0.0885 -10.68514,-0.0998 -4.74436,-0.0156 -6.07067,-0.0614 -5.38399,-0.18623 1.27526,-0.23178 27.30036,-0.2228 37.35658,0.0129 14.79198,0.34667 21.28746,0.71241 21.28746,1.19863 0,0.1592 -0.5962,0.15541 -5.1355,-0.0326 z"
       id="path12879"
       transform="scale(0.26458333)" />
    <path
       style="fill:#004300;fill-opacity:0.234818;stroke-width:0.165661"
       d="m 298.85264,493.9799 c -8.59074,-0.29323 -9.68614,-0.34956 -9.59717,-0.49352 0.1578,-0.25533 -0.73218,-0.47891 -1.90635,-0.47891 -1.39287,0 -2.20423,0.15192 -2.11087,0.39526 0.0518,0.13487 -4.42399,0.18455 -16.62812,0.18455 -9.18441,0 -16.60627,-0.0519 -16.49303,-0.11521 0.37743,-0.21119 2.91393,-0.4576 5.70642,-0.55434 1.51877,-0.0526 3.02232,-0.13053 3.34122,-0.17315 0.3189,-0.0426 11.70603,-0.1237 25.30474,-0.18018 22.01655,-0.0914 24.72492,-0.0752 24.72492,0.14816 0,0.2121 -0.4672,0.26265 -3.02332,0.32711 -1.98578,0.0501 -3.15733,0.14817 -3.41384,0.28585 -0.48788,0.26188 -0.3156,0.43537 0.63902,0.64353 0.66077,0.14409 0.55725,0.16165 -0.91114,0.15456 -0.91113,-0.004 -3.44575,-0.0691 -5.63248,-0.14371 z"
       id="path12918"
       transform="scale(0.26458333)" />
    <path
       style="fill:#004300;fill-opacity:0.234818;stroke-width:0.165661"
       d="m 297.36169,493.8838 c -5.62453,-0.18675 -7.85716,-0.35234 -8.22508,-0.61005 -0.49792,-0.34875 -3.08821,-0.36325 -4.03384,-0.0226 -0.56059,0.20196 -3.12458,0.23686 -16.64894,0.22663 -15.70627,-0.0119 -17.7272,-0.0944 -11.59628,-0.4734 3.22539,-0.1994 48.61172,-0.5525 51.82041,-0.40316 1.30381,0.0607 2.3356,0.14529 2.29287,0.18802 -0.0427,0.0427 -1.4368,0.14109 -3.09793,0.21858 -2.3592,0.11005 -3.07605,0.1967 -3.27523,0.39589 -0.22956,0.22955 -0.21483,0.27104 0.14755,0.41584 0.38984,0.15578 -3.58481,0.19034 -7.38353,0.0642 z"
       id="path12957"
       transform="scale(0.26458333)" />
    <path
       style="fill:#004300;fill-opacity:0.234818;stroke-width:0.165661"
       d="m 292.72379,493.6457 c -1.36637,-0.0778 -2.86879,-0.25324 -3.33872,-0.38985 -0.94832,-0.27569 -3.33194,-0.33153 -4.14899,-0.0972 -0.85353,0.24479 -13.54086,0.37786 -22.66322,0.23769 -10.97801,-0.16867 -9.07814,-0.34613 5.71531,-0.53383 11.15483,-0.14154 42.29981,-0.21486 41.99509,-0.0989 -0.0911,0.0347 -1.34637,0.13734 -2.78945,0.22813 -2.46543,0.1551 -3.22314,0.33134 -2.99709,0.69711 0.11271,0.18236 -8.35785,0.1513 -11.77293,-0.0432 z"
       id="path12996"
       transform="scale(0.26458333)" />
    <path
       style="fill:#004300;fill-opacity:0.234818;stroke-width:0.165661"
       d="m 310.12545,511.10829 c -0.26903,-0.0397 -0.56722,-0.17804 -0.66264,-0.30735 -0.2663,-0.36081 -2.40171,-0.70225 -7.21411,-1.15351 -4.83963,-0.45381 -9.92945,-1.03543 -14.49535,-1.65641 -1.64005,-0.22305 -4.32376,-0.58817 -5.9638,-0.81138 -4.29787,-0.58493 -7.32163,-0.87963 -11.18213,-1.08983 -3.85991,-0.21016 -8.20808,-0.69791 -9.48812,-1.0643 -4.94924,-1.41665 -30.08479,-2.30441 -65.47353,-2.31246 -28.95041,-0.007 -39.3578,0.3157 -50.6923,1.56978 -6.55502,0.72527 -22.849,2.8208 -25.2219,3.24373 -0.45995,0.082 -0.5384,0.0477 -0.5384,-0.23537 0,-0.39734 -0.26662,-0.34209 5.38399,-1.11573 23.09757,-3.16237 42.71729,-4.25739 76.61826,-4.27621 34.62808,-0.0192 53.89678,1.23316 92.35607,6.00278 7.74285,0.96026 12.63631,1.46893 15.55326,1.61677 l 2.08965,0.10591 v 0.80274 c 0,0.86311 0.0311,0.84333 -1.06895,0.68084 z"
       id="path13035"
       transform="scale(0.26458333)" />
    <path
       style="fill:#004300;fill-opacity:0.234818;stroke-width:0.165661"
       d="m 119.19317,506.59168 c 0,-0.0911 0.066,-0.16566 0.14655,-0.16566 0.0806,0 2.48477,-0.3324 5.34257,-0.73866 13.07475,-1.85866 27.60972,-2.99721 57.21361,-4.48162 15.88034,-0.79628 23.17816,-1.4281 25.54158,-2.21131 2.13202,-0.70652 11.44569,-1.26196 23.49411,-1.40112 3.00675,-0.0347 4.32408,-0.0352 2.92741,-9.6e-4 -2.49336,0.061 -2.5326,0.0677 -2.16411,0.36607 0.3663,0.29662 0.24462,0.30621 -5.08101,0.40058 -5.956,0.10554 -7.67369,0.23624 -11.41246,0.86839 -2.33551,0.39488 -2.72751,0.49126 -2.56158,0.62982 0.038,0.0317 1.6718,-0.0419 3.63074,-0.1636 4.79558,-0.29787 7.58225,-0.0874 7.95036,0.60038 0.19399,0.36248 1.32347,0.83087 2.00355,0.83087 0.51246,0 1.14589,-0.25505 1.32908,-0.53515 0.0555,-0.0848 0.14412,0.0621 0.19699,0.32642 0.0919,0.45932 0.3329,0.6256 1.60725,1.10877 0.13667,0.0518 -1.16028,0.0508 -2.8821,-0.002 -12.4261,-0.38279 -42.07291,-0.33397 -53.774,0.0885 -13.99192,0.50525 -24.41942,1.19757 -35.11439,2.33137 -5.02914,0.53315 -14.84136,1.78362 -16.89221,2.15274 -1.1408,0.20532 -1.50194,0.20444 -1.50194,-0.004 z"
       id="path13074"
       transform="scale(0.26458333)" />
    <path
       style="fill:#004300;fill-opacity:0.234818;stroke-width:0.165661"
       d="m 166.82074,502.11708 c 1.09336,-0.0809 6.34896,-0.37503 11.67911,-0.65351 11.19752,-0.58503 16.4073,-0.90184 20.70764,-1.25925 3.35257,-0.27864 7.36821,-0.81405 8.0502,-1.07334 1.63023,-0.61981 8.60112,-1.11343 19.95307,-1.41291 3.61485,-0.0954 4.0897,-0.0778 4.28605,0.15882 0.12145,0.14634 0.19306,0.26795 0.15912,0.27025 -0.0339,0.002 -2.60388,0.0734 -5.711,0.15795 -3.10712,0.0846 -6.31266,0.23262 -7.12343,0.329 -2.79754,0.33257 -5.87178,0.88609 -6.15744,1.10866 -0.24204,0.18858 0.0864,0.20388 2.11557,0.0986 1.32115,-0.0685 3.70667,-0.12007 5.30116,-0.11452 3.08713,0.0108 3.47786,0.0917 4.5261,0.93789 0.3741,0.30198 0.67175,0.37702 1.49095,0.37589 0.56295,-7.8e-4 1.154,-0.0647 1.31345,-0.14197 0.21471,-0.1041 0.28991,-0.0709 0.28991,0.12809 0,0.14776 0.24228,0.42143 0.5384,0.60816 l 0.53839,0.33951 -5.7153,-0.12676 c -8.15417,-0.18087 -39.73036,-0.1195 -46.79927,0.0909 -3.28009,0.0977 -7.19383,0.21088 -8.69721,0.25161 -2.67573,0.0725 -2.69146,0.071 -0.74547,-0.0731 z"
       id="path13113"
       transform="scale(0.26458333)" />
    <path
       style="fill:#004300;fill-opacity:0.234818;stroke-width:0.165661"
       d="m 177.58871,501.61616 c 2.91564,-0.16936 7.98487,-0.46302 11.26496,-0.65257 10.23904,-0.5917 15.6743,-1.11979 18.64236,-1.81126 0.77145,-0.17973 2.11083,-0.40451 2.97641,-0.49952 5.26689,-0.5781 20.69336,-1.10069 20.93531,-0.7092 0.0449,0.0726 -2.65309,0.2219 -5.99544,0.33182 -3.34235,0.10992 -6.85975,0.31169 -7.81644,0.44838 -2.88828,0.41267 -4.60027,0.76226 -4.91756,1.00418 -0.25739,0.19624 0.39212,0.21445 4.50341,0.12627 5.30411,-0.11376 6.2057,-0.0214 7.19751,0.73746 0.52615,0.40256 0.72773,0.45031 1.90117,0.45031 1.21773,0 1.34624,0.0336 1.77785,0.4653 l 0.46524,0.46531 -1.19804,-0.13228 c -1.3895,-0.15342 -44.53678,-0.16846 -50.81354,-0.0177 l -4.22435,0.10145 z"
       id="path13152"
       transform="scale(0.26458333)" />
    <path
       style="fill:#004300;fill-opacity:0.234818;stroke-width:0.165661"
       d="m 241.90664,503.50006 c 0.11389,-0.046 0.30026,-0.046 0.41415,0 0.11389,0.046 0.0207,0.0836 -0.20708,0.0836 -0.22778,0 -0.32096,-0.0376 -0.20707,-0.0836 z"
       id="path13191"
       transform="scale(0.26458333)" />
    <path
       style="fill:#004300;fill-opacity:0.234818;stroke-width:0.165661"
       d="m 259.09398,505.01326 c -0.26193,-0.0969 -8.04136,-0.55312 -12.59025,-0.7383 -27.91858,-1.13654 -76.24897,-1.01482 -98.07137,0.24698 -2.27784,0.13171 -4.84973,0.27524 -5.71531,0.31896 l -1.57378,0.0795 1.73944,-0.23728 c 2.81177,-0.38356 8.14427,-0.89077 11.26495,-1.07149 23.03833,-1.33416 79.98673,-0.95502 100.30781,0.6678 2.31401,0.18479 5.91266,0.63212 6.03011,0.74956 0.086,0.086 -1.1547,0.072 -1.3916,-0.0157 z"
       id="path13230"
       transform="scale(0.26458333)" />
    <path
       style="fill:#004300;fill-opacity:0.234818;stroke-width:0.165661"
       d="m 119.23411,536.62212 0.0419,-28.44792 2.65058,-0.38009 c 5.1595,-0.73986 15.76611,-2.1924 17.80857,-2.43881 10.48813,-1.26537 45.00201,-1.99492 76.06602,-1.60787 23.20879,0.28918 34.70301,0.67276 43.37564,1.44752 2.60473,0.23269 30.98681,3.60173 45.22548,5.3684 3.6901,0.45785 6.72791,0.83246 6.75069,0.83248 0.0228,1e-5 0.0414,8.26578 0.0414,18.36838 v 18.36835 l -2.36067,0.10722 c -1.29837,0.059 -4.96984,0.21841 -8.15881,0.35432 -32.49704,1.38499 -56.37062,2.95232 -87.05492,5.71527 -30.90351,2.78269 -66.9964,6.88256 -90.41378,10.2703 -1.86433,0.26971 -3.53016,0.49038 -3.70184,0.49038 -0.30471,0 -0.31116,-0.67803 -0.27027,-28.44793 z m 11.90358,-25.27338 c 0.6094,-0.4097 0.79717,-0.97892 0.45779,-1.38784 -0.25331,-0.30523 -1.63418,-0.23419 -2.04299,0.1051 -0.32973,0.27365 -0.32614,1.06838 0.006,1.40085 0.36553,0.36552 0.92133,0.32395 1.57887,-0.11811 z m 143.84878,0.18763 c 0.75761,-0.34519 0.75761,-1.26114 0,-1.60633 -0.9648,-0.43959 -2.39111,0.0395 -2.39111,0.80316 0,0.76367 1.42631,1.24276 2.39111,0.80317 z"
       id="path13269"
       transform="scale(0.26458333)" />
    <path
       style="fill:#004300;fill-opacity:0.234818;stroke-width:0.05857"
       d="m 182.06499,558.06321 c 0,-0.22133 0.0124,-0.23892 0.19036,-0.26967 0.20615,-0.0356 7.07417,-0.75994 10.82081,-1.14117 10.6642,-1.08511 21.66827,-2.11603 31.27641,-2.93015 0.78923,-0.0669 1.88302,-0.15959 2.43065,-0.20603 7.31617,-0.62051 22.01994,-1.72777 22.9437,-1.72777 0.21302,0 0.22076,0.007 0.22076,0.20388 0,0.2513 0.0486,0.23938 -1.31783,0.32316 -9.78058,0.59969 -29.61323,2.26786 -46.29962,3.89437 -6.20883,0.60521 -19.49156,1.96704 -20.0456,2.05521 l -0.21964,0.0349 z"
       id="path13308"
       transform="scale(0.26458333)" />
    <path
       style="fill:#004300;fill-opacity:0.234818;stroke-width:0.05857"
       d=""
       id="path13347"
       transform="scale(0.26458333)" />
    <path
       style="fill:#004300;fill-opacity:0.234818;stroke-width:0.05857"
       d="m 182.075,557.63627 c 0.0191,-0.13376 0.0412,-0.13715 2.68421,-0.41264 15.61927,-1.62803 32.40546,-3.18587 47.50031,-4.40824 6.18833,-0.50113 17.05028,-1.31982 17.51059,-1.31982 0.1326,0 0.17757,0.027 0.17757,0.10649 0,0.0981 -0.1509,0.11679 -1.91817,0.23729 -14.00918,0.9552 -32.01419,2.48405 -48.74492,4.13905 -5.71984,0.5658 -16.02726,1.63401 -16.97531,1.75924 -0.23903,0.0316 -0.25245,0.0258 -0.23428,-0.10137 z"
       id="path13386"
       transform="scale(0.26458333)" />
    <path
       style="fill:#004300;fill-opacity:0.234818;stroke-width:0.11714"
       d="m 177.03758,605.05788 c 18.70524,-0.0163 49.2788,-0.0163 67.94125,0 18.66245,0.0163 3.35817,0.0297 -34.00952,0.0297 -37.36769,0 -52.63697,-0.0134 -33.93173,-0.0297 z"
       id="path13425"
       transform="scale(0.26458333)" />
    <path
       style="fill:#004300;fill-opacity:0.234818;stroke-width:0.11714"
       d="m 143.08663,604.73574 v -0.29285 h 67.88268 67.88269 v 0.29285 0.29285 h -67.88269 -67.88268 z"
       id="path13464"
       transform="scale(0.26458333)" />
    <path
       style="fill:#004300;fill-opacity:0.234818;stroke-width:0.11714"
       d="m 143.08663,604.73574 v -0.29285 h 67.88268 67.88269 v 0.29285 0.29285 h -67.88269 -67.88268 z"
       id="path13503"
       transform="scale(0.26458333)" />
    <use
       id="use14056"
       inkscape:spray-origin="#path13503"
       xlink:href="#path13503"
       x="0"
       y="0"
       width="100%"
       height="100%"
       transform="translate(-21.484737,-46.919281)" />
    <use
       id="use14058"
       inkscape:spray-origin="#path13503"
       xlink:href="#path13503"
       x="0"
       y="0"
       width="100%"
       height="100%"
       transform="translate(-19.552116,-41.451902)" />
    <use
       id="use14060"
       inkscape:spray-origin="#path13503"
       xlink:href="#path13503"
       x="0"
       y="0"
       width="100%"
       height="100%"
       transform="translate(-13.762793,-49.324063)" />
    <use
       id="use14062"
       inkscape:spray-origin="#path13503"
       xlink:href="#path13503"
       x="0"
       y="0"
       width="100%"
       height="100%"
       transform="translate(-3.3122854,-40.178316)" />
    <use
       id="use14064"
       inkscape:spray-origin="#path13503"
       xlink:href="#path13503"
       x="0"
       y="0"
       width="100%"
       height="100%"
       transform="translate(-10.62061,-46.815015)" />
    <use
       id="use14066"
       inkscape:spray-origin="#path13503"
       xlink:href="#path13503"
       x="0"
       y="0"
       width="100%"
       height="100%"
       transform="translate(-2.1450794,-49.604379)" />
    <use
       id="use14068"
       inkscape:spray-origin="#path13503"
       xlink:href="#path13503"
       x="0"
       y="0"
       width="100%"
       height="100%"
       transform="translate(-9.307945,-43.587464)" />
    <use
       id="use14070"
       inkscape:spray-origin="#path13503"
       xlink:href="#path13503"
       x="0"
       y="0"
       width="100%"
       height="100%"
       transform="translate(-2.2772383,-46.460379)" />
    <use
       id="use14072"
       inkscape:spray-origin="#path13503"
       xlink:href="#path13503"
       x="0"
       y="0"
       width="100%"
       height="100%"
       transform="translate(5.7357212,-41.739987)" />
    <use
       id="use14074"
       inkscape:spray-origin="#path13503"
       xlink:href="#path13503"
       x="0"
       y="0"
       width="100%"
       height="100%"
       transform="translate(-1.7711963,-36.34847)" />
    <use
       id="use14076"
       inkscape:spray-origin="#path13503"
       xlink:href="#path13503"
       x="0"
       y="0"
       width="100%"
       height="100%"
       transform="translate(3.1689971,-40.215395)" />
    <use
       id="use14078"
       inkscape:spray-origin="#path13503"
       xlink:href="#path13503"
       x="0"
       y="0"
       width="100%"
       height="100%"
       transform="translate(11.029929,-39.561234)" />
    <use
       id="use14080"
       inkscape:spray-origin="#path13503"
       xlink:href="#path13503"
       x="0"
       y="0"
       width="100%"
       height="100%"
       transform="translate(7.2043322,-47.435383)" />
    <use
       id="use14082"
       inkscape:spray-origin="#path13503"
       xlink:href="#path13503"
       x="0"
       y="0"
       width="100%"
       height="100%"
       transform="translate(15.757063,-40.480565)" />
    <use
       id="use14084"
       inkscape:spray-origin="#path13503"
       xlink:href="#path13503"
       x="0"
       y="0"
       width="100%"
       height="100%"
       transform="translate(22.948651,-45.793471)" />
    <use
       id="use14086"
       inkscape:spray-origin="#path13503"
       xlink:href="#path13503"
       x="0"
       y="0"
       width="100%"
       height="100%"
       transform="translate(20.563068,-36.684751)" />
    <use
       id="use14088"
       inkscape:spray-origin="#path13503"
       xlink:href="#path13503"
       x="0"
       y="0"
       width="100%"
       height="100%"
       transform="translate(26.865671,-46.527113)" />
    <use
       id="use14090"
       inkscape:spray-origin="#path13503"
       xlink:href="#path13503"
       x="0"
       y="0"
       width="100%"
       height="100%"
       transform="translate(14.37971,-47.732687)" />
    <use
       id="use14092"
       inkscape:spray-origin="#path13503"
       xlink:href="#path13503"
       x="0"
       y="0"
       width="100%"
       height="100%"
       transform="translate(28.882286,-48.341316)" />
    <use
       id="use14094"
       inkscape:spray-origin="#path13503"
       xlink:href="#path13503"
       x="0"
       y="0"
       width="100%"
       height="100%"
       transform="translate(25.269493,-48.045403)" />
    <use
       id="use14096"
       inkscape:spray-origin="#path13503"
       xlink:href="#path13503"
       x="0"
       y="0"
       width="100%"
       height="100%"
       transform="translate(34.964243,-51.320073)" />
    <use
       id="use14098"
       inkscape:spray-origin="#path13503"
       xlink:href="#path13503"
       x="0"
       y="0"
       width="100%"
       height="100%"
       transform="translate(28.463404,-39.150243)" />
    <use
       id="use14100"
       inkscape:spray-origin="#path13503"
       xlink:href="#path13503"
       x="0"
       y="0"
       width="100%"
       height="100%"
       transform="translate(35.42466,-40.893188)" />
    <use
       id="use14102"
       inkscape:spray-origin="#path13503"
       xlink:href="#path13503"
       x="0"
       y="0"
       width="100%"
       height="100%"
       transform="translate(28.549802,-42.727251)" />
    <use
       id="use14104"
       inkscape:spray-origin="#path13503"
       xlink:href="#path13503"
       x="0"
       y="0"
       width="100%"
       height="100%"
       transform="translate(40.120933,-49.736199)" />
    <use
       id="use14106"
       inkscape:spray-origin="#path13503"
       xlink:href="#path13503"
       x="0"
       y="0"
       width="100%"
       height="100%"
       transform="translate(43.786743,-49.149821)" />
    <use
       id="use14108"
       inkscape:spray-origin="#path13503"
       xlink:href="#path13503"
       x="0"
       y="0"
       width="100%"
       height="100%"
       transform="translate(51.177666,-40.631708)" />
    <use
       id="use14110"
       inkscape:spray-origin="#path13503"
       xlink:href="#path13503"
       x="0"
       y="0"
       width="100%"
       height="100%"
       transform="translate(52.24449,-47.788067)" />
    <use
       id="use14112"
       inkscape:spray-origin="#path13503"
       xlink:href="#path13503"
       x="0"
       y="0"
       width="100%"
       height="100%"
       transform="translate(50.756744,-38.073276)" />
    <use
       id="use14114"
       inkscape:spray-origin="#path13503"
       xlink:href="#path13503"
       x="0"
       y="0"
       width="100%"
       height="100%"
       transform="translate(50.251073,-50.059294)" />
    <use
       id="use14116"
       inkscape:spray-origin="#path13503"
       xlink:href="#path13503"
       x="0"
       y="0"
       width="100%"
       height="100%"
       transform="translate(51.308633,-40.927422)" />
    <use
       id="use14118"
       inkscape:spray-origin="#path13503"
       xlink:href="#path13503"
       x="0"
       y="0"
       width="100%"
       height="100%"
       transform="translate(52.294224,-45.810881)" />
    <use
       id="use14120"
       inkscape:spray-origin="#path13503"
       xlink:href="#path13503"
       x="0"
       y="0"
       width="100%"
       height="100%"
       transform="translate(57.166721,-47.348084)" />
    <use
       id="use14122"
       inkscape:spray-origin="#path13503"
       xlink:href="#path13503"
       x="0"
       y="0"
       width="100%"
       height="100%"
       transform="translate(62.754436,-48.209754)" />
    <use
       id="use14124"
       inkscape:spray-origin="#path13503"
       xlink:href="#path13503"
       x="0"
       y="0"
       width="100%"
       height="100%"
       transform="translate(67.447791,-41.264402)" />
    <use
       id="use14126"
       inkscape:spray-origin="#path13503"
       xlink:href="#path13503"
       x="0"
       y="0"
       width="100%"
       height="100%"
       transform="translate(71.576636,-50.565626)" />
    <use
       id="use14128"
       inkscape:spray-origin="#path13503"
       xlink:href="#path13503"
       x="0"
       y="0"
       width="100%"
       height="100%"
       transform="translate(64.629788,-41.62926)" />
    <use
       id="use14130"
       inkscape:spray-origin="#path13503"
       xlink:href="#path13503"
       x="0"
       y="0"
       width="100%"
       height="100%"
       transform="translate(75.588133,-36.619262)" />
    <use
       id="use14132"
       inkscape:spray-origin="#path13503"
       xlink:href="#path13503"
       x="0"
       y="0"
       width="100%"
       height="100%"
       transform="translate(88.100086,-39.801418)" />
    <use
       id="use14134"
       inkscape:spray-origin="#path13503"
       xlink:href="#path13503"
       x="0"
       y="0"
       width="100%"
       height="100%"
       transform="translate(88.574386,-48.6101)" />
    <use
       id="use14136"
       inkscape:spray-origin="#path13503"
       xlink:href="#path13503"
       x="0"
       y="0"
       width="100%"
       height="100%"
       transform="translate(88.663771,-49.92439)" />
    <use
       id="use14138"
       inkscape:spray-origin="#path13503"
       xlink:href="#path13503"
       x="0"
       y="0"
       width="100%"
       height="100%"
       transform="translate(100.00658,-40.836466)" />
    <use
       id="use14140"
       inkscape:spray-origin="#path13503"
       xlink:href="#path13503"
       x="0"
       y="0"
       width="100%"
       height="100%"
       transform="translate(95.61438,-43.496558)" />
    <use
       id="use14142"
       inkscape:spray-origin="#path13503"
       xlink:href="#path13503"
       x="0"
       y="0"
       width="100%"
       height="100%"
       transform="translate(106.62742,-43.688271)" />
    <use
       id="use14144"
       inkscape:spray-origin="#path13503"
       xlink:href="#path13503"
       x="0"
       y="0"
       width="100%"
       height="100%"
       transform="translate(99.444627,-45.668115)" />
    <use
       id="use14146"
       inkscape:spray-origin="#path13503"
       xlink:href="#path13503"
       x="0"
       y="0"
       width="100%"
       height="100%"
       transform="translate(107.55222,-43.891861)" />
    <use
       id="use14148"
       inkscape:spray-origin="#path13503"
       xlink:href="#path13503"
       x="0"
       y="0"
       width="100%"
       height="100%"
       transform="translate(102.20756,-42.613173)" />
    <use
       id="use14150"
       inkscape:spray-origin="#path13503"
       xlink:href="#path13503"
       x="0"
       y="0"
       width="100%"
       height="100%"
       transform="translate(103.13237,-46.159567)" />
    <use
       id="use14152"
       inkscape:spray-origin="#path13503"
       xlink:href="#path13503"
       x="0"
       y="0"
       width="100%"
       height="100%"
       transform="translate(104.7385,-39.852759)" />
    <use
       id="use14154"
       inkscape:spray-origin="#path13503"
       xlink:href="#path13503"
       x="0"
       y="0"
       width="100%"
       height="100%"
       transform="translate(106.09423,-49.500498)" />
    <use
       id="use14156"
       inkscape:spray-origin="#path13503"
       xlink:href="#path13503"
       x="0"
       y="0"
       width="100%"
       height="100%"
       transform="translate(100.35107,-46.348913)" />
    <use
       id="use14158"
       inkscape:spray-origin="#path13503"
       xlink:href="#path13503"
       x="0"
       y="0"
       width="100%"
       height="100%"
       transform="translate(106.30992,-51.18235)" />
    <use
       id="use14160"
       inkscape:spray-origin="#path13503"
       xlink:href="#path13503"
       x="0"
       y="0"
       width="100%"
       height="100%"
       transform="translate(106.42182,-43.862179)" />
    <use
       id="use14162"
       inkscape:spray-origin="#path13503"
       xlink:href="#path13503"
       x="0"
       y="0"
       width="100%"
       height="100%"
       transform="translate(105.75528,-59.363011)" />
    <use
       id="use14164"
       inkscape:spray-origin="#path13503"
       xlink:href="#path13503"
       x="0"
       y="0"
       width="100%"
       height="100%"
       transform="translate(100.71397,-53.326718)" />
    <use
       id="use14166"
       inkscape:spray-origin="#path13503"
       xlink:href="#path13503"
       x="0"
       y="0"
       width="100%"
       height="100%"
       transform="translate(97.607896,-58.860167)" />
    <use
       id="use14168"
       inkscape:spray-origin="#path13503"
       xlink:href="#path13503"
       x="0"
       y="0"
       width="100%"
       height="100%"
       transform="translate(95.15861,-45.419639)" />
    <use
       id="use14170"
       inkscape:spray-origin="#path13503"
       xlink:href="#path13503"
       x="0"
       y="0"
       width="100%"
       height="100%"
       transform="translate(98.391784,-58.454576)" />
    <use
       id="use14172"
       inkscape:spray-origin="#path13503"
       xlink:href="#path13503"
       x="0"
       y="0"
       width="100%"
       height="100%"
       transform="translate(87.284621,-59.261822)" />
    <use
       id="use14174"
       inkscape:spray-origin="#path13503"
       xlink:href="#path13503"
       x="0"
       y="0"
       width="100%"
       height="100%"
       transform="translate(84.026662,-46.163342)" />
    <use
       id="use14176"
       inkscape:spray-origin="#path13503"
       xlink:href="#path13503"
       x="0"
       y="0"
       width="100%"
       height="100%"
       transform="translate(76.158717,-49.736578)" />
    <use
       id="use14178"
       inkscape:spray-origin="#path13503"
       xlink:href="#path13503"
       x="0"
       y="0"
       width="100%"
       height="100%"
       transform="translate(67.693605,-58.822734)" />
    <use
       id="use14180"
       inkscape:spray-origin="#path13503"
       xlink:href="#path13503"
       x="0"
       y="0"
       width="100%"
       height="100%"
       transform="translate(65.03254,-55.753839)" />
    <use
       id="use14182"
       inkscape:spray-origin="#path13503"
       xlink:href="#path13503"
       x="0"
       y="0"
       width="100%"
       height="100%"
       transform="translate(70.793527,-57.181708)" />
    <use
       id="use14184"
       inkscape:spray-origin="#path13503"
       xlink:href="#path13503"
       x="0"
       y="0"
       width="100%"
       height="100%"
       transform="translate(69.740093,-59.532086)" />
    <use
       id="use14186"
       inkscape:spray-origin="#path13503"
       xlink:href="#path13503"
       x="0"
       y="0"
       width="100%"
       height="100%"
       transform="translate(57.688583,-49.963793)" />
    <use
       id="use14188"
       inkscape:spray-origin="#path13503"
       xlink:href="#path13503"
       x="0"
       y="0"
       width="100%"
       height="100%"
       transform="translate(40.343516,-59.326035)" />
    <use
       id="use14190"
       inkscape:spray-origin="#path13503"
       xlink:href="#path13503"
       x="0"
       y="0"
       width="100%"
       height="100%"
       transform="translate(30.170767,-58.177071)" />
    <use
       id="use14192"
       inkscape:spray-origin="#path13503"
       xlink:href="#path13503"
       x="0"
       y="0"
       width="100%"
       height="100%"
       transform="translate(27.855186,-48.895941)" />
    <use
       id="use14194"
       inkscape:spray-origin="#path13503"
       xlink:href="#path13503"
       x="0"
       y="0"
       width="100%"
       height="100%"
       transform="translate(21.445176,-53.737985)" />
    <use
       id="use14196"
       inkscape:spray-origin="#path13503"
       xlink:href="#path13503"
       x="0"
       y="0"
       width="100%"
       height="100%"
       transform="translate(18.018359,-48.949984)" />
    <use
       id="use14198"
       inkscape:spray-origin="#path13503"
       xlink:href="#path13503"
       x="0"
       y="0"
       width="100%"
       height="100%"
       transform="translate(13.831978,-47.406737)" />
    <use
       id="use14200"
       inkscape:spray-origin="#path13503"
       xlink:href="#path13503"
       x="0"
       y="0"
       width="100%"
       height="100%"
       transform="translate(-1.8195963,-53.845826)" />
    <use
       id="use14202"
       inkscape:spray-origin="#path13503"
       xlink:href="#path13503"
       x="0"
       y="0"
       width="100%"
       height="100%"
       transform="translate(2.5893039,-52.731853)" />
    <use
       id="use14204"
       inkscape:spray-origin="#path13503"
       xlink:href="#path13503"
       x="0"
       y="0"
       width="100%"
       height="100%"
       transform="translate(1.4459858,-54.167545)" />
    <use
       id="use14206"
       inkscape:spray-origin="#path13503"
       xlink:href="#path13503"
       x="0"
       y="0"
       width="100%"
       height="100%"
       transform="translate(-6.1836526,-56.95732)" />
    <use
       id="use14208"
       inkscape:spray-origin="#path13503"
       xlink:href="#path13503"
       x="0"
       y="0"
       width="100%"
       height="100%"
       transform="translate(-10.626422,-55.771828)" />
    <use
       id="use14210"
       inkscape:spray-origin="#path13503"
       xlink:href="#path13503"
       x="0"
       y="0"
       width="100%"
       height="100%"
       transform="translate(-8.6866562,-49.026426)" />
    <use
       id="use14212"
       inkscape:spray-origin="#path13503"
       xlink:href="#path13503"
       x="0"
       y="0"
       width="100%"
       height="100%"
       transform="translate(-4.7678895,-48.998998)" />
    <use
       id="use14214"
       inkscape:spray-origin="#path13503"
       xlink:href="#path13503"
       x="0"
       y="0"
       width="100%"
       height="100%"
       transform="translate(-8.5520124,-54.702336)" />
    <use
       id="use14216"
       inkscape:spray-origin="#path13503"
       xlink:href="#path13503"
       x="0"
       y="0"
       width="100%"
       height="100%"
       transform="translate(-18.318447,-41.862983)" />
    <path
       style="fill:#000000;stroke-width:0.264583"
       d="m 21.454996,154.82439 0.07014,-7.73906 1.98094,-0.97264 c 2.56554,-1.25967 7.050625,-2.79245 10.71906,-3.66323 l 2.910417,-0.69085 0.07807,-2.07703 c 0.07646,-2.03419 0.06827,-2.06494 -0.396875,-1.49082 l -0.474943,0.58621 -1.031287,-1.05639 -1.031286,-1.05639 4.243301,-4.57901 c 2.333817,-2.51846 4.524302,-4.82929 4.867745,-5.13518 0.627417,-0.55881 12.7022,-7.24904 13.08335,-7.24904 0.11203,0 3.115533,1.57757 6.674453,3.50572 l 6.47076,3.50573 3.60211,3.8624 3.60211,3.86241 0.0761,-2.50761 c 0.0615,-2.02571 -0.007,-2.59954 -0.35677,-2.98598 -0.33231,-0.36719 -0.39,-0.74355 -0.24827,-1.61938 0.96915,-5.98849 6.94411,-8.36331 10.5228,-4.18242 1.42781,1.66808 2.40983,5.18709 1.62848,5.83555 -0.31124,0.25831 -0.37758,1.66778 -0.37758,8.0224 v 7.70903 l 1.78594,0.63324 c 0.98226,0.34828 2.41101,0.90621 3.175,1.23984 l 1.38906,0.60661 v 7.68748 7.68748 H 57.901353 21.384854 Z m 41.944125,-6.21771 0.0698,-8.53281 h -7.147419 -7.147414 v 8.42257 c 0,4.63242 0.07473,8.4973 0.166065,8.58863 0.09134,0.0913 3.276257,0.14095 7.077605,0.11025 l 6.911543,-0.0558 z m -10.207913,4.29948 c 1.626225,-1.96453 3.026199,-3.57187 3.111056,-3.57187 0.08486,0 1.49442,1.60734 3.132362,3.57187 l 2.978075,3.57188 h -6.08913 -6.089132 z m -3.22336,-4.36562 c 0,-3.78354 0.04443,-6.87917 0.09874,-6.87917 0.05431,0 1.371814,1.54995 2.927792,3.44433 l 2.829055,3.44434 -2.826833,3.43483 c -1.554757,1.88916 -2.872263,3.43484 -2.927792,3.43484 -0.05553,0 -0.100959,-3.09563 -0.100959,-6.87917 z m 9.702154,3.48274 -2.865554,-3.48274 2.865554,-3.48274 2.865559,-3.48274 0.0738,3.48274 c 0.0406,1.91551 0.0406,5.04997 0,6.96548 l -0.0738,3.48274 z m -4.574556,-5.53326 c -0.572357,-0.69123 -1.851424,-2.23904 -2.842371,-3.43959 l -1.801722,-2.18281 h 5.842783 5.842785 l -2.816468,3.43959 c -1.549056,1.89177 -2.89924,3.43958 -3.000409,3.43958 -0.101171,0 -0.652238,-0.56555 -1.224598,-1.25677 z m -26.823432,7.08031 v -2.90771 l 1.213903,-1.89381 c 1.653106,-2.57902 1.660535,-2.6112 0.600342,-2.60085 -0.811947,0.008 -1.01314,0.19279 -2.343412,2.15313 -0.800364,1.17945 -1.455208,2.23718 -1.455208,2.35052 0,0.11335 -0.0893,0.29538 -0.198438,0.40452 -0.245416,0.24542 -0.265402,4.98217 -0.02205,5.22552 0.09701,0.097 0.632794,0.17639 1.190624,0.17639 h 1.014236 z m 2.117172,0.0634 5.03e-4,-2.84427 1.322411,-2.19874 c 0.727329,-1.20931 1.322414,-2.25111 1.322414,-2.31511 0,-0.064 -0.345179,-0.11636 -0.767064,-0.11636 -0.67999,0 -0.935285,0.27066 -2.248959,2.38433 l -1.481894,2.38433 v 2.77505 2.77504 h 0.926042 0.926042 l 5.02e-4,-2.84427 z m 2.96162,2.19996 c 0.189841,-0.35437 0.855425,-1.56201 1.479074,-2.68363 1.130258,-2.03275 1.133665,-2.04707 1.058333,-4.44892 l -0.07557,-2.4096 -1.103846,-0.0803 -1.103846,-0.0804 -1.475842,2.47312 -1.475841,2.47312 v 2.70046 2.70046 h 1.176188 c 0.97537,0 1.23512,-0.11001 1.521354,-0.64431 z m 52.660525,-0.56754 c 1.77504,-0.62627 1.79193,-0.66282 1.79193,-3.87594 0,-2.66689 -0.0381,-2.89003 -0.46302,-2.70853 -2.38381,1.01834 -7.08028,1.17629 -9.12812,0.307 l -0.99219,-0.42118 v 3.04271 3.04271 l 0.96751,0.40425 c 2.24274,0.93708 5.5127,1.02442 7.82389,0.20898 z m 0.61754,-6.61387 1.0421,-0.50866 0.0748,-3.14048 c 0.0697,-2.92693 0.0427,-3.12682 -0.39688,-2.93937 -2.39656,1.02187 -7.08539,1.18113 -9.13679,0.31032 l -0.99219,-0.42117 v 3.15219 c 0,2.84905 0.0494,3.17861 0.51336,3.42693 1.74621,0.93455 7.0796,1.00664 8.89558,0.12024 z m -39.836023,-3.55136 v -3.175 h -3.307292 -3.307292 v 3.175 3.175 h 3.307292 3.307292 z m -5.820834,0 v -2.64584 h 2.513542 2.513542 v 2.64584 2.64583 h -2.513542 -2.513542 z m 31.485417,0 v -3.175 h -3.30729 -3.30729 v 3.175 3.175 h 3.30729 3.30729 z m -5.82083,0 v -2.64584 h 2.64583 2.64583 v 2.64584 2.64583 h -2.64583 -2.64583 z m 19.99227,-3.06322 1.0421,-0.50866 0.0746,-3.10885 c 0.041,-1.70987 0.0262,-3.10886 -0.0329,-3.10886 -0.0591,0 -0.61361,0.1786 -1.23228,0.39688 -0.61868,0.21828 -1.37779,0.38904 -1.68691,0.37946 -0.30913,-0.01 0.0842,-0.19114 0.874,-0.40348 2.11881,-0.56961 2.13582,-0.59814 2.13582,-3.58025 0,-1.43739 -0.0537,-2.61344 -0.11938,-2.61344 -0.0657,0 -0.80505,0.17859 -1.64309,0.39687 -2.35854,0.61433 -5.88341,0.50968 -8.23471,-0.24447 l -0.60447,-0.19388 0.0753,2.83892 0.0753,2.83891 1.05834,0.37725 c 0.58208,0.20748 2.12989,0.47015 3.43958,0.5837 2.33124,0.20212 2.34495,0.20725 0.65297,0.24416 -0.95055,0.0207 -2.35302,-0.12435 -3.1166,-0.32242 -1.35353,-0.3511 -1.37703,-0.34764 -0.93744,0.1381 0.42882,0.47384 0.40977,0.54067 -0.38912,1.36491 -0.75914,0.78324 -0.84002,1.02378 -0.84002,2.49842 0,1.34421 0.0905,1.68016 0.51336,1.90649 1.74621,0.93454 7.0796,1.00663 8.89558,0.12024 z m -10.46218,-3.92774 -0.81947,-0.81425 0.0765,1.97328 c 0.072,1.85921 0.1147,1.98234 0.73792,2.12991 0.63063,0.14933 0.66526,0.0953 0.74301,-1.15904 0.0727,-1.17274 -0.007,-1.40411 -0.73792,-2.1299 z m -15.938283,-5.78195 0.0741,-3.3802 -4.175144,0.0729 -4.175143,0.0729 -0.07493,3.15396 c -0.05425,2.28369 0.01511,3.2096 0.251376,3.35562 0.179469,0.11092 2.058659,0.17992 4.175974,0.15334 l 3.849666,-0.0483 z m -5.619713,1.53104 1.529514,-1.18769 1.2143,0.96831 c 0.667864,0.53257 1.327407,1.06703 1.465652,1.18769 0.138244,0.12067 -1.096471,0.21939 -2.743814,0.21939 h -2.995168 z m -1.995014,-1.58969 v -2.26684 l 1.486951,1.12266 1.48695,1.12266 -1.02393,0.88058 c -1.968291,1.69273 -1.949971,1.7008 -1.949971,-0.85906 z m 5.355746,1.14022 -1.391126,-1.07728 1.489107,-1.15632 c 0.81901,-0.63597 1.534316,-1.15631 1.589566,-1.15631 0.05525,0 0.100457,1.01203 0.100457,2.24895 0,1.23693 -0.0893,2.24205 -0.198437,2.2336 -0.109141,-0.008 -0.824444,-0.50013 -1.589567,-1.09264 z m -3.336443,-2.60561 -1.287989,-1.04889 h 2.677051 c 1.47238,0 2.677052,0.0436 2.677052,0.0969 0,0.14698 -2.445443,2.02115 -2.623108,2.01033 -0.08526,-0.005 -0.734611,-0.48144 -1.443006,-1.05833 z"
       id="path14430" />
    <path
       style="fill:#999999;fill-opacity:0.234818;stroke-width:0.937121"
       d="m 305.96993,576.29626 c -2.57708,-0.40497 -6.37242,-1.34289 -8.43409,-2.08427 l -3.74848,-1.34797 -0.26504,-11.03585 -0.26503,-11.03585 2.13927,0.64917 c 6.27281,1.90349 9.37507,2.3505 16.19609,2.33371 6.8812,-0.0169 9.11193,-0.30141 18.03958,-2.30049 l 3.04564,-0.68198 -0.0143,9.72262 c -0.008,5.34745 -0.32417,10.19092 -0.70284,10.76327 -1.28364,1.94019 -6.50625,4.02852 -12.51173,5.00296 -6.5904,1.06936 -6.76618,1.06955 -13.47902,0.0147 z"
       id="path14559"
       transform="scale(0.26458333)" />
    <path
       style="fill:#999999;fill-opacity:0.234818;stroke-width:0.937121"
       d="m 311.12409,538.9962 v -9.43804 l 3.04564,-0.42555 c 9.5338,-1.33209 15.41917,-2.35979 16.86818,-2.9455 1.50575,-0.60864 1.63996,0.22729 1.63996,10.21426 v 10.87715 l -8.66837,0.0128 c -4.7676,0.007 -9.6172,0.26707 -10.77689,0.57786 -2.08444,0.55861 -2.10852,0.45729 -2.10852,-8.87298 z"
       id="path14598"
       transform="scale(0.26458333)" />
    <path
       style="fill:#999999;fill-opacity:0.234818;stroke-width:0.937121"
       d="m 311.12409,538.9962 v -9.43804 l 3.04564,-0.42555 c 9.5338,-1.33209 15.41917,-2.35979 16.86818,-2.9455 1.50575,-0.60864 1.63996,0.22729 1.63996,10.21426 v 10.87715 l -8.66837,0.0128 c -4.7676,0.007 -9.6172,0.26707 -10.77689,0.57786 -2.08444,0.55861 -2.10852,0.45729 -2.10852,-8.87298 z"
       id="path14637"
       transform="scale(0.26458333)" />
    <path
       style="fill:#999999;fill-opacity:0.234818;stroke-width:0.937121"
       d="m 311.12409,538.87901 v -9.32085 l 3.04564,-0.42555 c 9.5338,-1.33209 15.41917,-2.35979 16.86818,-2.9455 1.50575,-0.60864 1.63996,0.22729 1.63996,10.21426 v 10.87715 l -7.73125,0.0633 c -4.25218,0.0348 -9.10178,0.24209 -10.77689,0.46067 l -3.04564,0.39743 z"
       id="path14676"
       transform="scale(0.26458333)" />
    <path
       style="fill:#999999;fill-opacity:0.234818;stroke-width:0.937121"
       d="m 300.81576,574.83192 c -2.83479,-0.79512 -5.42029,-1.73233 -5.74556,-2.08268 -0.32526,-0.35036 -0.79809,-5.30533 -1.05073,-11.01105 l -0.45934,-10.37403 4.76916,1.2371 c 6.09654,1.58142 20.92989,1.537 28.49157,-0.0853 l 5.85701,-1.2566 v 3.02237 c 0,1.6623 -0.27722,6.30185 -0.61604,10.3101 l -0.61604,7.28772 -4.29193,1.89853 c -5.7231,2.5316 -19.15368,3.069 -26.3381,1.05387 z"
       id="path14715"
       transform="scale(0.26458333)" />
    <path
       style="fill:#999999;fill-opacity:0.234818;stroke-width:0.937121"
       d="m 299.30207,573.87648 c -3.71304,-1.31683 -3.87832,-1.54938 -4.44318,-6.25159 -0.32267,-2.68613 -0.59035,-7.31671 -0.59483,-10.29017 l -0.008,-5.4063 2.57708,0.72069 c 3.44769,0.96417 26.86128,0.9217 31.82182,-0.0577 l 3.94248,-0.7784 -0.56368,8.27537 c -0.77509,11.3789 -1.14708,12.11689 -6.9811,13.8494 -6.19309,1.83915 -20.48772,1.80513 -25.75045,-0.0613 z"
       id="path14754"
       transform="scale(0.26458333)" />
  </g>
</svg>
